{
DisplayStrings = (
anhde
);
classes = (
{
automatic = 1;
code = "A A.alt Aacute Acircumflex Adieresis Agrave Aring Atilde AE B C Ccedilla D Eth E Eacute Ecircumflex Edieresis Egrave F G H Hbar I Iacute Icircumflex Idieresis Igrave J K L M N Ntilde O Oacute Ocircumflex Odieresis Ograve Oslash Otilde OE P Thorn Q Q.alt R R.alt S Germandbls T U Uacute Ucircumflex Udieresis Ugrave V W Wacute Wcircumflex Wdieresis Wgrave X Y Yacute Ycircumflex Ydieresis Ygrave Z Be-cy De-cy Zhe-cy Ef-cy";
name = Uppercase;
}
);
copyright = "Aoife Mooney";
date = "2015-06-25 01:21:12 +0000";
designer = "Aoife Mooney";
designerURL = www.aoifemooney.org;
familyName = "BioRhyme";
featurePrefixes = (
{
automatic = 1;
code = "languagesystem DFLT dflt;\012";
name = Languagesystems;
}
);
features = (
{
code = "sub R by R.alt;\012sub Q by Q.alt;\012\012\012";
name = ss01;
},
{
code = "#alternate exit strokes\012sub a by a.alt;\012sub d by d.alt;\012sub u by u.alt;\012";
name = ss02;
},
{
code = "#stylistic alternates\012sub f by f.alt;\012sub t by t.alt;\012sub a by a.alt2;\012sub g by g.alt;\012sub k by k.alt;\012sub z by z.alt;\012sub x by x.alt;\012\012\012";
name = ss03;
},
{
code = "#numeric alternates\012sub two by two.alt;\012sub seven by seven.alt;\012";
name = ss04;
}
);
fontMaster = (
{
alignmentZones = (
"{775, 16}",
"{630, 11}",
"{530, 20}",
"{387, 11}",
"{362, 46}",
"{164, 5}",
"{24, 21}",
"{0, -11}",
"{-190, -16}"
);
ascender = 775;
capHeight = 520;
customParameters = (
{
name = winAscent;
value = 730;
},
{
name = winDescent;
value = 351;
},
{
name = hheaAscender;
value = 560;
},
{
name = hheaDescender;
value = -165;
},
{
name = hheaLineGap;
value = 81;
},
{
name = typoAscender;
value = 560;
},
{
name = typoDescender;
value = -165;
},
{
name = typoLineGap;
value = 81;
}
);
descender = -225;
horizontalStems = (
96
);
id = "C70E3B11-AF58-44B6-92D7-58C9185F522D";
verticalStems = (
115
);
weight = Bold;
weightValue = 800;
width = Extended;
xHeight = 357;
}
);
glyphs = (
{
glyphname = A;
layers = (
{
anchors = (
{
name = bottom;
position = "{514, 0}";
},
{
name = hook;
position = "{597, 643}";
},
{
name = ogonek;
position = "{991, 6}";
},
{
name = top;
position = "{511, 532}";
}
);
layerId = "C70E3B11-AF58-44B6-92D7-58C9185F522D";
name = "Bold Extended";
paths = (
{
closed = 1;
nodes = (
"217 13 LINE",
"537 463 LINE",
"483 463 LINE",
"802 13 LINE",
"941 13 LINE",
"595 461 LINE SMOOTH",
"424 461 LINE",
"78 13 LINE"
);
},
{
closed = 1;
nodes = (
"376 0 LINE",
"376 96 LINE",
"0 96 LINE",
"0 0 LINE"
);
},
{
closed = 1;
nodes = (
"708 173 LINE",
"691 260 LINE",
"325 260 LINE",
"307 173 LINE"
);
},
{
closed = 1;
nodes = (
"1019 0 LINE",
"1019 96 LINE",
"644 96 LINE",
"644 0 LINE"
);
},
{
closed = 1;
nodes = (
"724 424 LINE",
"724 520 LINE",
"294 520 LINE",
"294 424 LINE"
);
}
);
width = 1019;
}
);
leftKerningGroup = A;
rightKerningGroup = A;
unicode = 0041;
},
{
glyphname = A.alt;
layers = (
{
anchors = (
{
name = bottom;
position = "{519, 0}";
},
{
name = ogonek;
position = "{916, 10}";
},
{
name = top;
position = "{519, 447}";
}
);
layerId = "C70E3B11-AF58-44B6-92D7-58C9185F522D";
name = "Bold Extended";
paths = (
{
closed = 1;
nodes = (
"488 530 LINE",
"89 13 LINE",
"223 13 LINE",
"547 438 LINE",
"487 438 LINE",
"810 13 LINE",
"948 13 LINE",
"553 530 LINE"
);
},
{
closed = 1;
nodes = (
"1036 0 LINE",
"1036 96 LINE",
"675 96 LINE",
"675 0 LINE"
);
},
{
closed = 1;
nodes = (
"361 0 LINE",
"361 96 LINE",
"0 96 LINE",
"0 0 LINE"
);
},
{
closed = 1;
nodes = (
"705 249 LINE",
"333 249 LINE",
"314 162 LINE",
"720 162 LINE"
);
}
);
width = 1036;
}
);
leftKerningGroup = A.alt;
rightKerningGroup = A.alt;
},
{
color = 0;
glyphname = AE;
layers = (
{
anchors = (
{
name = bottom;
position = "{715, 0}";
},
{
name = ogonek;
position = "{1244, 0}";
},
{
name = top;
position = "{716, 520}";
}
);
layerId = "C70E3B11-AF58-44B6-92D7-58C9185F522D";
name = "Bold Extended";
paths = (
{
closed = 1;
nodes = (
"175 13 LINE",
"573 464 LINE",
"507 464 LINE",
"730 13 LINE",
"853 13 LINE",
"626 461 LINE SMOOTH",
"448 461 LINE",
"34 13 LINE"
);
},
{
closed = 1;
nodes = (
"343 0 LINE",
"343 96 LINE",
"-19 96 LINE",
"-19 0 LINE"
);
},
{
closed = 1;
nodes = (
"721 168 LINE",
"721 255 LINE",
"304 255 LINE",
"280 168 LINE"
);
},
{
closed = 1;
nodes = (
"1244 0 LINE",
"1244 240 LINE",
"1136 240 LINE",
"1136 96 LINE",
"540 96 LINE",
"540 0 LINE"
);
},
{
closed = 1;
nodes = (
"965 131 LINE",
"965 387 LINE",
"869 387 LINE",
"869 307 LINE",
"648 307 LINE",
"648 211 LINE",
"869 211 LINE",
"869 131 LINE"
);
},
{
closed = 1;
nodes = (
"1244 284 LINE",
"1244 520 LINE",
"301 520 LINE",
"301 424 LINE",
"1136 424 LINE",
"1136 284 LINE"
);
}
);
width = 1344;
}
);
leftKerningGroup = A;
rightKerningGroup = E;
rightMetricsKey = "=E";
unicode = 00C6;
},
{
glyphname = B;
layers = (
{
anchors = (
{
name = bottom;
position = "{452, 0}";
},
{
name = top;
position = "{452, 557}";
}
);
layerId = "C70E3B11-AF58-44B6-92D7-58C9185F522D";
name = "Bold Extended";
paths = (
{
closed = 1;
nodes = (
"702 0 LINE SMOOTH",
"838 0 OFFCURVE",
"908 55 OFFCURVE",
"908 147 CURVE SMOOTH",
"908 269 OFFCURVE",
"780 287 OFFCURVE",
"689 287 CURVE",
"690 240 LINE",
"757 240 OFFCURVE",
"867 277 OFFCURVE",
"867 379 CURVE SMOOTH",
"867 460 OFFCURVE",
"807 520 OFFCURVE",
"685 520 CURVE SMOOTH",
"51 520 LINE",
"51 424 LINE",
"679 424 LINE SMOOTH",
"708 424 OFFCURVE",
"745 411 OFFCURVE",
"745 363 CURVE SMOOTH",
"745 317 OFFCURVE",
"710 302 OFFCURVE",
"656 302 CURVE SMOOTH",
"286 302 LINE",
"286 215 LINE",
"702 215 LINE SMOOTH",
"759 216 OFFCURVE",
"786 197 OFFCURVE",
"786 157 CURVE SMOOTH",
"786 113 OFFCURVE",
"751 96 OFFCURVE",
"693 96 CURVE SMOOTH",
"51 96 LINE",
"51 0 LINE"
);
},
{
closed = 1;
nodes = (
"328 53 LINE",
"328 464 LINE",
"205 464 LINE",
"205 53 LINE"
);
}
);
width = 960;
}
);
leftKerningGroup = H;
leftMetricsKey = "=H";
rightKerningGroup = B;
unicode = 0042;
},
{
glyphname = C;
layers = (
{
anchors = (
{
name = bottom;
position = "{434, -10}";
},
{
name = top;
position = "{434, 554}";
}
);
layerId = "C70E3B11-AF58-44B6-92D7-58C9185F522D";
name = "Bold Extended";
paths = (
{
closed = 1;
nodes = (
"644 -10 OFFCURVE",
"771 77 OFFCURVE",
"837 194 CURVE",
"756 258 LINE",
"708 171 OFFCURVE",
"615 90 OFFCURVE",
"434 90 CURVE SMOOTH",
"292 90 OFFCURVE",
"173 159 OFFCURVE",
"173 260 CURVE SMOOTH",
"173 376 OFFCURVE",
"297 435 OFFCURVE",
"445 435 CURVE SMOOTH",
"563 435 OFFCURVE",
"668 393 OFFCURVE",
"745 296 CURVE",
"826 300 LINE",
"825 520 LINE",
"715 520 LINE",
"716 377 LINE",
"770 366 LINE",
"685 478 OFFCURVE",
"573 530 OFFCURVE",
"415 530 CURVE SMOOTH",
"213 530 OFFCURVE",
"45 425 OFFCURVE",
"45 258 CURVE SMOOTH",
"45 103 OFFCURVE",
"218 -10 OFFCURVE",
"434 -10 CURVE SMOOTH"
);
}
);
width = 888;
}
);
leftKerningGroup = O;
leftMetricsKey = "=O";
rightKerningGroup = C;
unicode = 0043;
},
{
glyphname = D;
layers = (
{
anchors = (
{
name = bottom;
position = "{497, 0}";
},
{
name = center;
position = "{497, 263}";
},
{
name = top;
position = "{497, 557}";
}
);
layerId = "C70E3B11-AF58-44B6-92D7-58C9185F522D";
name = "Bold Extended";
paths = (
{
closed = 1;
nodes = (
"577 0 LINE",
"753 0 OFFCURVE",
"940 59 OFFCURVE",
"940 260 CURVE",
"940 461 OFFCURVE",
"753 520 OFFCURVE",
"577 520 CURVE",
"51 520 LINE",
"51 424 LINE",
"558 424 LINE",
"667 424 OFFCURVE",
"812 418 OFFCURVE",
"812 260 CURVE",
"812 102 OFFCURVE",
"667 98 OFFCURVE",
"558 98 CURVE",
"51 98 LINE",
"51 0 LINE"
);
},
{
closed = 1;
nodes = (
"328 56 LINE",
"328 464 LINE",
"205 464 LINE",
"205 56 LINE"
);
}
);
width = 985;
}
);
leftKerningGroup = H;
leftMetricsKey = "=H";
rightKerningGroup = O;
rightMetricsKey = "=O";
unicode = 0044;
},
{
glyphname = E;
layers = (
{
anchors = (
{
name = bottom;
position = "{444, -2}";
},
{
name = ogonek;
position = "{829, -2}";
},
{
name = top;
position = "{444, 527}";
}
);
layerId = "C70E3B11-AF58-44B6-92D7-58C9185F522D";
name = "Bold Extended";
paths = (
{
closed = 1;
nodes = (
"907 0 LINE",
"907 240 LINE",
"799 240 LINE",
"799 96 LINE",
"51 96 LINE",
"51 0 LINE"
);
},
{
closed = 1;
nodes = (
"326 53 LINE",
"326 458 LINE",
"204 458 LINE",
"204 53 LINE"
);
},
{
closed = 1;
nodes = (
"594 206 LINE",
"594 302 LINE",
"248 302 LINE",
"248 206 LINE"
);
},
{
closed = 1;
nodes = (
"634 126 LINE",
"634 382 LINE",
"538 382 LINE",
"538 126 LINE"
);
},
{
closed = 1;
nodes = (
"907 280 LINE",
"907 520 LINE",
"51 520 LINE",
"51 424 LINE",
"799 424 LINE",
"799 280 LINE"
);
}
);
width = 1007;
}
);
leftKerningGroup = H;
leftMetricsKey = "=H";
rightKerningGroup = E;
unicode = 0045;
},
{
glyphname = F;
layers = (
{
anchors = (
{
name = bottom;
position = "{474, 0}";
},
{
name = top;
position = "{474, 527}";
}
);
layerId = "C70E3B11-AF58-44B6-92D7-58C9185F522D";
name = "Bold Extended";
paths = (
{
closed = 1;
nodes = (
"881 273 LINE",
"881 520 LINE",
"51 520 LINE",
"51 424 LINE",
"774 424 LINE",
"774 273 LINE"
);
},
{
closed = 1;
nodes = (
"490 0 LINE",
"490 96 LINE",
"51 96 LINE",
"51 0 LINE"
);
},
{
closed = 1;
nodes = (
"327 53 LINE",
"327 464 LINE",
"205 464 LINE",
"205 53 LINE"
);
},
{
closed = 1;
nodes = (
"588 203 LINE",
"588 300 LINE",
"249 300 LINE",
"249 203 LINE"
);
},
{
closed = 1;
nodes = (
"627 123 LINE",
"627 380 LINE",
"532 380 LINE",
"532 123 LINE"
);
}
);
width = 942;
}
);
leftKerningGroup = H;
leftMetricsKey = "=H";
rightKerningGroup = F;
unicode = 0046;
},
{
glyphname = G;
layers = (
{
anchors = (
{
name = bottom;
position = "{441, -10}";
},
{
name = top;
position = "{441, 530}";
}
);
layerId = "C70E3B11-AF58-44B6-92D7-58C9185F522D";
name = "Bold Extended";
paths = (
{
closed = 1;
nodes = (
"678 -10 OFFCURVE",
"842 116 OFFCURVE",
"842 269 CURVE SMOOTH",
"842 292 LINE",
"412 292 LINE",
"412 196 LINE",
"716 196 LINE",
"697 140 OFFCURVE",
"603 86 OFFCURVE",
"435 86 CURVE SMOOTH",
"292 86 OFFCURVE",
"173 158 OFFCURVE",
"173 259 CURVE SMOOTH",
"173 362 OFFCURVE",
"295 435 OFFCURVE",
"449 435 CURVE SMOOTH",
"559 435 OFFCURVE",
"671 393 OFFCURVE",
"748 302 CURVE",
"828 307 LINE",
"828 520 LINE",
"718 520 LINE",
"718 372 LINE",
"776 355 LINE",
"688 484 OFFCURVE",
"567 530 OFFCURVE",
"417 530 CURVE SMOOTH",
"209 530 OFFCURVE",
"45 415 OFFCURVE",
"45 259 CURVE SMOOTH",
"45 104 OFFCURVE",
"218 -10 OFFCURVE",
"430 -10 CURVE SMOOTH"
);
}
);
width = 902;
}
);
leftKerningGroup = O;
leftMetricsKey = "=O";
rightKerningGroup = G;
unicode = 0047;
},
{
glyphname = H;
layers = (
{
anchors = (
{
name = bottom;
position = "{564, 0}";
},
{
name = center;
position = "{564, 277}";
},
{
name = top;
position = "{564, 557}";
}
);
layerId = "C70E3B11-AF58-44B6-92D7-58C9185F522D";
name = "Bold Extended";
paths = (
{
closed = 1;
nodes = (
"888 218 LINE",
"888 314 LINE",
"244 314 LINE",
"244 218 LINE"
);
},
{
closed = 1;
nodes = (
"482 0 LINE",
"482 96 LINE",
"51 96 LINE",
"51 0 LINE"
);
},
{
closed = 1;
nodes = (
"329 51 LINE",
"329 462 LINE",
"205 462 LINE",
"205 51 LINE"
);
},
{
closed = 1;
nodes = (
"482 424 LINE",
"482 520 LINE",
"51 520 LINE",
"51 424 LINE"
);
},
{
closed = 1;
nodes = (
"1079 0 LINE",
"1079 96 LINE",
"650 96 LINE",
"650 0 LINE"
);
},
{
closed = 1;
nodes = (
"926 56 LINE",
"926 467 LINE",
"803 467 LINE",
"803 56 LINE"
);
},
{
closed = 1;
nodes = (
"1079 424 LINE",
"1079 520 LINE",
"650 520 LINE",
"650 424 LINE"
);
}
);
width = 1130;
}
);
leftKerningGroup = H;
rightKerningGroup = H;
unicode = 0048;
},
{
glyphname = Hbar;
layers = (
{
anchors = (
{
name = bottom;
position = "{556, 0}";
},
{
name = center;
position = "{556, 255}";
},
{
name = top;
position = "{556, 520}";
}
);
layerId = "C70E3B11-AF58-44B6-92D7-58C9185F522D";
name = "Bold Extended";
paths = (
{
closed = 1;
nodes = (
"1077 318 LINE",
"1077 392 LINE",
"47 392 LINE",
"47 318 LINE"
);
},
{
closed = 1;
nodes = (
"482 0 LINE",
"482 96 LINE",
"51 96 LINE",
"51 0 LINE"
);
},
{
closed = 1;
nodes = (
"328 51 LINE",
"328 462 LINE",
"205 462 LINE",
"205 51 LINE"
);
},
{
closed = 1;
nodes = (
"1080 0 LINE",
"1080 96 LINE",
"649 96 LINE",
"649 0 LINE"
);
},
{
closed = 1;
nodes = (
"888 204 LINE",
"888 291 LINE",
"244 291 LINE",
"244 204 LINE"
);
},
{
closed = 1;
nodes = (
"482 424 LINE",
"482 520 LINE",
"51 520 LINE",
"51 424 LINE"
);
},
{
closed = 1;
nodes = (
"926 56 LINE",
"926 467 LINE",
"803 467 LINE",
"803 56 LINE"
);
},
{
closed = 1;
nodes = (
"1080 424 LINE",
"1080 520 LINE",
"649 520 LINE",
"649 424 LINE"
);
}
);
width = 1130;
}
);
leftKerningGroup = H;
leftMetricsKey = "=H";
rightKerningGroup = H;
rightMetricsKey = "=H";
unicode = 0126;
},
{
glyphname = I;
layers = (
{
anchors = (
{
name = bottom;
position = "{272, 0}";
},
{
name = ogonek;
position = "{456, 11}";
},
{
name = top;
position = "{272, 557}";
}
);
layerId = "C70E3B11-AF58-44B6-92D7-58C9185F522D";
name = "Bold Extended";
paths = (
{
closed = 1;
nodes = (
"328 57 LINE",
"328 462 LINE",
"205 462 LINE",
"205 57 LINE"
);
},
{
closed = 1;
nodes = (
"482 0 LINE",
"482 96 LINE",
"51 96 LINE",
"51 0 LINE"
);
},
{
closed = 1;
nodes = (
"482 424 LINE",
"482 520 LINE",
"51 520 LINE",
"51 424 LINE"
);
}
);
width = 533;
}
);
leftKerningGroup = H;
leftMetricsKey = "=H";
rightKerningGroup = H;
rightMetricsKey = "=H";
unicode = 0049;
},
{
glyphname = J;
layers = (
{
anchors = (
{
name = bottom;
position = "{323, -12}";
},
{
name = top;
position = "{470, 520}";
}
);
layerId = "C70E3B11-AF58-44B6-92D7-58C9185F522D";
name = "Bold Extended";
paths = (
{
closed = 1;
nodes = (
"378 -10 OFFCURVE",
"485 65 OFFCURVE",
"485 186 CURVE SMOOTH",
"485 468 LINE",
"365 468 LINE",
"366 199 LINE SMOOTH",
"366 119 OFFCURVE",
"302 94 OFFCURVE",
"231 91 CURVE SMOOTH",
"163 90 OFFCURVE",
"108 136 OFFCURVE",
"78 184 CURVE",
"23 99 LINE",
"56 45 OFFCURVE",
"128 -10 OFFCURVE",
"237 -10 CURVE SMOOTH"
);
},
{
closed = 1;
nodes = (
"638 424 LINE",
"638 520 LINE",
"140 520 LINE",
"140 424 LINE"
);
}
);
width = 653;
}
);
leftKerningGroup = J;
rightKerningGroup = U;
rightMetricsKey = "=U";
unicode = 004A;
},
{
glyphname = K;
layers = (
{
anchors = (
{
name = bottom;
position = "{538, 0}";
},
{
name = top;
position = "{538, 520}";
}
);
layerId = "C70E3B11-AF58-44B6-92D7-58C9185F522D";
name = "Bold Extended";
paths = (
{
closed = 1;
nodes = (
"843 442 LINE",
"700 442 LINE",
"256 185 LINE",
"257 77 LINE"
);
},
{
closed = 1;
nodes = (
"474 0 LINE SMOOTH",
"474 96 LINE SMOOTH",
"51 96 LINE SMOOTH",
"51 0 LINE SMOOTH"
);
},
{
closed = 1;
nodes = (
"327 53 LINE SMOOTH",
"327 464 LINE SMOOTH",
"205 464 LINE SMOOTH",
"205 53 LINE SMOOTH"
);
},
{
closed = 1;
nodes = (
"964 0 LINE SMOOTH",
"964 96 LINE SMOOTH",
"572 96 LINE SMOOTH",
"572 0 LINE SMOOTH"
);
},
{
closed = 1;
nodes = (
"882 72 LINE",
"530 333 LINE",
"435 276 LINE",
"721 72 LINE"
);
},
{
closed = 1;
nodes = (
"474 424 LINE SMOOTH",
"474 520 LINE SMOOTH",
"51 520 LINE SMOOTH",
"51 424 LINE SMOOTH"
);
},
{
closed = 1;
nodes = (
"942 424 LINE SMOOTH",
"942 520 LINE SMOOTH",
"550 520 LINE SMOOTH",
"550 424 LINE SMOOTH"
);
}
);
width = 979;
}
);
leftKerningGroup = H;
leftMetricsKey = "=H";
rightKerningGroup = K;
unicode = 004B;
},
{
glyphname = L;
layers = (
{
anchors = (
{
name = bottom;
position = "{468, 0}";
},
{
name = center;
position = "{468, 245}";
},
{
name = top;
position = "{468, 557}";
},
{
name = topright;
position = "{848, 490}";
}
);
layerId = "C70E3B11-AF58-44B6-92D7-58C9185F522D";
name = "Bold Extended";
paths = (
{
closed = 1;
nodes = (
"801 0 LINE",
"801 265 LINE",
"684 265 LINE",
"684 96 LINE",
"51 96 LINE",
"51 0 LINE"
);
},
{
closed = 1;
nodes = (
"327 53 LINE",
"327 458 LINE",
"205 458 LINE",
"205 53 LINE"
);
},
{
closed = 1;
nodes = (
"480 424 LINE",
"480 520 LINE",
"51 520 LINE",
"51 424 LINE"
);
}
);
width = 855;
}
);
leftKerningGroup = H;
leftMetricsKey = "=H";
rightKerningGroup = L;
unicode = 004C;
},
{
glyphname = M;
layers = (
{
anchors = (
{
name = bottom;
position = "{633, 8}";
},
{
name = top;
position = "{632, 502}";
}
);
layerId = "C70E3B11-AF58-44B6-92D7-58C9185F522D";
name = "Bold Extended";
paths = (
{
closed = 1;
nodes = (
"644 -1 LINE",
"670 86 LINE",
"337 520 LINE",
"207 520 LINE",
"595 -1 LINE"
);
},
{
closed = 1;
nodes = (
"447 0 LINE",
"447 96 LINE",
"51 96 LINE",
"51 0 LINE"
);
},
{
closed = 1;
nodes = (
"322 54 LINE",
"322 235 LINE",
"322 320 OFFCURVE",
"295 465 OFFCURVE",
"282 520 CURVE",
"207 520 LINE",
"207 54 LINE"
);
},
{
closed = 1;
nodes = (
"319 424 LINE",
"319 520 LINE",
"51 520 LINE",
"51 424 LINE"
);
},
{
closed = 1;
nodes = (
"1209 0 LINE",
"1209 96 LINE",
"809 96 LINE",
"809 0 LINE"
);
},
{
closed = 1;
nodes = (
"662 -1 LINE",
"1051 520 LINE",
"924 520 LINE",
"596 86 LINE",
"617 -1 LINE"
);
},
{
closed = 1;
nodes = (
"1055 54 LINE",
"1055 520 LINE",
"983 520 LINE",
"966 465 OFFCURVE",
"933 320 OFFCURVE",
"933 235 CURVE",
"933 54 LINE"
);
},
{
closed = 1;
nodes = (
"1209 424 LINE",
"1209 520 LINE",
"937 520 LINE",
"937 424 LINE"
);
}
);
width = 1260;
}
);
leftKerningGroup = M;
leftMetricsKey = "=H";
rightKerningGroup = M;
rightMetricsKey = "=H";
unicode = 004D;
},
{
glyphname = N;
layers = (
{
anchors = (
{
name = bottom;
position = "{541, 24}";
},
{
name = top;
position = "{541, 490}";
}
);
layerId = "C70E3B11-AF58-44B6-92D7-58C9185F522D";
name = "Bold Extended";
paths = (
{
closed = 1;
nodes = (
"947 -4 LINE",
"947 507 LINE",
"835 507 LINE",
"835 187 LINE",
"323 520 LINE",
"163 520 LINE",
"881 -5 LINE"
);
},
{
closed = 1;
nodes = (
"491 0 LINE",
"491 96 LINE",
"51 96 LINE",
"51 0 LINE"
);
},
{
closed = 1;
nodes = (
"323 12 LINE",
"323 520 LINE",
"205 520 LINE",
"205 12 LINE"
);
},
{
closed = 1;
nodes = (
"319 424 LINE",
"323 520 LINE",
"51 520 LINE",
"51 424 LINE"
);
},
{
closed = 1;
nodes = (
"1101 424 LINE",
"1101 520 LINE",
"681 520 LINE",
"681 424 LINE"
);
}
);
width = 1110;
}
);
leftKerningGroup = H;
leftMetricsKey = "=H";
rightKerningGroup = H;
unicode = 004E;
},
{
glyphname = O;
layers = (
{
anchors = (
{
name = bottom;
position = "{457, 11}";
},
{
name = center;
position = "{459, 245}";
},
{
name = ogonek;
position = "{510, -2}";
},
{
name = top;
position = "{458, 547}";
},
{
name = topright;
position = "{892, 490}";
}
);
layerId = "C70E3B11-AF58-44B6-92D7-58C9185F522D";
name = "Bold Extended";
paths = (
{
closed = 1;
nodes = (
"700 -10 OFFCURVE",
"872 109 OFFCURVE",
"872 260 CURVE",
"872 410 OFFCURVE",
"700 530 OFFCURVE",
"459 530 CURVE",
"218 530 OFFCURVE",
"45 410 OFFCURVE",
"45 260 CURVE",
"45 109 OFFCURVE",
"218 -10 OFFCURVE",
"459 -10 CURVE"
);
},
{
closed = 1;
nodes = (
"283 88 OFFCURVE",
"175 166 OFFCURVE",
"175 260 CURVE",
"175 352 OFFCURVE",
"283 432 OFFCURVE",
"458 432 CURVE",
"634 432 OFFCURVE",
"742 354 OFFCURVE",
"742 260 CURVE",
"742 168 OFFCURVE",
"634 88 OFFCURVE",
"458 88 CURVE"
);
}
);
width = 917;
}
);
leftKerningGroup = O;
rightKerningGroup = O;
unicode = 004F;
},
{
glyphname = Oslash;
layers = (
{
components = (
{
name = O;
}
);
layerId = "C70E3B11-AF58-44B6-92D7-58C9185F522D";
name = "Bold Extended";
paths = (
{
closed = 1;
nodes = (
"375 41 LINE",
"372 54 LINE",
"625 444 LINE",
"640 449 LINE",
"711 581 LINE",
"606 581 LINE",
"550 481 LINE",
"552 466 LINE",
"292 64 LINE",
"274 52 LINE",
"212 -59 LINE",
"317 -59 LINE"
);
}
);
width = 917;
}
);
leftKerningGroup = O;
rightKerningGroup = O;
unicode = 00D8;
},
{
color = 0;
glyphname = OE;
layers = (
{
anchors = (
{
name = bottom;
position = "{792, 0}";
},
{
name = center;
position = "{792, 263}";
},
{
name = ogonek;
position = "{1396, 0}";
},
{
name = top;
position = "{792, 520}";
}
);
layerId = "C70E3B11-AF58-44B6-92D7-58C9185F522D";
name = "Bold Extended";
paths = (
{
closed = 1;
nodes = (
"1396 0 LINE",
"1396 237 LINE",
"1288 237 LINE",
"1288 96 LINE",
"421 96 LINE SMOOTH",
"312 96 OFFCURVE",
"173 108 OFFCURVE",
"173 266 CURVE SMOOTH",
"173 425 OFFCURVE",
"312 424 OFFCURVE",
"421 424 CURVE SMOOTH",
"1288 424 LINE",
"1288 282 LINE",
"1396 282 LINE",
"1396 520 LINE",
"391 520 LINE SMOOTH",
"216 520 OFFCURVE",
"45 467 OFFCURVE",
"45 266 CURVE SMOOTH",
"45 65 OFFCURVE",
"216 0 OFFCURVE",
"391 0 CURVE SMOOTH"
);
},
{
closed = 1;
nodes = (
"791 53 LINE",
"791 458 LINE",
"669 458 LINE",
"669 53 LINE"
);
},
{
closed = 1;
nodes = (
"1076 206 LINE",
"1076 302 LINE",
"713 302 LINE",
"713 206 LINE"
);
},
{
closed = 1;
nodes = (
"1117 126 LINE",
"1117 382 LINE",
"1021 382 LINE",
"1021 126 LINE"
);
}
);
width = 1496;
}
);
leftKerningGroup = O;
leftMetricsKey = "=O";
rightKerningGroup = E;
rightMetricsKey = "=E";
unicode = 0152;
},
{
glyphname = P;
layers = (
{
anchors = (
{
name = bottom;
position = "{475, 0}";
},
{
name = top;
position = "{475, 557}";
}
);
layerId = "C70E3B11-AF58-44B6-92D7-58C9185F522D";
name = "Bold Extended";
paths = (
{
closed = 1;
nodes = (
"719 175 LINE SMOOTH",
"840 175 OFFCURVE",
"905 266 OFFCURVE",
"905 351 CURVE SMOOTH",
"905 439 OFFCURVE",
"823 520 OFFCURVE",
"705 520 CURVE SMOOTH",
"51 520 LINE",
"51 424 LINE",
"710 424 LINE SMOOTH",
"742 424 OFFCURVE",
"784 390 OFFCURVE",
"784 353 CURVE SMOOTH",
"784 297 OFFCURVE",
"752 268 OFFCURVE",
"724 270 CURVE SMOOTH",
"281 274 LINE",
"281 177 LINE"
);
},
{
closed = 1;
nodes = (
"492 0 LINE",
"492 96 LINE",
"51 96 LINE",
"51 0 LINE"
);
},
{
closed = 1;
nodes = (
"328 53 LINE",
"328 468 LINE",
"205 468 LINE",
"205 53 LINE"
);
}
);
width = 950;
}
);
leftKerningGroup = H;
leftMetricsKey = "=H";
rightKerningGroup = P;
unicode = 0050;
},
{
glyphname = Thorn;
layers = (
{
layerId = "C70E3B11-AF58-44B6-92D7-58C9185F522D";
name = "Bold Extended";
paths = (
{
closed = 1;
nodes = (
"691 134 LINE SMOOTH",
"785 135 OFFCURVE",
"853 180 OFFCURVE",
"853 261 CURVE SMOOTH",
"853 344 OFFCURVE",
"785 385 OFFCURVE",
"691 385 CURVE SMOOTH",
"291 385 LINE",
"291 298 LINE",
"679 298 LINE SMOOTH",
"698 298 OFFCURVE",
"731 295 OFFCURVE",
"731 260 CURVE SMOOTH",
"731 220 OFFCURVE",
"694 219 OFFCURVE",
"679 219 CURVE SMOOTH",
"290 219 LINE",
"290 133 LINE"
);
},
{
closed = 1;
nodes = (
"475 0 LINE",
"475 96 LINE",
"51 96 LINE",
"51 0 LINE"
);
},
{
closed = 1;
nodes = (
"329 53 LINE",
"329 467 LINE",
"205 467 LINE",
"205 53 LINE"
);
},
{
closed = 1;
nodes = (
"475 424 LINE",
"475 520 LINE",
"51 520 LINE",
"51 424 LINE"
);
}
);
width = 888;
}
);
leftKerningGroup = H;
leftMetricsKey = "=I";
rightKerningGroup = Thorn;
unicode = 00DE;
},
{
glyphname = Q;
layers = (
{
anchors = (
{
name = bottom;
position = "{457, -10}";
},
{
name = top;
position = "{457, 530}";
}
);
layerId = "C70E3B11-AF58-44B6-92D7-58C9185F522D";
name = "Bold Extended";
paths = (
{
closed = 1;
nodes = (
"700 -10 OFFCURVE",
"872 109 OFFCURVE",
"872 260 CURVE",
"872 410 OFFCURVE",
"700 530 OFFCURVE",
"459 530 CURVE",
"218 530 OFFCURVE",
"45 410 OFFCURVE",
"45 260 CURVE",
"45 109 OFFCURVE",
"218 -10 OFFCURVE",
"459 -10 CURVE"
);
},
{
closed = 1;
nodes = (
"836 -152 OFFCURVE",
"905 -99 OFFCURVE",
"922 -20 CURVE",
"835 8 LINE",
"824 -45 OFFCURVE",
"783 -56 OFFCURVE",
"740 -56 CURVE SMOOTH",
"694 -56 OFFCURVE",
"651 -43 OFFCURVE",
"594 14 CURVE",
"542 107 LINE",
"461 191 OFFCURVE",
"385 255 OFFCURVE",
"231 255 CURVE SMOOTH",
"179 255 LINE",
"179 168 LINE",
"231 168 LINE SMOOTH",
"346 168 OFFCURVE",
"385 103 OFFCURVE",
"441 65 CURVE",
"486 -16 LINE",
"567 -109 OFFCURVE",
"636 -152 OFFCURVE",
"740 -152 CURVE SMOOTH"
);
},
{
closed = 1;
nodes = (
"280 80 OFFCURVE",
"171 161 OFFCURVE",
"171 260 CURVE",
"171 358 OFFCURVE",
"280 440 OFFCURVE",
"458 440 CURVE",
"636 440 OFFCURVE",
"745 359 OFFCURVE",
"745 260 CURVE",
"745 162 OFFCURVE",
"636 80 OFFCURVE",
"458 80 CURVE"
);
}
);
width = 932;
}
);
leftKerningGroup = O;
leftMetricsKey = "=O";
rightKerningGroup = O;
unicode = 0051;
},
{
glyphname = Q.alt;
layers = (
{
anchors = (
{
name = bottom;
position = "{457, -10}";
},
{
name = top;
position = "{457, 530}";
}
);
layerId = "C70E3B11-AF58-44B6-92D7-58C9185F522D";
name = "Bold Extended";
paths = (
{
closed = 1;
nodes = (
"1345 -320 OFFCURVE",
"1457 -260 OFFCURVE",
"1527 -212 CURVE",
"1481 -127 LINE",
"1415 -172 OFFCURVE",
"1330 -220 OFFCURVE",
"1195 -220 CURVE SMOOTH",
"1049 -220 OFFCURVE",
"948 -145 OFFCURVE",
"790 18 CURVE SMOOTH",
"640 181 OFFCURVE",
"530 296 OFFCURVE",
"231 296 CURVE SMOOTH",
"117 296 LINE",
"117 209 LINE",
"234 209 LINE SMOOTH",
"454 209 OFFCURVE",
"556 117 OFFCURVE",
"686 -25 CURVE SMOOTH",
"879 -241 OFFCURVE",
"1002 -320 OFFCURVE",
"1195 -320 CURVE SMOOTH"
);
},
{
closed = 1;
nodes = (
"700 -10 OFFCURVE",
"872 109 OFFCURVE",
"872 258 CURVE",
"872 406 OFFCURVE",
"700 526 OFFCURVE",
"459 526 CURVE",
"218 526 OFFCURVE",
"45 406 OFFCURVE",
"45 258 CURVE",
"45 109 OFFCURVE",
"218 -10 OFFCURVE",
"459 -10 CURVE"
);
},
{
closed = 1;
nodes = (
"280 80 OFFCURVE",
"171 161 OFFCURVE",
"171 258 CURVE",
"171 354 OFFCURVE",
"280 436 OFFCURVE",
"458 436 CURVE",
"636 436 OFFCURVE",
"745 355 OFFCURVE",
"745 258 CURVE",
"745 162 OFFCURVE",
"636 80 OFFCURVE",
"458 80 CURVE"
);
}
);
width = 913;
}
);
leftKerningGroup = Q.alt;
leftMetricsKey = "=O";
rightKerningGroup = Q.alt;
},
{
glyphname = R;
layers = (
{
anchors = (
{
name = bottom;
position = "{589, 0}";
},
{
name = top;
position = "{549, 520}";
}
);
layerId = "C70E3B11-AF58-44B6-92D7-58C9185F522D";
name = "Bold Extended";
paths = (
{
closed = 1;
nodes = (
"722 217 LINE SMOOTH",
"853 217 OFFCURVE",
"929 272 OFFCURVE",
"929 369 CURVE SMOOTH",
"929 466 OFFCURVE",
"843 520 OFFCURVE",
"712 520 CURVE SMOOTH",
"51 520 LINE",
"51 424 LINE",
"715 424 LINE SMOOTH",
"762 424 OFFCURVE",
"807 415 OFFCURVE",
"807 369 CURVE SMOOTH",
"807 319 OFFCURVE",
"759 307 OFFCURVE",
"715 307 CURVE SMOOTH",
"285 307 LINE",
"285 217 LINE"
);
},
{
closed = 1;
nodes = (
"477 0 LINE",
"477 96 LINE",
"51 97 LINE",
"51 0 LINE"
);
},
{
closed = 1;
nodes = (
"328 53 LINE",
"328 464 LINE",
"205 464 LINE",
"205 53 LINE"
);
},
{
closed = 1;
nodes = (
"953 -11 OFFCURVE",
"1039 73 OFFCURVE",
"1039 194 CURVE SMOOTH",
"1039 221 LINE",
"934 221 LINE",
"934 192 LINE SMOOTH",
"934 127 OFFCURVE",
"885 91 OFFCURVE",
"836 91 CURVE SMOOTH",
"787 91 OFFCURVE",
"756 114 OFFCURVE",
"725 121 CURVE SMOOTH",
"661 187 OFFCURVE",
"657 235 OFFCURVE",
"590 235 CURVE SMOOTH",
"322 235 LINE",
"322 217 LINE",
"491 217 LINE SMOOTH",
"542 217 OFFCURVE",
"555 160 OFFCURVE",
"607 107 CURVE SMOOTH",
"647 82 OFFCURVE",
"696 -11 OFFCURVE",
"836 -11 CURVE SMOOTH"
);
}
);
width = 1079;
}
);
leftKerningGroup = H;
leftMetricsKey = "=H";
rightKerningGroup = R;
unicode = 0052;
},
{
glyphname = R.alt;
layers = (
{
anchors = (
{
name = bottom;
position = "{479, 0}";
},
{
name = top;
position = "{479, 520}";
}
);
layerId = "C70E3B11-AF58-44B6-92D7-58C9185F522D";
name = "Bold Extended";
paths = (
{
closed = 1;
nodes = (
"1479 -285 OFFCURVE",
"1602 -205 OFFCURVE",
"1683 -147 CURVE",
"1633 -61 LINE",
"1561 -113 OFFCURVE",
"1464 -181 OFFCURVE",
"1284 -181 CURVE SMOOTH",
"1100 -181 OFFCURVE",
"941 -77 OFFCURVE",
"829 15 CURVE SMOOTH",
"700 139 OFFCURVE",
"633 223 OFFCURVE",
"465 223 CURVE SMOOTH",
"250 223 LINE",
"251 202 LINE",
"375 202 LINE SMOOTH",
"530 202 OFFCURVE",
"556 119 OFFCURVE",
"709 -26 CURVE SMOOTH",
"823 -107 OFFCURVE",
"1010 -285 OFFCURVE",
"1266 -285 CURVE SMOOTH"
);
},
{
closed = 1;
nodes = (
"482 0 LINE",
"482 96 LINE",
"51 98 LINE",
"51 1 LINE"
);
},
{
closed = 1;
nodes = (
"328 58 LINE",
"328 462 LINE",
"205 462 LINE",
"205 58 LINE"
);
},
{
closed = 1;
nodes = (
"636 203 LINE SMOOTH",
"778 203 OFFCURVE",
"843 279 OFFCURVE",
"843 366 CURVE SMOOTH",
"843 462 OFFCURVE",
"777 520 OFFCURVE",
"636 520 CURVE SMOOTH",
"51 520 LINE",
"51 424 LINE",
"629 424 LINE SMOOTH",
"676 424 OFFCURVE",
"721 420 OFFCURVE",
"721 366 CURVE SMOOTH",
"721 301 OFFCURVE",
"673 294 OFFCURVE",
"629 294 CURVE SMOOTH",
"285 294 LINE",
"285 203 LINE"
);
}
);
width = 916;
}
);
leftKerningGroup = R.alt;
leftMetricsKey = "=H";
rightKerningGroup = R.alt;
},
{
glyphname = S;
layers = (
{
anchors = (
{
name = bottom;
position = "{482, -10}";
},
{
name = top;
position = "{462, 530}";
}
);
layerId = "C70E3B11-AF58-44B6-92D7-58C9185F522D";
name = "Bold Extended";
paths = (
{
closed = 1;
nodes = (
"702 -10 OFFCURVE",
"814 35 OFFCURVE",
"814 143 CURVE SMOOTH",
"814 256 OFFCURVE",
"694 300 OFFCURVE",
"483 311 CURVE SMOOTH",
"282 323 OFFCURVE",
"244 336 OFFCURVE",
"244 367 CURVE SMOOTH",
"244 417 OFFCURVE",
"318 434 OFFCURVE",
"415 434 CURVE SMOOTH",
"558 434 OFFCURVE",
"653 380 OFFCURVE",
"705 315 CURVE",
"777 320 LINE",
"777 520 LINE",
"668 520 LINE",
"668 394 LINE",
"724 385 LINE",
"666 462 OFFCURVE",
"575 530 OFFCURVE",
"386 530 CURVE SMOOTH",
"238 530 OFFCURVE",
"116 473 OFFCURVE",
"116 363 CURVE SMOOTH",
"116 276 OFFCURVE",
"174 221 OFFCURVE",
"390 212 CURVE SMOOTH",
"617 196 OFFCURVE",
"686 175 OFFCURVE",
"686 128 CURVE SMOOTH",
"686 89 OFFCURVE",
"627 84 OFFCURVE",
"556 84 CURVE SMOOTH",
"439 84 OFFCURVE",
"272 138 OFFCURVE",
"190 212 CURVE",
"114 207 LINE",
"114 1 LINE",
"224 1 LINE",
"224 123 LINE",
"159 129 LINE",
"250 70 OFFCURVE",
"388 -10 OFFCURVE",
"563 -10 CURVE SMOOTH"
);
}
);
width = 884;
}
);
leftKerningGroup = S;
rightKerningGroup = S;
unicode = 0053;
},
{
glyphname = Germandbls;
layers = (
{
layerId = "C70E3B11-AF58-44B6-92D7-58C9185F522D";
name = "Bold Extended";
paths = (
{
closed = 1;
nodes = (
"512 0 LINE",
"512 137 LINE",
"459 131 LINE",
"552 44 OFFCURVE",
"636 -20 OFFCURVE",
"774 -20 CURVE SMOOTH",
"883 -20 OFFCURVE",
"981 35 OFFCURVE",
"981 135 CURVE SMOOTH",
"981 236 OFFCURVE",
"879 298 OFFCURVE",
"719 336 CURVE",
"963 478 LINE",
"888 550 LINE",
"540 287 LINE",
"821 228 OFFCURVE",
"853 172 OFFCURVE",
"853 135 CURVE SMOOTH",
"853 96 OFFCURVE",
"810 74 OFFCURVE",
"751 74 CURVE SMOOTH",
"671 74 OFFCURVE",
"564 117 OFFCURVE",
"478 213 CURVE",
"402 207 LINE",
"402 0 LINE"
);
},
{
closed = 1;
nodes = (
"260 536 OFFCURVE",
"151 444 OFFCURVE",
"151 265 CURVE SMOOTH",
"151 96 LINE",
"6 96 LINE",
"6 0 LINE",
"272 0 LINE",
"272 267 LINE SMOOTH",
"272 374 OFFCURVE",
"335 434 OFFCURVE",
"457 434 CURVE SMOOTH",
"586 434 OFFCURVE",
"666 358 OFFCURVE",
"724 312 CURVE",
"792 382 LINE",
"703 456 OFFCURVE",
"591 536 OFFCURVE",
"455 536 CURVE SMOOTH"
);
}
);
width = 1025;
}
);
leftKerningGroup = Germandbls;
rightKerningGroup = Germandbls;
unicode = 1E9E;
},
{
glyphname = T;
layers = (
{
anchors = (
{
name = bottom;
position = "{452, 0}";
},
{
name = center;
position = "{452, 245}";
},
{
name = top;
position = "{452, 557}";
}
);
layerId = "C70E3B11-AF58-44B6-92D7-58C9185F522D";
name = "Bold Extended";
paths = (
{
closed = 1;
nodes = (
"156 273 LINE",
"156 424 LINE",
"740 424 LINE",
"740 273 LINE",
"848 273 LINE",
"848 520 LINE",
"48 520 LINE",
"48 273 LINE"
);
},
{
closed = 1;
nodes = (
"666 0 LINE",
"666 96 LINE",
"229 96 LINE",
"229 0 LINE"
);
},
{
closed = 1;
nodes = (
"509 62 LINE",
"509 467 LINE",
"387 467 LINE",
"387 62 LINE"
);
}
);
width = 896;
}
);
leftKerningGroup = T;
rightKerningGroup = T;
unicode = 0054;
},
{
glyphname = U;
layers = (
{
anchors = (
{
name = bottom;
position = "{517, -10}";
},
{
name = ogonek;
position = "{526, -9}";
},
{
name = top;
position = "{511, 520}";
},
{
name = topright;
position = "{1006, 490}";
}
);
layerId = "C70E3B11-AF58-44B6-92D7-58C9185F522D";
name = "Bold Extended";
paths = (
{
closed = 1;
nodes = (
"709 -10 OFFCURVE",
"861 79 OFFCURVE",
"861 266 CURVE SMOOTH",
"861 468 LINE",
"743 468 LINE",
"742 268 LINE SMOOTH",
"740 140 OFFCURVE",
"643 91 OFFCURVE",
"515 91 CURVE SMOOTH",
"386 91 OFFCURVE",
"293 139 OFFCURVE",
"291 266 CURVE SMOOTH",
"289 468 LINE",
"169 468 LINE",
"169 266 LINE SMOOTH",
"169 79 OFFCURVE",
"315 -10 OFFCURVE",
"515 -10 CURVE SMOOTH"
);
},
{
closed = 1;
nodes = (
"438 424 LINE",
"438 520 LINE",
"15 520 LINE",
"15 424 LINE"
);
},
{
closed = 1;
nodes = (
"1014 424 LINE",
"1014 520 LINE",
"594 520 LINE",
"594 424 LINE"
);
}
);
width = 1029;
}
);
leftKerningGroup = U;
rightKerningGroup = U;
unicode = 0055;
},
{
color = 0;
glyphname = V;
layers = (
{
anchors = (
{
name = bottom;
position = "{490, -10}";
},
{
name = top;
position = "{490, 490}";
}
);
layerId = "C70E3B11-AF58-44B6-92D7-58C9185F522D";
name = "Bold Extended";
paths = (
{
closed = 1;
nodes = (
"0 520 LINE",
"0 424 LINE",
"386 424 LINE",
"386 520 LINE"
);
},
{
closed = 1;
nodes = (
"605 520 LINE",
"605 424 LINE",
"979 424 LINE",
"979 520 LINE"
);
},
{
closed = 1;
nodes = (
"520 -10 LINE",
"880 507 LINE",
"758 507 LINE",
"493 132 LINE",
"229 507 LINE",
"99 507 LINE",
"458 -10 LINE"
);
}
);
width = 979;
}
);
leftKerningGroup = V;
rightKerningGroup = V;
unicode = 0056;
},
{
color = 0;
glyphname = W;
layers = (
{
anchors = (
{
name = bottom;
position = "{609, 0}";
},
{
name = top;
position = "{609, 520}";
}
);
layerId = "C70E3B11-AF58-44B6-92D7-58C9185F522D";
name = "Bold Extended";
paths = (
{
closed = 1;
nodes = (
"465 -10 LINE",
"773 507 LINE",
"658 507 LINE",
"442 137 LINE",
"196 507 LINE",
"64 507 LINE",
"401 -10 LINE"
);
},
{
closed = 1;
nodes = (
"329 425 LINE",
"329 520 LINE",
"-18 520 LINE",
"-18 425 LINE"
);
},
{
closed = 1;
nodes = (
"825 -10 LINE",
"1187 507 LINE",
"1075 507 LINE",
"805 137 LINE",
"617 432 LINE",
"562 294 LINE",
"762 -10 LINE"
);
},
{
closed = 1;
nodes = (
"807 425 LINE",
"807 520 LINE",
"446 520 LINE",
"446 425 LINE"
);
},
{
closed = 1;
nodes = (
"1270 425 LINE",
"1270 520 LINE",
"910 520 LINE",
"910 425 LINE"
);
}
);
width = 1251;
}
);
leftKerningGroup = W;
rightKerningGroup = W;
unicode = 0057;
},
{
color = 0;
glyphname = X;
layers = (
{
anchors = (
{
name = bottom;
position = "{472, 0}";
},
{
name = top;
position = "{472, 490}";
}
);
layerId = "C70E3B11-AF58-44B6-92D7-58C9185F522D";
name = "Bold Extended";
paths = (
{
closed = 1;
nodes = (
"909 0 LINE",
"909 96 LINE",
"540 96 LINE",
"540 0 LINE"
);
},
{
closed = 1;
nodes = (
"411 0 LINE",
"411 96 LINE",
"42 96 LINE",
"42 0 LINE"
);
},
{
closed = 1;
nodes = (
"830 79 LINE",
"530 290 LINE",
"518 290 LINE",
"291 442 LINE",
"124 442 LINE",
"428 231 LINE",
"441 231 LINE",
"663 79 LINE"
);
},
{
closed = 1;
nodes = (
"269 79 LINE",
"497 240 LINE",
"514 233 LINE",
"812 442 LINE",
"672 442 LINE",
"454 296 LINE",
"436 304 LINE",
"128 79 LINE"
);
},
{
closed = 1;
nodes = (
"412 424 LINE",
"412 520 LINE SMOOTH",
"42 520 LINE",
"42 424 LINE"
);
},
{
closed = 1;
nodes = (
"909 424 LINE",
"909 520 LINE",
"539 520 LINE SMOOTH",
"539 424 LINE"
);
}
);
width = 951;
}
);
leftKerningGroup = X;
rightKerningGroup = X;
unicode = 0058;
},
{
color = 0;
glyphname = Y;
layers = (
{
anchors = (
{
name = bottom;
position = "{463, 0}";
},
{
name = top;
position = "{463, 520}";
}
);
layerId = "C70E3B11-AF58-44B6-92D7-58C9185F522D";
name = "Bold Extended";
paths = (
{
closed = 1;
nodes = (
"491 174 LINE",
"803 447 LINE",
"663 447 LINE",
"468 289 LINE",
"268 444 LINE",
"116 444 LINE",
"429 174 LINE"
);
},
{
closed = 1;
nodes = (
"673 0 LINE",
"673 96 LINE",
"249 96 LINE",
"249 0 LINE"
);
},
{
closed = 1;
nodes = (
"523 50 LINE",
"523 250 LINE",
"399 250 LINE",
"399 50 LINE"
);
},
{
closed = 1;
nodes = (
"358 424 LINE",
"358 520 LINE",
"9 520 LINE",
"9 424 LINE"
);
},
{
closed = 1;
nodes = (
"912 424 LINE",
"912 520 LINE",
"563 520 LINE",
"563 424 LINE"
);
}
);
width = 921;
}
);
leftKerningGroup = Y;
rightKerningGroup = Y;
unicode = 0059;
},
{
glyphname = Z;
layers = (
{
anchors = (
{
name = bottom;
position = "{468, 0}";
},
{
name = top;
position = "{468, 520}";
}
);
layerId = "C70E3B11-AF58-44B6-92D7-58C9185F522D";
name = "Bold Extended";
paths = (
{
closed = 1;
nodes = (
"811 0 LINE",
"811 247 LINE",
"703 247 LINE",
"703 96 LINE",
"203 96 LINE",
"155 31 LINE",
"161 21 LINE",
"228 32 LINE",
"807 434 LINE",
"807 520 LINE",
"107 520 LINE",
"107 273 LINE",
"215 273 LINE",
"215 424 LINE",
"714 424 LINE",
"761 493 LINE",
"756 499 LINE",
"689 488 LINE",
"110 86 LINE",
"110 0 LINE"
);
}
);
width = 920;
}
);
leftKerningGroup = Z;
rightKerningGroup = Z;
unicode = 005A;
},
{
glyphname = a;
lastChange = "2015-11-12 01:32:39 +0000";
layers = (
{
anchors = (
{
name = bottom;
position = "{265, -10}";
},
{
name = ogonek;
position = "{795, 14}";
},
{
name = top;
position = "{385, 355}";
}
);
background = {
paths = (
{
closed = 1;
nodes = (
"693 0 LINE",
"693 90 LINE SMOOTH",
"693 239 OFFCURVE",
"643 366 OFFCURVE",
"465 366 CURVE SMOOTH",
"331 366 OFFCURVE",
"222 269 OFFCURVE",
"142 184 CURVE",
"142 94 LINE",
"204 162 OFFCURVE",
"315 258 OFFCURVE",
"437 258 CURVE SMOOTH",
"552 258 OFFCURVE",
"578 191 OFFCURVE",
"578 95 CURVE SMOOTH",
"578 0 LINE"
);
}
);
};
layerId = "C70E3B11-AF58-44B6-92D7-58C9185F522D";
name = "Bold Extended";
paths = (
{
closed = 1;
nodes = (
"772 96 LINE",
"760 89 OFFCURVE",
"750 86 OFFCURVE",
"735 86 CURVE SMOOTH",
"715 86 OFFCURVE",
"696 98 OFFCURVE",
"696 129 CURVE SMOOTH",
"696 174 LINE SMOOTH",
"696 294 OFFCURVE",
"597 369 OFFCURVE",
"437 369 CURVE SMOOTH",
"316 369 OFFCURVE",
"201 351 OFFCURVE",
"91 326 CURVE",
"111 239 LINE",
"221 262 OFFCURVE",
"309 274 OFFCURVE",
"409 274 CURVE SMOOTH",
"510 274 OFFCURVE",
"586 239 OFFCURVE",
"586 169 CURVE SMOOTH",
"586 118 LINE SMOOTH",
"586 34 OFFCURVE",
"642 -9 OFFCURVE",
"705 -9 CURVE SMOOTH",
"752 -9 OFFCURVE",
"778 3 OFFCURVE",
"799 17 CURVE"
);
},
{
closed = 1;
nodes = (
"387 -9 OFFCURVE",
"526 29 OFFCURVE",
"618 73 CURVE",
"620 126 LINE",
"526 98 OFFCURVE",
"375 80 OFFCURVE",
"299 80 CURVE SMOOTH",
"229 80 OFFCURVE",
"199 91 OFFCURVE",
"199 116 CURVE SMOOTH",
"199 143 OFFCURVE",
"240 155 OFFCURVE",
"320 155 CURVE SMOOTH",
"416 155 OFFCURVE",
"516 145 OFFCURVE",
"620 130 CURVE",
"620 185 LINE",
"535 207 OFFCURVE",
"414 229 OFFCURVE",
"299 229 CURVE SMOOTH",
"163 229 OFFCURVE",
"71 196 OFFCURVE",
"71 108 CURVE SMOOTH",
"71 25 OFFCURVE",
"156 -8 OFFCURVE",
"268 -8 CURVE SMOOTH"
);
}
);
width = 828;
}
);
leftKerningGroup = a;
rightKerningGroup = n;
unicode = 0061;
},
{
glyphname = a.alt;
layers = (
{
anchors = (
{
name = bottom;
position = "{436, -11}";
},
{
name = ogonek;
position = "{777, 9}";
},
{
name = top;
position = "{455, 355}";
}
);
layerId = "C70E3B11-AF58-44B6-92D7-58C9185F522D";
name = "Bold Extended";
paths = (
{
closed = 1;
nodes = (
"792 -6 OFFCURVE",
"833 55 OFFCURVE",
"833 125 CURVE SMOOTH",
"833 173 LINE",
"774 173 LINE",
"774 124 LINE SMOOTH",
"774 93 OFFCURVE",
"764 68 OFFCURVE",
"736 68 CURVE SMOOTH",
"704 68 OFFCURVE",
"697 96 OFFCURVE",
"697 131 CURVE SMOOTH",
"697 182 LINE SMOOTH",
"697 269 OFFCURVE",
"626 366 OFFCURVE",
"420 366 CURVE SMOOTH",
"313 366 OFFCURVE",
"217 347 OFFCURVE",
"87 303 CURVE",
"113 216 LINE",
"223 249 OFFCURVE",
"316 271 OFFCURVE",
"403 271 CURVE SMOOTH",
"536 271 OFFCURVE",
"587 219 OFFCURVE",
"587 187 CURVE SMOOTH",
"587 133 LINE SMOOTH",
"587 50 OFFCURVE",
"624 -6 OFFCURVE",
"710 -6 CURVE SMOOTH"
);
},
{
closed = 1;
nodes = (
"382 -11 OFFCURVE",
"501 11 OFFCURVE",
"598 69 CURVE",
"600 142 LINE",
"496 97 OFFCURVE",
"388 83 OFFCURVE",
"304 83 CURVE SMOOTH",
"242 83 OFFCURVE",
"201 83 OFFCURVE",
"201 102 CURVE SMOOTH",
"201 129 OFFCURVE",
"257 129 OFFCURVE",
"342 130 CURVE SMOOTH",
"427 132 OFFCURVE",
"525 123 OFFCURVE",
"600 118 CURVE",
"600 188 LINE",
"522 198 OFFCURVE",
"410 212 OFFCURVE",
"296 212 CURVE SMOOTH",
"189 212 OFFCURVE",
"73 189 OFFCURVE",
"73 97 CURVE SMOOTH",
"73 12 OFFCURVE",
"151 -11 OFFCURVE",
"269 -11 CURVE SMOOTH"
);
}
);
width = 835;
}
);
leftKerningGroup = a.alt;
rightKerningGroup = a.alt;
},
{
glyphname = a.alt2;
layers = (
{
anchors = (
{
name = bottom;
position = "{403, -22}";
},
{
name = ogonek;
position = "{832, 12}";
},
{
name = top;
position = "{400, 377}";
}
);
layerId = "C70E3B11-AF58-44B6-92D7-58C9185F522D";
name = "Bold Extended";
paths = (
{
closed = 1;
nodes = (
"455 -12 OFFCURVE",
"575 80 OFFCURVE",
"692 168 CURVE",
"692 247 LINE",
"567 159 OFFCURVE",
"433 85 OFFCURVE",
"334 85 CURVE SMOOTH",
"220 85 OFFCURVE",
"170 126 OFFCURVE",
"170 167 CURVE SMOOTH",
"170 231 OFFCURVE",
"264 271 OFFCURVE",
"396 270 CURVE SMOOTH",
"501 271 OFFCURVE",
"621 215 OFFCURVE",
"686 175 CURVE",
"686 251 LINE",
"624 292 OFFCURVE",
"519 366 OFFCURVE",
"366 366 CURVE SMOOTH",
"186 366 OFFCURVE",
"50 284 OFFCURVE",
"50 168 CURVE SMOOTH",
"50 63 OFFCURVE",
"154 -12 OFFCURVE",
"300 -12 CURVE SMOOTH"
);
},
{
closed = 1;
nodes = (
"806 -5 OFFCURVE",
"841 11 OFFCURVE",
"874 29 CURVE",
"847 107 LINE",
"826 95 OFFCURVE",
"816 89 OFFCURVE",
"795 89 CURVE SMOOTH",
"771 89 OFFCURVE",
"742 103 OFFCURVE",
"742 139 CURVE SMOOTH",
"742 369 LINE",
"625 347 LINE",
"625 127 LINE SMOOTH",
"625 45 OFFCURVE",
"688 -5 OFFCURVE",
"758 -5 CURVE SMOOTH"
);
}
);
width = 851;
}
);
leftKerningGroup = a.alt2;
leftMetricsKey = "=d";
rightKerningGroup = a.alt2;
rightMetricsKey = d.alt;
},
{
glyphname = ae;
layers = (
{
anchors = (
{
name = bottom;
position = "{582, -10}";
},
{
name = ogonek;
position = "{1163, 62}";
},
{
name = top;
position = "{577, 367}";
}
);
layerId = "C70E3B11-AF58-44B6-92D7-58C9185F522D";
name = "Bold Extended";
paths = (
{
closed = 1;
nodes = (
"962 -21 OFFCURVE",
"1080 13 OFFCURVE",
"1163 62 CURVE",
"1124 146 LINE",
"1044 101 OFFCURVE",
"945 73 OFFCURVE",
"857 75 CURVE SMOOTH",
"778 75 OFFCURVE",
"650 107 OFFCURVE",
"650 187 CURVE SMOOTH",
"650 255 OFFCURVE",
"782 291 OFFCURVE",
"872 291 CURVE SMOOTH",
"952 291 OFFCURVE",
"1025 274 OFFCURVE",
"1025 242 CURVE SMOOTH",
"1025 202 OFFCURVE",
"957 193 OFFCURVE",
"876 193 CURVE SMOOTH",
"795 193 OFFCURVE",
"694 203 OFFCURVE",
"577 223 CURVE",
"574 161 LINE",
"692 135 OFFCURVE",
"796 115 OFFCURVE",
"907 115 CURVE SMOOTH",
"1008 115 OFFCURVE",
"1149 136 OFFCURVE",
"1149 240 CURVE SMOOTH",
"1149 325 OFFCURVE",
"1038 377 OFFCURVE",
"897 377 CURVE SMOOTH",
"723 377 OFFCURVE",
"583 297 OFFCURVE",
"567 198 CURVE",
"632 202 LINE",
"633 269 OFFCURVE",
"578 376 OFFCURVE",
"401 376 CURVE SMOOTH",
"293 376 OFFCURVE",
"205 357 OFFCURVE",
"90 315 CURVE",
"115 229 LINE",
"211 261 OFFCURVE",
"297 281 OFFCURVE",
"384 281 CURVE SMOOTH",
"496 281 OFFCURVE",
"547 214 OFFCURVE",
"547 219 CURVE SMOOTH",
"547 165 LINE",
"547 50 OFFCURVE",
"707 -21 OFFCURVE",
"848 -21 CURVE SMOOTH"
);
},
{
closed = 1;
nodes = (
"340 -21 OFFCURVE",
"489 12 OFFCURVE",
"573 90 CURVE",
"557 148 LINE",
"466 94 OFFCURVE",
"343 73 OFFCURVE",
"279 73 CURVE SMOOTH",
"237 73 OFFCURVE",
"196 78 OFFCURVE",
"196 95 CURVE SMOOTH",
"196 125 OFFCURVE",
"247 134 OFFCURVE",
"312 135 CURVE SMOOTH",
"397 137 OFFCURVE",
"469 128 OFFCURVE",
"555 114 CURVE",
"555 187 LINE",
"471 204 OFFCURVE",
"380 217 OFFCURVE",
"282 217 CURVE SMOOTH",
"179 217 OFFCURVE",
"68 185 OFFCURVE",
"68 90 CURVE SMOOTH",
"68 7 OFFCURVE",
"146 -21 OFFCURVE",
"244 -21 CURVE SMOOTH"
);
}
);
width = 1194;
}
);
leftKerningGroup = a;
leftMetricsKey = "=a";
rightKerningGroup = e;
rightMetricsKey = "=e";
unicode = 00E6;
},
{
glyphname = b;
layers = (
{
anchors = (
{
name = bottom;
position = "{456, -22}";
},
{
name = top;
position = "{456, 355}";
}
);
layerId = "C70E3B11-AF58-44B6-92D7-58C9185F522D";
name = "Bold Extended";
paths = (
{
closed = 1;
nodes = (
"205 430 LINE",
"205 520 LINE",
"-55 520 LINE",
"-55 430 LINE"
);
},
{
closed = 1;
nodes = (
"427 367 OFFCURVE",
"275 269 OFFCURVE",
"161 102 CURVE",
"161 22 LINE",
"277 176 OFFCURVE",
"427 269 OFFCURVE",
"525 269 CURVE SMOOTH",
"633 269 OFFCURVE",
"683 229 OFFCURVE",
"683 188 CURVE SMOOTH",
"683 124 OFFCURVE",
"589 84 OFFCURVE",
"457 85 CURVE SMOOTH",
"352 84 OFFCURVE",
"232 139 OFFCURVE",
"167 179 CURVE",
"167 104 LINE",
"229 63 OFFCURVE",
"334 -11 OFFCURVE",
"487 -11 CURVE SMOOTH",
"667 -11 OFFCURVE",
"803 71 OFFCURVE",
"803 186 CURVE SMOOTH",
"803 292 OFFCURVE",
"706 367 OFFCURVE",
"566 367 CURVE SMOOTH"
);
},
{
closed = 1;
nodes = (
"224 -24 LINE",
"224 521 LINE",
"107 521 LINE",
"107 -24 LINE"
);
}
);
width = 853;
}
);
leftKerningGroup = h;
rightKerningGroup = o;
rightMetricsKey = "=o";
unicode = 0062;
},
{
glyphname = c;
layers = (
{
anchors = (
{
name = bottom;
position = "{354, -10}";
},
{
name = top;
position = "{353, 367}";
}
);
layerId = "C70E3B11-AF58-44B6-92D7-58C9185F522D";
name = "Bold Extended";
paths = (
{
closed = 1;
nodes = (
"474 -8 OFFCURVE",
"589 24 OFFCURVE",
"677 96 CURVE",
"624 175 LINE",
"547 122 OFFCURVE",
"460 91 OFFCURVE",
"358 91 CURVE SMOOTH",
"240 91 OFFCURVE",
"170 129 OFFCURVE",
"170 177 CURVE SMOOTH",
"170 251 OFFCURVE",
"283 272 OFFCURVE",
"372 271 CURVE SMOOTH",
"451 271 OFFCURVE",
"541 247 OFFCURVE",
"605 207 CURVE",
"655 210 LINE",
"655 357 LINE",
"576 357 LINE",
"576 274 LINE",
"617 272 LINE",
"556 319 OFFCURVE",
"467 368 OFFCURVE",
"344 367 CURVE SMOOTH",
"218 367 OFFCURVE",
"50 310 OFFCURVE",
"50 177 CURVE SMOOTH",
"50 73 OFFCURVE",
"173 -13 OFFCURVE",
"358 -10 CURVE SMOOTH"
);
}
);
width = 739;
}
);
leftKerningGroup = o;
leftMetricsKey = "=o";
rightKerningGroup = c;
unicode = 0063;
},
{
glyphname = d;
lastChange = "2015-11-12 01:35:00 +0000";
layers = (
{
anchors = (
{
name = bottom;
position = "{409, 2}";
},
{
name = center;
position = "{409, 179}";
},
{
name = top;
position = "{409, 355}";
},
{
name = topright;
position = "{947, 357}";
}
);
background = {
paths = (
{
closed = 1;
nodes = (
"455 -12 OFFCURVE",
"575 80 OFFCURVE",
"692 168 CURVE",
"692 247 LINE",
"567 159 OFFCURVE",
"433 85 OFFCURVE",
"334 85 CURVE SMOOTH",
"220 85 OFFCURVE",
"170 126 OFFCURVE",
"170 167 CURVE SMOOTH",
"170 231 OFFCURVE",
"264 271 OFFCURVE",
"396 270 CURVE SMOOTH",
"501 271 OFFCURVE",
"621 215 OFFCURVE",
"686 175 CURVE",
"686 251 LINE",
"624 292 OFFCURVE",
"519 366 OFFCURVE",
"366 366 CURVE SMOOTH",
"186 366 OFFCURVE",
"50 284 OFFCURVE",
"50 168 CURVE SMOOTH",
"50 63 OFFCURVE",
"154 -12 OFFCURVE",
"300 -12 CURVE SMOOTH"
);
},
{
closed = 1;
nodes = (
"808 -6 OFFCURVE",
"848 10 OFFCURVE",
"876 28 CURVE",
"849 107 LINE",
"829 94 OFFCURVE",
"815 87 OFFCURVE",
"793 87 CURVE SMOOTH",
"770 87 OFFCURVE",
"743 103 OFFCURVE",
"743 137 CURVE SMOOTH",
"743 520 LINE",
"626 520 LINE",
"626 126 LINE SMOOTH",
"626 41 OFFCURVE",
"688 -6 OFFCURVE",
"763 -6 CURVE SMOOTH"
);
},
{
closed = 1;
nodes = (
"722 430 LINE",
"722 520 LINE",
"465 520 LINE",
"465 430 LINE"
);
}
);
};
layerId = "C70E3B11-AF58-44B6-92D7-58C9185F522D";
name = "Bold Extended";
paths = (
{
closed = 1;
nodes = (
"440 -12 OFFCURVE",
"565 60 OFFCURVE",
"682 138 CURVE",
"682 217 LINE",
"554 134 OFFCURVE",
"413 85 OFFCURVE",
"319 85 CURVE SMOOTH",
"220 85 OFFCURVE",
"170 117 OFFCURVE",
"170 173 CURVE SMOOTH",
"170 230 OFFCURVE",
"226 271 OFFCURVE",
"348 271 CURVE SMOOTH",
"453 271 OFFCURVE",
"590 232 OFFCURVE",
"676 195 CURVE",
"676 271 LINE",
"614 302 OFFCURVE",
"488 366 OFFCURVE",
"330 366 CURVE SMOOTH",
"165 366 OFFCURVE",
"50 291 OFFCURVE",
"50 167 CURVE SMOOTH",
"50 49 OFFCURVE",
"149 -12 OFFCURVE",
"295 -12 CURVE SMOOTH"
);
},
{
closed = 1;
nodes = (
"733 520 LINE",
"616 520 LINE",
"616 118 LINE SMOOTH",
"616 34 OFFCURVE",
"672 -9 OFFCURVE",
"742 -9 CURVE SMOOTH",
"789 -9 OFFCURVE",
"815 3 OFFCURVE",
"836 17 CURVE",
"809 96 LINE",
"797 89 OFFCURVE",
"787 86 OFFCURVE",
"772 86 CURVE SMOOTH",
"752 86 OFFCURVE",
"733 98 OFFCURVE",
"733 139 CURVE SMOOTH"
);
},
{
closed = 1;
nodes = (
"712 430 LINE",
"712 520 LINE",
"476 520 LINE",
"476 430 LINE"
);
}
);
width = 856;
}
);
leftKerningGroup = o;
leftMetricsKey = "=o";
rightKerningGroup = l;
unicode = 0064;
},
{
glyphname = d.alt;
layers = (
{
anchors = (
{
name = bottom;
position = "{432, 2}";
},
{
name = center;
position = "{456, 179}";
},
{
name = top;
position = "{432, 355}";
},
{
name = topright;
position = "{866, 357}";
}
);
layerId = "C70E3B11-AF58-44B6-92D7-58C9185F522D";
name = "Bold Extended";
paths = (
{
closed = 1;
nodes = (
"455 -12 OFFCURVE",
"575 80 OFFCURVE",
"692 168 CURVE",
"692 247 LINE",
"567 159 OFFCURVE",
"433 85 OFFCURVE",
"334 85 CURVE SMOOTH",
"220 85 OFFCURVE",
"170 126 OFFCURVE",
"170 167 CURVE SMOOTH",
"170 231 OFFCURVE",
"264 271 OFFCURVE",
"396 270 CURVE SMOOTH",
"501 271 OFFCURVE",
"621 215 OFFCURVE",
"686 175 CURVE",
"686 251 LINE",
"624 292 OFFCURVE",
"519 366 OFFCURVE",
"366 366 CURVE SMOOTH",
"186 366 OFFCURVE",
"50 284 OFFCURVE",
"50 168 CURVE SMOOTH",
"50 63 OFFCURVE",
"154 -12 OFFCURVE",
"300 -12 CURVE SMOOTH"
);
},
{
closed = 1;
nodes = (
"844 -16 OFFCURVE",
"877 45 OFFCURVE",
"877 115 CURVE SMOOTH",
"877 163 LINE",
"819 163 LINE",
"819 114 LINE SMOOTH",
"819 82 OFFCURVE",
"808 58 OFFCURVE",
"781 58 CURVE SMOOTH",
"749 58 OFFCURVE",
"743 85 OFFCURVE",
"743 121 CURVE SMOOTH",
"743 520 LINE",
"626 520 LINE",
"626 123 LINE SMOOTH",
"626 40 OFFCURVE",
"670 -16 OFFCURVE",
"755 -16 CURVE SMOOTH"
);
},
{
closed = 1;
nodes = (
"722 430 LINE",
"722 520 LINE",
"465 520 LINE",
"465 430 LINE"
);
}
);
width = 879;
}
);
leftKerningGroup = d.alt;
leftMetricsKey = "=d";
rightKerningGroup = d.alt;
rightMetricsKey = a.alt;
},
{
glyphname = eth;
layers = (
{
layerId = "C70E3B11-AF58-44B6-92D7-58C9185F522D";
name = "Bold Extended";
paths = (
{
closed = 1;
nodes = (
"539 -18 OFFCURVE",
"696 50 OFFCURVE",
"696 214 CURVE SMOOTH",
"696 393 OFFCURVE",
"501 526 OFFCURVE",
"241 595 CURVE",
"201 499 LINE",
"430 439 OFFCURVE",
"574 352 OFFCURVE",
"574 208 CURVE SMOOTH",
"574 92 OFFCURVE",
"470 70 OFFCURVE",
"365 70 CURVE SMOOTH",
"272 70 OFFCURVE",
"202 98 OFFCURVE",
"202 147 CURVE SMOOTH",
"202 194 OFFCURVE",
"270 221 OFFCURVE",
"370 221 CURVE SMOOTH",
"450 221 OFFCURVE",
"554 201 OFFCURVE",
"622 164 CURVE",
"626 244 LINE",
"541 292 OFFCURVE",
"439 310 OFFCURVE",
"343 310 CURVE SMOOTH",
"189 310 OFFCURVE",
"74 242 OFFCURVE",
"74 147 CURVE SMOOTH",
"74 47 OFFCURVE",
"197 -20 OFFCURVE",
"363 -19 CURVE SMOOTH"
);
},
{
closed = 1;
nodes = (
"533 590 LINE",
"462 641 LINE",
"280 399 LINE",
"351 349 LINE"
);
}
);
width = 773;
}
);
leftKerningGroup = eth;
rightKerningGroup = eth;
unicode = 00F0;
},
{
glyphname = e;
layers = (
{
anchors = (
{
name = bottom;
position = "{379, -1}";
},
{
name = ogonek;
position = "{709, 72}";
},
{
name = top;
position = "{371, 347}";
}
);
layerId = "C70E3B11-AF58-44B6-92D7-58C9185F522D";
name = "Bold Extended";
paths = (
{
closed = 1;
nodes = (
"510 -11 OFFCURVE",
"619 23 OFFCURVE",
"702 76 CURVE",
"658 157 LINE",
"585 116 OFFCURVE",
"490 88 OFFCURVE",
"371 90 CURVE SMOOTH",
"243 92 OFFCURVE",
"159 122 OFFCURVE",
"159 181 CURVE SMOOTH",
"159 232 OFFCURVE",
"277 279 OFFCURVE",
"404 279 CURVE SMOOTH",
"505 279 OFFCURVE",
"562 266 OFFCURVE",
"562 243 CURVE SMOOTH",
"562 212 OFFCURVE",
"506 200 OFFCURVE",
"401 199 CURVE SMOOTH",
"326 199 OFFCURVE",
"245 204 OFFCURVE",
"134 249 CURVE",
"134 184 LINE",
"233 143 OFFCURVE",
"321 123 OFFCURVE",
"431 123 CURVE SMOOTH",
"571 123 OFFCURVE",
"677 157 OFFCURVE",
"677 243 CURVE SMOOTH",
"677 324 OFFCURVE",
"566 368 OFFCURVE",
"395 368 CURVE SMOOTH",
"217 368 OFFCURVE",
"50 291 OFFCURVE",
"50 181 CURVE SMOOTH",
"50 66 OFFCURVE",
"184 -11 OFFCURVE",
"361 -11 CURVE SMOOTH"
);
}
);
width = 756;
}
);
leftKerningGroup = o;
leftMetricsKey = "=o";
rightKerningGroup = e;
unicode = 0065;
},
{
glyphname = f.alt;
layers = (
{
anchors = (
{
name = bottom;
position = "{365, 0}";
},
{
name = top;
position = "{365, 801}";
}
);
layerId = "C70E3B11-AF58-44B6-92D7-58C9185F522D";
name = "Bold Extended";
paths = (
{
closed = 1;
nodes = (
"138 391 OFFCURVE",
"173 371 OFFCURVE",
"206 360 CURVE",
"206 50 LINE",
"321 50 LINE",
"321 348 LINE",
"289 351 OFFCURVE",
"258 370 OFFCURVE",
"258 394 CURVE SMOOTH",
"258 424 OFFCURVE",
"289 450 OFFCURVE",
"367 450 CURVE SMOOTH",
"430 450 OFFCURVE",
"484 433 OFFCURVE",
"532 415 CURVE",
"565 511 LINE",
"493 535 OFFCURVE",
"427 555 OFFCURVE",
"326 555 CURVE SMOOTH",
"211 555 OFFCURVE",
"138 502 OFFCURVE",
"138 440 CURVE SMOOTH"
);
},
{
closed = 1;
nodes = (
"45 357 LINE",
"45 267 LINE",
"474 267 LINE",
"474 357 LINE"
);
},
{
closed = 1;
nodes = (
"45 0 LINE",
"494 0 LINE",
"494 90 LINE",
"45 90 LINE"
);
}
);
width = 586;
}
);
leftKerningGroup = f.alt;
leftMetricsKey = n;
rightKerningGroup = f.alt;
},
{
glyphname = g;
layers = (
{
anchors = (
{
name = bottom;
position = "{370, -156}";
},
{
name = top;
position = "{368, 347}";
}
);
layerId = "C70E3B11-AF58-44B6-92D7-58C9185F522D";
name = "Bold Extended";
paths = (
{
closed = 1;
nodes = (
"546 -158 OFFCURVE",
"692 -116 OFFCURVE",
"692 -32 CURVE SMOOTH",
"692 47 OFFCURVE",
"621 82 OFFCURVE",
"526 82 CURVE SMOOTH",
"452 82 OFFCURVE",
"321 80 OFFCURVE",
"256 80 CURVE SMOOTH",
"192 80 OFFCURVE",
"159 92 OFFCURVE",
"159 115 CURVE SMOOTH",
"159 138 OFFCURVE",
"205 155 OFFCURVE",
"219 158 CURVE",
"171 189 LINE",
"128 183 OFFCURVE",
"62 151 OFFCURVE",
"62 91 CURVE SMOOTH",
"62 33 OFFCURVE",
"124 -8 OFFCURVE",
"230 -8 CURVE SMOOTH",
"311 -8 OFFCURVE",
"455 -6 OFFCURVE",
"506 -6 CURVE SMOOTH",
"560 -6 OFFCURVE",
"589 -11 OFFCURVE",
"589 -39 CURVE SMOOTH",
"589 -61 OFFCURVE",
"485 -66 OFFCURVE",
"339 -66 CURVE SMOOTH",
"182 -66 OFFCURVE",
"146 -49 OFFCURVE",
"146 -25 CURVE SMOOTH",
"146 -8 OFFCURVE",
"161 13 OFFCURVE",
"172 19 CURVE",
"116 43 LINE",
"83 24 OFFCURVE",
"49 -9 OFFCURVE",
"49 -50 CURVE SMOOTH",
"49 -119 OFFCURVE",
"133 -158 OFFCURVE",
"328 -158 CURVE SMOOTH"
);
},
{
closed = 1;
nodes = (
"499 108 OFFCURVE",
"647 145 OFFCURVE",
"647 238 CURVE SMOOTH",
"647 329 OFFCURVE",
"518 367 OFFCURVE",
"369 367 CURVE SMOOTH",
"228 367 OFFCURVE",
"93 329 OFFCURVE",
"93 238 CURVE SMOOTH",
"93 147 OFFCURVE",
"223 106 OFFCURVE",
"369 108 CURVE SMOOTH"
);
},
{
closed = 1;
nodes = (
"266 187 OFFCURVE",
"205 212 OFFCURVE",
"205 238 CURVE SMOOTH",
"205 267 OFFCURVE",
"265 288 OFFCURVE",
"370 288 CURVE SMOOTH",
"476 288 OFFCURVE",
"537 266 OFFCURVE",
"537 238 CURVE SMOOTH",
"537 211 OFFCURVE",
"464 187 OFFCURVE",
"370 187 CURVE SMOOTH"
);
},
{
closed = 1;
nodes = (
"591 348 OFFCURVE",
"637 367 OFFCURVE",
"700 366 CURVE",
"700 464 LINE",
"629 461 OFFCURVE",
"543 425 OFFCURVE",
"535 325 CURVE",
"579 285 LINE"
);
}
);
width = 750;
}
);
leftKerningGroup = g;
rightKerningGroup = g;
unicode = 0067;
},
{
glyphname = g.alt;
layers = (
{
anchors = (
{
name = bottom;
position = "{414, -190}";
},
{
name = top;
position = "{413, 365}";
}
);
layerId = "C70E3B11-AF58-44B6-92D7-58C9185F522D";
name = "Bold Extended";
paths = (
{
closed = 1;
nodes = (
"595 -210 OFFCURVE",
"737 -126 OFFCURVE",
"736 42 CURVE SMOOTH",
"736 385 LINE",
"621 358 LINE",
"621 43 LINE SMOOTH",
"621 -50 OFFCURVE",
"536 -109 OFFCURVE",
"406 -109 CURVE SMOOTH",
"308 -109 OFFCURVE",
"188 -79 OFFCURVE",
"120 -43 CURVE",
"79 -136 LINE",
"159 -175 OFFCURVE",
"291 -210 OFFCURVE",
"418 -210 CURVE SMOOTH"
);
},
{
closed = 1;
nodes = (
"453 -12 OFFCURVE",
"573 80 OFFCURVE",
"690 168 CURVE",
"690 247 LINE",
"565 159 OFFCURVE",
"431 85 OFFCURVE",
"332 85 CURVE SMOOTH",
"218 85 OFFCURVE",
"168 126 OFFCURVE",
"168 167 CURVE SMOOTH",
"168 231 OFFCURVE",
"262 271 OFFCURVE",
"394 270 CURVE SMOOTH",
"499 271 OFFCURVE",
"619 215 OFFCURVE",
"684 175 CURVE",
"684 251 LINE",
"622 292 OFFCURVE",
"517 366 OFFCURVE",
"364 366 CURVE SMOOTH",
"184 366 OFFCURVE",
"48 284 OFFCURVE",
"48 168 CURVE SMOOTH",
"48 63 OFFCURVE",
"152 -12 OFFCURVE",
"298 -12 CURVE SMOOTH"
);
}
);
width = 817;
}
);
leftKerningGroup = g.alt;
leftMetricsKey = "=q";
rightKerningGroup = g.alt;
},
{
glyphname = h;
layers = (
{
anchors = (
{
name = bottom;
position = "{450, 0}";
},
{
name = center;
position = "{450, 179}";
},
{
name = top;
position = "{450, 343}";
}
);
layerId = "C70E3B11-AF58-44B6-92D7-58C9185F522D";
name = "Bold Extended";
paths = (
{
closed = 1;
nodes = (
"787 0 LINE",
"787 90 LINE SMOOTH",
"787 239 OFFCURVE",
"743 366 OFFCURVE",
"565 366 CURVE SMOOTH",
"425 366 OFFCURVE",
"316 269 OFFCURVE",
"236 184 CURVE",
"236 94 LINE",
"298 162 OFFCURVE",
"399 263 OFFCURVE",
"521 263 CURVE SMOOTH",
"646 263 OFFCURVE",
"672 166 OFFCURVE",
"672 95 CURVE SMOOTH",
"672 0 LINE"
);
},
{
closed = 1;
nodes = (
"443 0 LINE",
"443 93 LINE",
"3 93 LINE",
"3 0 LINE"
);
},
{
closed = 1;
nodes = (
"948 0 LINE",
"948 93 LINE",
"508 93 LINE",
"508 0 LINE"
);
},
{
closed = 1;
nodes = (
"3 520 LINE",
"3 427 LINE",
"164 427 LINE",
"164 0 LINE",
"280 0 LINE",
"280 520 LINE"
);
}
);
width = 941;
}
);
leftKerningGroup = h;
rightKerningGroup = n;
rightMetricsKey = "=n";
unicode = 0068;
},
{
glyphname = hbar;
layers = (
{
anchors = (
{
name = bottom;
position = "{450, 0}";
},
{
name = center;
position = "{450, 179}";
},
{
name = top;
position = "{450, 343}";
}
);
layerId = "C70E3B11-AF58-44B6-92D7-58C9185F522D";
name = "Bold Extended";
paths = (
{
closed = 1;
nodes = (
"787 0 LINE",
"787 90 LINE SMOOTH",
"787 239 OFFCURVE",
"743 366 OFFCURVE",
"565 366 CURVE SMOOTH",
"425 366 OFFCURVE",
"316 269 OFFCURVE",
"236 184 CURVE",
"236 94 LINE",
"298 162 OFFCURVE",
"399 263 OFFCURVE",
"521 263 CURVE SMOOTH",
"646 263 OFFCURVE",
"672 166 OFFCURVE",
"672 95 CURVE SMOOTH",
"672 0 LINE"
);
},
{
closed = 1;
nodes = (
"443 0 LINE",
"443 93 LINE",
"3 93 LINE",
"3 0 LINE"
);
},
{
closed = 1;
nodes = (
"280 0 LINE",
"280 520 LINE",
"164 520 LINE",
"164 0 LINE"
);
},
{
closed = 1;
nodes = (
"948 0 LINE",
"948 93 LINE",
"508 93 LINE",
"508 0 LINE"
);
},
{
closed = 1;
nodes = (
"74 520 LINE",
"74 427 LINE",
"273 427 LINE",
"273 520 LINE"
);
},
{
closed = 1;
nodes = (
"620 396 LINE",
"620 469 LINE",
"-15 469 LINE",
"-15 396 LINE"
);
}
);
width = 873;
}
);
leftKerningGroup = h;
rightKerningGroup = n;
unicode = 0127;
},
{
glyphname = i;
layers = (
{
anchors = (
{
name = bottom;
position = "{227, 0}";
},
{
name = ogonek;
position = "{455, 10}";
},
{
name = top;
position = "{237, 357}";
}
);
layerId = "C70E3B11-AF58-44B6-92D7-58C9185F522D";
name = "Bold Extended";
paths = (
{
closed = 1;
nodes = (
"321 30 LINE",
"321 357 LINE",
"206 357 LINE",
"206 30 LINE"
);
},
{
closed = 1;
nodes = (
"483 0 LINE",
"483 90 LINE",
"45 90 LINE",
"45 0 LINE"
);
},
{
closed = 1;
nodes = (
"289 267 LINE",
"289 357 LINE",
"45 357 LINE",
"45 267 LINE"
);
},
{
closed = 1;
nodes = (
"308 412 OFFCURVE",
"339 437 OFFCURVE",
"339 470 CURVE",
"339 505 OFFCURVE",
"308 530 OFFCURVE",
"257 530 CURVE",
"208 530 OFFCURVE",
"175 505 OFFCURVE",
"175 470 CURVE",
"175 437 OFFCURVE",
"208 412 OFFCURVE",
"257 412 CURVE"
);
}
);
width = 495;
}
);
leftKerningGroup = i;
leftMetricsKey = "=n";
rightKerningGroup = i;
unicode = 0069;
},
{
glyphname = idotless;
layers = (
{
anchors = (
{
name = bottom;
position = "{238, 0}";
},
{
name = ogonek;
position = "{452, 0}";
},
{
name = top;
position = "{222, 357}";
}
);
layerId = "C70E3B11-AF58-44B6-92D7-58C9185F522D";
name = "Bold Extended";
paths = (
{
closed = 1;
nodes = (
"309 30 LINE",
"309 357 LINE",
"194 357 LINE",
"194 30 LINE"
);
},
{
closed = 1;
nodes = (
"471 0 LINE",
"471 90 LINE",
"33 90 LINE",
"33 0 LINE"
);
},
{
closed = 1;
nodes = (
"277 267 LINE",
"277 357 LINE",
"33 357 LINE",
"33 267 LINE"
);
}
);
width = 453;
}
);
leftKerningGroup = idotless;
leftMetricsKey = "=i";
rightKerningGroup = idotless;
rightMetricsKey = "=i";
unicode = 0131;
},
{
glyphname = j;
layers = (
{
anchors = (
{
name = bottom;
position = "{206, 0}";
},
{
name = top;
position = "{206, 357}";
}
);
layerId = "C70E3B11-AF58-44B6-92D7-58C9185F522D";
name = "Bold Extended";
paths = (
{
closed = 1;
nodes = (
"233 -190 OFFCURVE",
"315 -112 OFFCURVE",
"315 39 CURVE SMOOTH",
"315 344 LINE",
"202 344 LINE",
"202 37 LINE SMOOTH",
"202 -45 OFFCURVE",
"169 -89 OFFCURVE",
"101 -89 CURVE SMOOTH",
"63 -89 OFFCURVE",
"34 -84 OFFCURVE",
"-17 -72 CURVE",
"-45 -167 LINE",
"5 -179 OFFCURVE",
"42 -190 OFFCURVE",
"106 -190 CURVE SMOOTH"
);
},
{
closed = 1;
nodes = (
"285 267 LINE",
"285 357 LINE",
"41 357 LINE",
"41 267 LINE"
);
},
{
closed = 1;
nodes = (
"306 412 OFFCURVE",
"337 437 OFFCURVE",
"337 470 CURVE",
"337 505 OFFCURVE",
"306 530 OFFCURVE",
"255 530 CURVE",
"206 530 OFFCURVE",
"172 505 OFFCURVE",
"172 470 CURVE",
"172 437 OFFCURVE",
"206 412 OFFCURVE",
"255 412 CURVE"
);
}
);
width = 418;
}
);
leftKerningGroup = j;
rightKerningGroup = j;
rightMetricsKey = g.alt;
unicode = 006A;
},
{
glyphname = jdotless;
layers = (
{
anchors = (
{
name = bottom;
position = "{234, 0}";
},
{
name = top;
position = "{220, 436}";
}
);
layerId = "C70E3B11-AF58-44B6-92D7-58C9185F522D";
name = "Bold Extended";
paths = (
{
closed = 1;
nodes = (
"233 -210 OFFCURVE",
"316 -132 OFFCURVE",
"315 19 CURVE SMOOTH",
"315 344 LINE",
"202 344 LINE",
"202 17 LINE SMOOTH",
"202 -65 OFFCURVE",
"169 -109 OFFCURVE",
"101 -109 CURVE SMOOTH",
"63 -109 OFFCURVE",
"34 -104 OFFCURVE",
"-17 -92 CURVE",
"-45 -187 LINE",
"5 -199 OFFCURVE",
"42 -210 OFFCURVE",
"106 -210 CURVE SMOOTH"
);
},
{
closed = 1;
nodes = (
"285 267 LINE",
"285 357 LINE",
"41 357 LINE",
"41 267 LINE"
);
}
);
width = 374;
}
);
leftKerningGroup = jdotless;
leftMetricsKey = "=j";
rightKerningGroup = jdotless;
rightMetricsKey = "=j";
unicode = 0237;
},
{
glyphname = k;
layers = (
{
anchors = (
{
name = bottom;
position = "{476, 0}";
},
{
name = top;
position = "{476, 343}";
}
);
layerId = "C70E3B11-AF58-44B6-92D7-58C9185F522D";
name = "Bold Extended";
paths = (
{
closed = 1;
nodes = (
"664 133 OFFCURVE",
"794 166 OFFCURVE",
"795 261 CURVE SMOOTH",
"796 338 OFFCURVE",
"716 373 OFFCURVE",
"607 373 CURVE SMOOTH",
"492 373 OFFCURVE",
"377 323 OFFCURVE",
"259 232 CURVE",
"257 161 LINE",
"379 244 OFFCURVE",
"489 279 OFFCURVE",
"569 279 CURVE SMOOTH",
"630 279 OFFCURVE",
"667 275 OFFCURVE",
"667 255 CURVE SMOOTH",
"667 229 OFFCURVE",
"597 216 OFFCURVE",
"481 214 CURVE SMOOTH",
"407 213 OFFCURVE",
"302 214 OFFCURVE",
"256 223 CURVE",
"254 159 LINE",
"297 150 OFFCURVE",
"387 133 OFFCURVE",
"499 133 CURVE SMOOTH"
);
},
{
closed = 1;
nodes = (
"425 0 LINE",
"425 90 LINE",
"3 90 LINE",
"3 0 LINE"
);
},
{
closed = 1;
nodes = (
"276 30 LINE",
"276 520 LINE",
"164 520 LINE",
"164 30 LINE"
);
},
{
closed = 1;
nodes = (
"784 -21 OFFCURVE",
"839 31 OFFCURVE",
"861 109 CURVE",
"797 166 LINE",
"787 101 OFFCURVE",
"742 79 OFFCURVE",
"697 79 CURVE SMOOTH",
"631 79 OFFCURVE",
"602 125 OFFCURVE",
"546 151 CURVE",
"445 151 LINE",
"500 70 OFFCURVE",
"579 -21 OFFCURVE",
"690 -21 CURVE SMOOTH"
);
},
{
closed = 1;
nodes = (
"267 430 LINE",
"267 520 LINE",
"3 520 LINE",
"3 430 LINE"
);
}
);
width = 837;
}
);
leftKerningGroup = h;
leftMetricsKey = "=h";
rightKerningGroup = k;
unicode = 006B;
},
{
glyphname = k.alt;
layers = (
{
anchors = (
{
name = bottom;
position = "{454, 0}";
},
{
name = top;
position = "{454, 367}";
}
);
layerId = "C70E3B11-AF58-44B6-92D7-58C9185F522D";
name = "Bold Extended";
paths = (
{
closed = 1;
nodes = (
"743 289 LINE",
"601 287 LINE",
"251 177 LINE",
"258 105 LINE"
);
},
{
closed = 1;
nodes = (
"449 0 LINE",
"449 90 LINE",
"3 90 LINE",
"3 0 LINE"
);
},
{
closed = 1;
nodes = (
"279 30 LINE",
"279 520 LINE",
"164 520 LINE",
"164 30 LINE"
);
},
{
closed = 1;
nodes = (
"798 0 LINE",
"798 90 LINE",
"480 90 LINE",
"480 0 LINE"
);
},
{
closed = 1;
nodes = (
"741 76 LINE",
"480 236 LINE",
"392 189 LINE",
"599 76 LINE"
);
},
{
closed = 1;
nodes = (
"271 430 LINE",
"271 520 LINE",
"3 520 LINE",
"3 430 LINE"
);
},
{
closed = 1;
nodes = (
"791 271 LINE",
"791 357 LINE",
"471 357 LINE",
"471 271 LINE"
);
}
);
width = 853;
}
);
leftKerningGroup = k.alt;
leftMetricsKey = "=h";
rightKerningGroup = k.alt;
},
{
glyphname = l;
layers = (
{
anchors = (
{
name = bottom;
position = "{209, 0}";
},
{
name = center;
position = "{209, 283}";
},
{
name = top;
position = "{209, 471}";
},
{
name = topright;
position = "{378, 357}";
}
);
layerId = "C70E3B11-AF58-44B6-92D7-58C9185F522D";
name = "Bold Extended";
paths = (
{
closed = 1;
nodes = (
"279 30 LINE",
"279 520 LINE",
"164 520 LINE",
"164 30 LINE"
);
},
{
closed = 1;
nodes = (
"441 0 LINE",
"441 90 LINE",
"3 90 LINE",
"3 0 LINE"
);
},
{
closed = 1;
nodes = (
"271 430 LINE",
"271 520 LINE",
"3 520 LINE",
"3 430 LINE"
);
}
);
width = 453;
}
);
leftKerningGroup = h;
leftMetricsKey = "=h";
rightKerningGroup = l;
rightMetricsKey = "=i";
unicode = 006C;
},
{
glyphname = m;
layers = (
{
anchors = (
{
name = bottom;
position = "{726, 0}";
},
{
name = top;
position = "{726, 343}";
}
);
layerId = "C70E3B11-AF58-44B6-92D7-58C9185F522D";
name = "Bold Extended";
paths = (
{
closed = 1;
nodes = (
"283 267 LINE",
"283 357 LINE",
"45 357 LINE",
"45 267 LINE"
);
},
{
closed = 1;
nodes = (
"321 30 LINE",
"321 357 LINE",
"206 357 LINE",
"206 30 LINE"
);
},
{
closed = 1;
nodes = (
"438 0 LINE",
"438 90 LINE",
"45 90 LINE",
"45 0 LINE"
);
},
{
closed = 1;
nodes = (
"725 30 LINE",
"725 111 LINE SMOOTH",
"725 260 OFFCURVE",
"679 366 OFFCURVE",
"535 366 CURVE SMOOTH",
"423 366 OFFCURVE",
"331 288 OFFCURVE",
"282 184 CURVE",
"282 94 LINE",
"344 190 OFFCURVE",
"400 258 OFFCURVE",
"497 258 CURVE SMOOTH",
"594 258 OFFCURVE",
"610 182 OFFCURVE",
"610 116 CURVE SMOOTH",
"610 30 LINE"
);
},
{
closed = 1;
nodes = (
"842 0 LINE",
"842 90 LINE",
"494 90 LINE",
"494 0 LINE"
);
},
{
closed = 1;
nodes = (
"1129 30 LINE",
"1129 111 LINE SMOOTH",
"1129 260 OFFCURVE",
"1082 366 OFFCURVE",
"938 366 CURVE SMOOTH",
"826 366 OFFCURVE",
"734 288 OFFCURVE",
"685 184 CURVE",
"685 94 LINE",
"747 190 OFFCURVE",
"803 258 OFFCURVE",
"900 258 CURVE SMOOTH",
"998 258 OFFCURVE",
"1013 182 OFFCURVE",
"1013 116 CURVE SMOOTH",
"1013 30 LINE"
);
},
{
closed = 1;
nodes = (
"1290 0 LINE",
"1290 90 LINE",
"897 90 LINE",
"897 0 LINE"
);
}
);
width = 1283;
}
);
leftKerningGroup = n;
leftMetricsKey = "=n";
rightKerningGroup = n;
rightMetricsKey = "=n";
unicode = 006D;
},
{
glyphname = n;
lastChange = "2015-11-12 01:52:07 +0000";
layers = (
{
anchors = (
{
name = bottom;
position = "{508, 0}";
},
{
name = top;
position = "{498, 367}";
}
);
layerId = "C70E3B11-AF58-44B6-92D7-58C9185F522D";
name = "Bold Extended";
paths = (
{
closed = 1;
nodes = (
"833 0 LINE",
"833 120 LINE SMOOTH",
"833 239 OFFCURVE",
"783 366 OFFCURVE",
"605 366 CURVE SMOOTH",
"471 366 OFFCURVE",
"362 269 OFFCURVE",
"282 184 CURVE",
"282 94 LINE",
"344 162 OFFCURVE",
"455 258 OFFCURVE",
"577 258 CURVE SMOOTH",
"692 258 OFFCURVE",
"718 191 OFFCURVE",
"718 125 CURVE SMOOTH",
"718 0 LINE"
);
},
{
closed = 1;
nodes = (
"438 0 LINE",
"438 90 LINE",
"45 90 LINE",
"45 0 LINE"
);
},
{
closed = 1;
nodes = (
"321 0 LINE",
"321 357 LINE",
"206 357 LINE",
"206 0 LINE"
);
},
{
closed = 1;
nodes = (
"293 267 LINE",
"293 357 LINE",
"45 357 LINE",
"45 267 LINE"
);
},
{
closed = 1;
nodes = (
"971 0 LINE",
"971 90 LINE",
"601 90 LINE",
"601 0 LINE"
);
}
);
width = 977;
}
);
leftKerningGroup = n;
rightKerningGroup = n;
unicode = 006E;
},
{
glyphname = o;
layers = (
{
anchors = (
{
name = bottom;
position = "{390, 2}";
},
{
name = center;
position = "{390, 179}";
},
{
name = ogonek;
position = "{391, -12}";
},
{
name = top;
position = "{390, 343}";
},
{
name = topright;
position = "{998, 357}";
}
);
layerId = "C70E3B11-AF58-44B6-92D7-58C9185F522D";
name = "Bold Extended";
paths = (
{
closed = 1;
nodes = (
"577 -11 OFFCURVE",
"731 60 OFFCURVE",
"731 179 CURVE",
"731 302 OFFCURVE",
"569 368 OFFCURVE",
"390 367 CURVE",
"208 367 OFFCURVE",
"50 302 OFFCURVE",
"50 179 CURVE",
"50 60 OFFCURVE",
"208 -11 OFFCURVE",
"390 -10 CURVE"
);
},
{
closed = 1;
nodes = (
"269 80 OFFCURVE",
"169 113 OFFCURVE",
"169 179 CURVE",
"169 248 OFFCURVE",
"269 276 OFFCURVE",
"390 277 CURVE",
"511 277 OFFCURVE",
"612 248 OFFCURVE",
"612 179 CURVE",
"612 113 OFFCURVE",
"511 80 OFFCURVE",
"390 80 CURVE"
);
}
);
width = 781;
}
);
leftKerningGroup = "0";
rightKerningGroup = "0";
unicode = 006F;
},
{
glyphname = oslash;
layers = (
{
components = (
{
name = o;
}
);
layerId = "C70E3B11-AF58-44B6-92D7-58C9185F522D";
name = "Bold Extended";
paths = (
{
closed = 1;
nodes = (
"347 42 LINE",
"346 58 LINE",
"495 279 LINE",
"511 287 LINE",
"575 411 LINE",
"470 411 LINE",
"419 317 LINE",
"420 300 LINE",
"267 67 LINE",
"249 55 LINE",
"186 -59 LINE",
"291 -59 LINE"
);
}
);
width = 792;
}
);
leftKerningGroup = o;
rightKerningGroup = o;
unicode = 00F8;
},
{
glyphname = p;
layers = (
{
anchors = (
{
name = bottom;
position = "{492, 2}";
},
{
name = top;
position = "{492, 343}";
}
);
layerId = "C70E3B11-AF58-44B6-92D7-58C9185F522D";
name = "Bold Extended";
paths = (
{
closed = 1;
nodes = (
"724 -11 OFFCURVE",
"860 71 OFFCURVE",
"860 186 CURVE SMOOTH",
"860 292 OFFCURVE",
"763 367 OFFCURVE",
"623 367 CURVE SMOOTH",
"484 367 OFFCURVE",
"332 269 OFFCURVE",
"218 102 CURVE",
"218 22 LINE",
"334 176 OFFCURVE",
"484 269 OFFCURVE",
"582 269 CURVE SMOOTH",
"690 269 OFFCURVE",
"740 229 OFFCURVE",
"740 188 CURVE SMOOTH",
"740 124 OFFCURVE",
"646 84 OFFCURVE",
"514 85 CURVE SMOOTH",
"409 84 OFFCURVE",
"289 139 OFFCURVE",
"224 179 CURVE",
"224 104 LINE",
"286 63 OFFCURVE",
"391 -11 OFFCURVE",
"544 -11 CURVE SMOOTH"
);
},
{
closed = 1;
nodes = (
"445 -165 LINE",
"445 -75 LINE",
"3 -75 LINE",
"3 -165 LINE"
);
},
{
closed = 1;
nodes = (
"280 -138 LINE",
"280 357 LINE",
"164 357 LINE",
"164 -138 LINE"
);
},
{
closed = 1;
nodes = (
"271 267 LINE",
"272 357 LINE",
"3 357 LINE",
"3 267 LINE"
);
}
);
width = 910;
}
);
leftKerningGroup = p;
leftMetricsKey = "=l";
rightKerningGroup = o;
rightMetricsKey = "=o";
unicode = 0070;
},
{
glyphname = thorn;
layers = (
{
layerId = "C70E3B11-AF58-44B6-92D7-58C9185F522D";
name = "Bold Extended";
paths = (
{
closed = 1;
nodes = (
"423 367 OFFCURVE",
"271 269 OFFCURVE",
"157 102 CURVE",
"157 22 LINE",
"273 176 OFFCURVE",
"423 269 OFFCURVE",
"521 269 CURVE SMOOTH",
"629 269 OFFCURVE",
"679 229 OFFCURVE",
"679 188 CURVE SMOOTH",
"679 124 OFFCURVE",
"585 84 OFFCURVE",
"453 85 CURVE SMOOTH",
"348 84 OFFCURVE",
"228 139 OFFCURVE",
"163 179 CURVE",
"163 104 LINE",
"225 63 OFFCURVE",
"330 -11 OFFCURVE",
"483 -11 CURVE SMOOTH",
"663 -11 OFFCURVE",
"799 71 OFFCURVE",
"799 186 CURVE SMOOTH",
"799 292 OFFCURVE",
"702 367 OFFCURVE",
"562 367 CURVE SMOOTH"
);
},
{
closed = 1;
nodes = (
"387 -165 LINE",
"387 -75 LINE",
"-55 -75 LINE",
"-55 -165 LINE"
);
},
{
closed = 1;
nodes = (
"-55 520 LINE",
"-55 430 LINE",
"106 430 LINE",
"106 -152 LINE",
"219 -152 LINE",
"219 520 LINE"
);
}
);
width = 838;
}
);
leftKerningGroup = h;
leftMetricsKey = b;
rightKerningGroup = o;
rightMetricsKey = "=p";
unicode = 00FE;
},
{
glyphname = q;
layers = (
{
anchors = (
{
name = bottom;
position = "{320, 2}";
},
{
name = center;
position = "{322, 179}";
},
{
name = top;
position = "{320, 343}";
}
);
layerId = "C70E3B11-AF58-44B6-92D7-58C9185F522D";
name = "Bold Extended";
paths = (
{
closed = 1;
nodes = (
"431 -12 OFFCURVE",
"561 70 OFFCURVE",
"686 193 CURVE",
"686 272 LINE",
"557 143 OFFCURVE",
"415 85 OFFCURVE",
"322 85 CURVE SMOOTH",
"220 85 OFFCURVE",
"170 123 OFFCURVE",
"170 173 CURVE SMOOTH",
"170 233 OFFCURVE",
"272 271 OFFCURVE",
"384 270 CURVE SMOOTH",
"503 271 OFFCURVE",
"724 169 OFFCURVE",
"840 110 CURVE",
"840 222 LINE",
"718 288 OFFCURVE",
"519 367 OFFCURVE",
"354 366 CURVE SMOOTH",
"195 366 OFFCURVE",
"50 287 OFFCURVE",
"50 174 CURVE SMOOTH",
"50 57 OFFCURVE",
"147 -12 OFFCURVE",
"281 -12 CURVE SMOOTH"
);
},
{
closed = 1;
nodes = (
"891 -165 LINE",
"891 -75 LINE",
"436 -75 LINE",
"436 -165 LINE"
);
},
{
closed = 1;
nodes = (
"731 -158 LINE",
"731 387 LINE",
"614 364 LINE",
"614 -158 LINE"
);
}
);
width = 892;
}
);
leftKerningGroup = o;
leftMetricsKey = "=o";
rightKerningGroup = q;
unicode = 0071;
},
{
glyphname = r;
layers = (
{
anchors = (
{
name = bottom;
position = "{411, 0}";
},
{
name = top;
position = "{411, 357}";
}
);
layerId = "C70E3B11-AF58-44B6-92D7-58C9185F522D";
name = "Bold Extended";
paths = (
{
closed = 1;
nodes = (
"389 198 OFFCURVE",
"514 254 OFFCURVE",
"596 251 CURVE",
"596 178 LINE",
"695 178 LINE",
"695 365 LINE",
"644 366 LINE SMOOTH",
"518 366 OFFCURVE",
"383 288 OFFCURVE",
"268 179 CURVE",
"268 93 LINE"
);
},
{
closed = 1;
nodes = (
"483 0 LINE",
"483 89 LINE",
"45 89 LINE",
"45 0 LINE"
);
},
{
closed = 1;
nodes = (
"321 30 LINE",
"321 357 LINE",
"206 357 LINE",
"206 30 LINE"
);
},
{
closed = 1;
nodes = (
"313 267 LINE",
"313 357 LINE",
"45 357 LINE",
"45 267 LINE"
);
}
);
width = 789;
}
);
leftKerningGroup = n;
leftMetricsKey = "=n";
rightKerningGroup = r;
unicode = 0072;
},
{
glyphname = s;
layers = (
{
anchors = (
{
name = bottom;
position = "{419, -16}";
},
{
name = top;
position = "{335, 343}";
}
);
layerId = "C70E3B11-AF58-44B6-92D7-58C9185F522D";
name = "Bold Extended";
paths = (
{
closed = 1;
nodes = (
"545 -11 OFFCURVE",
"622 37 OFFCURVE",
"622 110 CURVE SMOOTH",
"622 168 OFFCURVE",
"583 211 OFFCURVE",
"360 231 CURVE SMOOTH",
"177 243 OFFCURVE",
"164 253 OFFCURVE",
"164 262 CURVE SMOOTH",
"164 281 OFFCURVE",
"201 294 OFFCURVE",
"300 294 CURVE SMOOTH",
"403 294 OFFCURVE",
"487 272 OFFCURVE",
"555 211 CURVE",
"593 213 LINE",
"593 357 LINE",
"509 357 LINE",
"509 246 LINE",
"549 260 LINE",
"487 335 OFFCURVE",
"411 367 OFFCURVE",
"275 367 CURVE SMOOTH",
"118 367 OFFCURVE",
"46 316 OFFCURVE",
"46 244 CURVE SMOOTH",
"46 193 OFFCURVE",
"82 144 OFFCURVE",
"290 129 CURVE SMOOTH",
"486 116 OFFCURVE",
"504 103 OFFCURVE",
"504 94 CURVE SMOOTH",
"504 64 OFFCURVE",
"445 60 OFFCURVE",
"353 60 CURVE SMOOTH",
"263 60 OFFCURVE",
"142 78 OFFCURVE",
"84 143 CURVE",
"46 142 LINE",
"46 -1 LINE",
"131 -1 LINE",
"131 106 LINE",
"89 93 LINE",
"154 14 OFFCURVE",
"235 -11 OFFCURVE",
"365 -11 CURVE SMOOTH"
);
}
);
width = 656;
}
);
leftKerningGroup = s;
rightKerningGroup = s;
unicode = 0073;
},
{
glyphname = germandbls;
layers = (
{
layerId = "C70E3B11-AF58-44B6-92D7-58C9185F522D";
name = "Bold Extended";
paths = (
{
closed = 1;
nodes = (
"798 -11 OFFCURVE",
"850 43 OFFCURVE",
"850 109 CURVE SMOOTH",
"850 177 OFFCURVE",
"794 208 OFFCURVE",
"659 226 CURVE SMOOTH",
"532 241 OFFCURVE",
"519 240 OFFCURVE",
"519 256 CURVE SMOOTH",
"519 275 OFFCURVE",
"558 284 OFFCURVE",
"624 300 CURVE SMOOTH",
"728 323 OFFCURVE",
"795 340 OFFCURVE",
"795 421 CURVE SMOOTH",
"795 516 OFFCURVE",
"647 585 OFFCURVE",
"451 585 CURVE SMOOTH",
"256 585 OFFCURVE",
"184 502 OFFCURVE",
"184 385 CURVE SMOOTH",
"184 0 LINE",
"297 0 LINE",
"297 387 LINE SMOOTH",
"297 435 OFFCURVE",
"322 489 OFFCURVE",
"450 489 CURVE SMOOTH",
"573 489 OFFCURVE",
"676 465 OFFCURVE",
"676 414 CURVE SMOOTH",
"676 366 OFFCURVE",
"616 372 OFFCURVE",
"538 353 CURVE SMOOTH",
"435 328 OFFCURVE",
"400 297 OFFCURVE",
"400 239 CURVE SMOOTH",
"400 185 OFFCURVE",
"427 148 OFFCURVE",
"589 125 CURVE SMOOTH",
"698 112 OFFCURVE",
"732 111 OFFCURVE",
"732 90 CURVE SMOOTH",
"732 75 OFFCURVE",
"696 60 OFFCURVE",
"651 60 CURVE SMOOTH",
"601 60 OFFCURVE",
"487 78 OFFCURVE",
"429 143 CURVE",
"391 142 LINE",
"391 -1 LINE",
"476 -1 LINE",
"476 106 LINE",
"434 93 LINE",
"499 14 OFFCURVE",
"573 -11 OFFCURVE",
"668 -11 CURVE SMOOTH"
);
},
{
closed = 1;
nodes = (
"260 0 LINE",
"260 90 LINE",
"45 90 LINE",
"45 0 LINE"
);
},
{
closed = 1;
nodes = (
"265 267 LINE",
"265 357 LINE",
"45 357 LINE",
"45 267 LINE"
);
}
);
width = 877;
}
);
leftKerningGroup = h;
leftMetricsKey = f;
rightKerningGroup = germandbls;
unicode = 00DF;
},
{
glyphname = t;
layers = (
{
anchors = (
{
name = bottom;
position = "{280, -10}";
},
{
name = center;
position = "{240, 179}";
},
{
name = top;
position = "{240, 456}";
},
{
name = topright;
position = "{333, 419}";
}
);
layerId = "C70E3B11-AF58-44B6-92D7-58C9185F522D";
name = "Bold Extended";
paths = (
{
closed = 1;
nodes = (
"360 -10 OFFCURVE",
"431 15 OFFCURVE",
"478 44 CURVE",
"439 129 LINE",
"401 108 OFFCURVE",
"353 91 OFFCURVE",
"299 91 CURVE SMOOTH",
"235 91 OFFCURVE",
"222 127 OFFCURVE",
"222 167 CURVE",
"222 456 LINE",
"109 456 LINE",
"109 165 LINE",
"109 60 OFFCURVE",
"161 -10 OFFCURVE",
"280 -10 CURVE SMOOTH"
);
},
{
closed = 1;
nodes = (
"423 267 LINE",
"423 357 LINE",
"0 357 LINE",
"0 267 LINE"
);
}
);
width = 507;
}
);
leftKerningGroup = t;
rightKerningGroup = t;
unicode = 0074;
},
{
glyphname = t.alt;
layers = (
{
anchors = (
{
name = bottom;
position = "{277, -10}";
},
{
name = center;
position = "{237, 179}";
},
{
name = top;
position = "{237, 456}";
},
{
name = topright;
position = "{330, 419}";
}
);
layerId = "C70E3B11-AF58-44B6-92D7-58C9185F522D";
name = "Bold Extended";
paths = (
{
closed = 1;
nodes = (
"413 357 LINE",
"33 357 LINE",
"33 267 LINE",
"413 267 LINE"
);
},
{
closed = 1;
nodes = (
"428 139 LINE",
"391 112 OFFCURVE",
"332 92 OFFCURVE",
"287 92 CURVE SMOOTH",
"240 92 OFFCURVE",
"220 105 OFFCURVE",
"220 168 CURVE SMOOTH",
"220 232 OFFCURVE",
"245 301 OFFCURVE",
"261 340 CURVE",
"255 347 LINE",
"255 455 LINE",
"142 455 LINE",
"142 348 LINE",
"150 342 LINE",
"138 305 OFFCURVE",
"105 233 OFFCURVE",
"105 150 CURVE SMOOTH",
"105 36 OFFCURVE",
"166 -10 OFFCURVE",
"275 -10 CURVE SMOOTH",
"360 -10 OFFCURVE",
"427 23 OFFCURVE",
"465 47 CURVE"
);
}
);
width = 480;
}
);
leftKerningGroup = t.alt;
rightKerningGroup = t.alt;
},
{
glyphname = u;
layers = (
{
anchors = (
{
name = bottom;
position = "{337, 2}";
},
{
name = ogonek;
position = "{887, 33}";
},
{
name = top;
position = "{403, 335}";
},
{
name = topright;
position = "{784, 357}";
}
);
layerId = "C70E3B11-AF58-44B6-92D7-58C9185F522D";
name = "Bold Extended";
paths = (
{
closed = 1;
nodes = (
"457 -10 OFFCURVE",
"543 35 OFFCURVE",
"664 114 CURVE",
"664 205 LINE",
"561 140 OFFCURVE",
"468 97 OFFCURVE",
"387 97 CURVE SMOOTH",
"289 98 OFFCURVE",
"242 135 OFFCURVE",
"242 210 CURVE SMOOTH",
"242 357 LINE",
"127 357 LINE",
"127 215 LINE SMOOTH",
"127 56 OFFCURVE",
"210 -10 OFFCURVE",
"349 -10 CURVE SMOOTH"
);
},
{
closed = 1;
nodes = (
"223 267 LINE",
"223 357 LINE",
"-25 357 LINE",
"-25 267 LINE"
);
},
{
closed = 1;
nodes = (
"794 -6 OFFCURVE",
"835 10 OFFCURVE",
"862 28 CURVE",
"838 108 LINE",
"820 95 OFFCURVE",
"800 87 OFFCURVE",
"778 87 CURVE SMOOTH",
"756 87 OFFCURVE",
"728 103 OFFCURVE",
"728 137 CURVE",
"728 357 LINE",
"613 357 LINE",
"613 126 LINE",
"613 41 OFFCURVE",
"675 -6 OFFCURVE",
"749 -6 CURVE SMOOTH"
);
},
{
closed = 1;
nodes = (
"715 267 LINE",
"715 357 LINE",
"472 357 LINE",
"472 267 LINE"
);
}
);
width = 852;
}
);
leftKerningGroup = u;
rightKerningGroup = u;
rightMetricsKey = "=d";
unicode = 0075;
},
{
glyphname = u.alt;
layers = (
{
anchors = (
{
name = bottom;
position = "{444, -20}";
},
{
name = ogonek;
position = "{767, -4}";
},
{
name = top;
position = "{444, 357}";
},
{
name = topright;
position = "{831, 357}";
}
);
layerId = "C70E3B11-AF58-44B6-92D7-58C9185F522D";
name = "Bold Extended";
paths = (
{
closed = 1;
nodes = (
"456 -10 OFFCURVE",
"542 36 OFFCURVE",
"663 115 CURVE",
"663 204 LINE",
"560 140 OFFCURVE",
"467 97 OFFCURVE",
"386 97 CURVE SMOOTH",
"288 97 OFFCURVE",
"241 135 OFFCURVE",
"241 211 CURVE SMOOTH",
"241 356 LINE",
"126 356 LINE",
"126 216 LINE SMOOTH",
"126 57 OFFCURVE",
"209 -9 OFFCURVE",
"348 -10 CURVE SMOOTH"
);
},
{
closed = 1;
nodes = (
"223 267 LINE",
"223 357 LINE",
"-25 357 LINE",
"-25 267 LINE"
);
},
{
closed = 1;
nodes = (
"822 -16 OFFCURVE",
"863 45 OFFCURVE",
"863 115 CURVE SMOOTH",
"863 163 LINE",
"804 163 LINE",
"804 114 LINE SMOOTH",
"804 82 OFFCURVE",
"794 58 OFFCURVE",
"767 58 CURVE SMOOTH",
"734 58 OFFCURVE",
"726 85 OFFCURVE",
"726 121 CURVE SMOOTH",
"726 357 LINE",
"611 357 LINE",
"611 123 LINE SMOOTH",
"611 40 OFFCURVE",
"649 -16 OFFCURVE",
"740 -16 CURVE SMOOTH"
);
},
{
closed = 1;
nodes = (
"714 267 LINE",
"714 357 LINE",
"471 357 LINE",
"471 267 LINE"
);
}
);
width = 865;
}
);
leftKerningGroup = u.alt;
leftMetricsKey = "=u";
rightKerningGroup = u.alt;
rightMetricsKey = "=d.alt";
},
{
glyphname = x;
layers = (
{
anchors = (
{
name = bottom;
position = "{367, 0}";
},
{
name = top;
position = "{367, 357}";
}
);
layerId = "C70E3B11-AF58-44B6-92D7-58C9185F522D";
name = "Bold Extended";
paths = (
{
closed = 1;
nodes = (
"748 267 LINE",
"748 357 LINE",
"421 357 LINE",
"421 267 LINE"
);
},
{
closed = 1;
nodes = (
"218 77 LINE",
"404 158 LINE",
"435 155 LINE",
"693 282 LINE",
"564 282 LINE",
"389 210 LINE",
"357 213 LINE",
"88 77 LINE"
);
},
{
closed = 1;
nodes = (
"362 -1 LINE",
"362 89 LINE",
"35 89 LINE",
"35 -1 LINE"
);
},
{
closed = 1;
nodes = (
"133 200 LINE",
"133 237 OFFCURVE",
"157 271 OFFCURVE",
"210 271 CURVE SMOOTH",
"269 271 OFFCURVE",
"303 233 OFFCURVE",
"342 181 CURVE",
"350 180 LINE",
"404 83 OFFCURVE",
"475 -8 OFFCURVE",
"589 -8 CURVE SMOOTH",
"679 -8 OFFCURVE",
"756 47 OFFCURVE",
"763 148 CURVE",
"664 160 LINE",
"664 116 OFFCURVE",
"627 89 OFFCURVE",
"590 89 CURVE SMOOTH",
"539 89 OFFCURVE",
"501 131 OFFCURVE",
"448 202 CURVE",
"439 205 LINE",
"388 295 OFFCURVE",
"330 367 OFFCURVE",
"212 367 CURVE SMOOTH",
"106 367 OFFCURVE",
"45 306 OFFCURVE",
"35 212 CURVE"
);
}
);
width = 777;
}
);
leftKerningGroup = x;
rightKerningGroup = x;
unicode = 0078;
},
{
glyphname = x.alt;
layers = (
{
anchors = (
{
name = bottom;
position = "{410, 0}";
},
{
name = top;
position = "{410, 357}";
}
);
layerId = "C70E3B11-AF58-44B6-92D7-58C9185F522D";
name = "Bold Extended";
paths = (
{
closed = 1;
nodes = (
"229 65 LINE",
"422 153 LINE",
"434 153 LINE",
"706 291 LINE",
"588 291 LINE",
"394 205 LINE",
"382 205 LINE",
"111 65 LINE"
);
},
{
closed = 1;
nodes = (
"363 -1 LINE",
"363 79 LINE",
"182 79 LINE",
"182 89 LINE",
"59 89 LINE",
"59 -1 LINE"
);
},
{
closed = 1;
nodes = (
"758 -1 LINE",
"758 89 LINE",
"630 89 LINE",
"628 79 LINE",
"425 79 LINE",
"425 -1 LINE"
);
},
{
closed = 1;
nodes = (
"704 66 LINE",
"457 202 LINE",
"455 202 LINE",
"269 290 LINE",
"113 290 LINE",
"359 155 LINE",
"361 155 LINE",
"548 66 LINE"
);
},
{
closed = 1;
nodes = (
"188 267 LINE",
"187.996 277 LINE",
"393 277 LINE",
"393 357 LINE",
"59 357 LINE",
"59 267 LINE"
);
},
{
closed = 1;
nodes = (
"637 277 LINE",
"634 267 LINE",
"758 267 LINE",
"758 357 LINE",
"455 357 LINE",
"455 277 LINE"
);
}
);
width = 818;
}
);
leftKerningGroup = x.alt;
rightKerningGroup = x.alt;
},
{
glyphname = z;
layers = (
{
anchors = (
{
name = bottom;
position = "{318, -10}";
},
{
name = top;
position = "{407, 367}";
}
);
layerId = "C70E3B11-AF58-44B6-92D7-58C9185F522D";
name = "Bold Extended";
paths = (
{
closed = 1;
nodes = (
"534 279 OFFCURVE",
"462 265 OFFCURVE",
"353 223 CURVE SMOOTH",
"261 190 OFFCURVE",
"136 149 OFFCURVE",
"67 33 CURVE",
"161 -11 LINE",
"219 75 OFFCURVE",
"298 105 OFFCURVE",
"409 142 CURVE SMOOTH",
"534 181 OFFCURVE",
"621 220 OFFCURVE",
"673 327 CURVE",
"577 368 LINE"
);
},
{
closed = 1;
nodes = (
"588 -11 OFFCURVE",
"672 34 OFFCURVE",
"690 132 CURVE",
"592 160 LINE",
"577 117 OFFCURVE",
"533 85 OFFCURVE",
"470 85 CURVE SMOOTH",
"398 85 OFFCURVE",
"347 102 OFFCURVE",
"204 154 CURVE",
"179 102 LINE",
"321 30 OFFCURVE",
"378 -11 OFFCURVE",
"489 -11 CURVE SMOOTH"
);
},
{
closed = 1;
nodes = (
"184 196 LINE",
"184 270 LINE",
"386 270 OFFCURVE",
"447 201 OFFCURVE",
"506 204 CURVE",
"542 259 LINE",
"442 300 OFFCURVE",
"385 367 OFFCURVE",
"154 367 CURVE SMOOTH",
"85 367 LINE",
"85 196 LINE"
);
}
);
width = 732;
}
);
leftKerningGroup = z;
rightKerningGroup = z;
unicode = 007A;
},
{
glyphname = z.alt;
layers = (
{
anchors = (
{
name = bottom;
position = "{400, -10}";
},
{
name = top;
position = "{398, 367}";
}
);
layerId = "C70E3B11-AF58-44B6-92D7-58C9185F522D";
name = "Bold Extended";
paths = (
{
closed = 1;
nodes = (
"662 0 LINE",
"662 222 LINE",
"566 222 LINE",
"566 90 LINE",
"298 90 LINE",
"247 76 LINE",
"246 79 LINE",
"297 112 LINE",
"663 293 LINE",
"663 355 LINE",
"85 355 LINE",
"85 133 LINE",
"181 133 LINE",
"181 265 LINE",
"440 265 LINE",
"491 279 LINE",
"492 276 LINE",
"442 243 LINE",
"79 62 LINE",
"79 0 LINE"
);
}
);
width = 718;
}
);
leftKerningGroup = z.alt;
rightKerningGroup = z.alt;
},
{
glyphname = ordfeminine;
layers = (
{
layerId = "C70E3B11-AF58-44B6-92D7-58C9185F522D";
name = "Bold Extended";
paths = (
{
closed = 1;
nodes = (
"452 318 OFFCURVE",
"479 349 OFFCURVE",
"479 391 CURVE SMOOTH",
"479 423 LINE",
"447 423 LINE",
"447 391 LINE SMOOTH",
"447 373 OFFCURVE",
"440 358 OFFCURVE",
"426 358 CURVE SMOOTH",
"405 358 OFFCURVE",
"402 378 OFFCURVE",
"402 397 CURVE SMOOTH",
"402 412 LINE",
"402 482 OFFCURVE",
"354 529 OFFCURVE",
"254 529 CURVE SMOOTH",
"187 529 OFFCURVE",
"128 513 OFFCURVE",
"58 486 CURVE",
"72 438 LINE",
"129 458 OFFCURVE",
"186 474 OFFCURVE",
"245 474 CURVE SMOOTH",
"304 474 OFFCURVE",
"339 453 OFFCURVE",
"339 414 CURVE",
"339 397 LINE SMOOTH",
"339 352 OFFCURVE",
"361 318 OFFCURVE",
"410 318 CURVE SMOOTH"
);
},
{
closed = 1;
nodes = (
"229 315 OFFCURVE",
"292 333 OFFCURVE",
"354 355 CURVE",
"355 399 LINE",
"290 378 OFFCURVE",
"231 367 OFFCURVE",
"180 367 CURVE SMOOTH",
"137 367 OFFCURVE",
"119 371 OFFCURVE",
"119 377 CURVE SMOOTH",
"119 393 OFFCURVE",
"154 393 OFFCURVE",
"204 393 CURVE SMOOTH",
"251 393 OFFCURVE",
"306 387 OFFCURVE",
"355 385 CURVE",
"355 428 LINE",
"306 432 OFFCURVE",
"242 437 OFFCURVE",
"181 437 CURVE SMOOTH",
"107 437 OFFCURVE",
"47 418 OFFCURVE",
"47 374 CURVE SMOOTH",
"47 335 OFFCURVE",
"86 315 OFFCURVE",
"162 315 CURVE SMOOTH"
);
},
{
closed = 1;
nodes = (
"49 212 LINE",
"459 212 LINE",
"459 260 LINE",
"49 260 LINE"
);
}
);
width = 483;
}
);
leftKerningGroup = ordfeminine;
rightKerningGroup = ordfeminine;
unicode = 00AA;
},
{
glyphname = ordmasculine;
layers = (
{
layerId = "C70E3B11-AF58-44B6-92D7-58C9185F522D";
name = "Bold Extended";
paths = (
{
closed = 1;
nodes = (
"361 304 OFFCURVE",
"452 345 OFFCURVE",
"452 415 CURVE",
"452 488 OFFCURVE",
"356 528 OFFCURVE",
"245 526 CURVE",
"132 527 OFFCURVE",
"39 488 OFFCURVE",
"39 415 CURVE",
"39 345 OFFCURVE",
"132 304 OFFCURVE",
"245 304 CURVE"
);
},
{
closed = 1;
nodes = (
"167 360 OFFCURVE",
"113 376 OFFCURVE",
"113 415 CURVE",
"113 457 OFFCURVE",
"167 471 OFFCURVE",
"245 471 CURVE",
"322 471 OFFCURVE",
"377 457 OFFCURVE",
"377 415 CURVE",
"377 376 OFFCURVE",
"322 360 OFFCURVE",
"245 360 CURVE"
);
},
{
closed = 1;
nodes = (
"59 212 LINE",
"442 212 LINE",
"442 260 LINE",
"59 260 LINE"
);
}
);
width = 490;
}
);
leftKerningGroup = ordmasculine;
rightKerningGroup = ordmasculine;
unicode = 00BA;
},
{
glyphname = "Be-cy";
layers = (
{
layerId = "C70E3B11-AF58-44B6-92D7-58C9185F522D";
name = "Bold Extended";
paths = (
{
closed = 1;
nodes = (
"284 276 LINE",
"284 186 LINE",
"748 186 LINE SMOOTH",
"795 188 OFFCURVE",
"829 172 OFFCURVE",
"829 142 CURVE SMOOTH",
"829 112 OFFCURVE",
"794 96 OFFCURVE",
"745 96 CURVE SMOOTH",
"51 96 LINE",
"51 0 LINE",
"744 0 LINE SMOOTH",
"881 0 OFFCURVE",
"950 55 OFFCURVE",
"950 143 CURVE SMOOTH",
"950 229 OFFCURVE",
"889 279 OFFCURVE",
"752 278 CURVE"
);
},
{
closed = 1;
nodes = (
"819 424 LINE",
"819 280 LINE",
"927 280 LINE",
"927 520 LINE",
"51 520 LINE",
"51 424 LINE"
);
},
{
closed = 1;
nodes = (
"326 53 LINE",
"326 464 LINE",
"203 464 LINE",
"203 53 LINE"
);
}
);
width = 962;
}
);
leftKerningGroup = H;
leftMetricsKey = "=H";
rightKerningGroup = "Be-cy";
unicode = 0411;
},
{
glyphname = "De-cy";
layers = (
{
layerId = "C70E3B11-AF58-44B6-92D7-58C9185F522D";
name = "Bold Extended";
paths = (
{
closed = 1;
nodes = (
"819 13 LINE",
"617 461 LINE SMOOTH",
"331 461 LINE",
"131 13 LINE",
"251 13 LINE",
"442 453 LINE",
"504 453 LINE",
"695 13 LINE"
);
},
{
closed = 1;
nodes = (
"254 -121 LINE",
"247 13 LINE",
"131 13 LINE",
"152 -121 LINE"
);
},
{
closed = 1;
nodes = (
"759 0 LINE",
"759 97 LINE",
"176 97 LINE",
"176 0 LINE"
);
},
{
closed = 1;
nodes = (
"797 -121 LINE",
"819 13 LINE",
"699 13 LINE",
"695 -121 LINE"
);
},
{
closed = 1;
nodes = (
"738 424 LINE",
"738 520 LINE",
"208 520 LINE",
"208 424 LINE"
);
}
);
width = 948;
}
);
leftKerningGroup = "De-cy";
rightKerningGroup = "De-cy";
unicode = 0414;
},
{
color = 0;
glyphname = "Zhe-cy";
layers = (
{
layerId = "C70E3B11-AF58-44B6-92D7-58C9185F522D";
name = "Bold Extended";
paths = (
{
closed = 1;
nodes = (
"848 0 LINE SMOOTH",
"848 96 LINE SMOOTH",
"525 96 LINE SMOOTH",
"525 0 LINE SMOOTH"
);
},
{
closed = 1;
nodes = (
"749 53 LINE SMOOTH",
"749 464 LINE SMOOTH",
"627 464 LINE SMOOTH",
"627 53 LINE SMOOTH"
);
},
{
closed = 1;
nodes = (
"848 424 LINE SMOOTH",
"848 520 LINE SMOOTH",
"525 520 LINE SMOOTH",
"525 424 LINE SMOOTH"
);
},
{
closed = 1;
nodes = (
"519 223 LINE",
"636 260 LINE",
"309 442 LINE",
"148 442 LINE"
);
},
{
closed = 1;
nodes = (
"283 72 LINE",
"637 260 LINE",
"524 291 LINE",
"144 72 LINE"
);
},
{
closed = 1;
nodes = (
"421 424 LINE SMOOTH",
"421 520 LINE SMOOTH",
"74 520 LINE SMOOTH",
"74 424 LINE SMOOTH"
);
},
{
closed = 1;
nodes = (
"421 0 LINE SMOOTH",
"421 96 LINE SMOOTH",
"74 96 LINE SMOOTH",
"74 0 LINE SMOOTH"
);
},
{
closed = 1;
nodes = (
"1067 78 LINE",
"1228 78 LINE",
"857 297 LINE",
"740 260 LINE"
);
},
{
closed = 1;
nodes = (
"1233 448 LINE",
"1094 448 LINE",
"740 260 LINE",
"852 229 LINE"
);
},
{
closed = 1;
nodes = (
"1302 0 LINE SMOOTH",
"1302 95 LINE SMOOTH",
"955 95 LINE SMOOTH",
"955 0 LINE SMOOTH"
);
},
{
closed = 1;
nodes = (
"1302 424 LINE SMOOTH",
"1302 520 LINE SMOOTH",
"955 520 LINE SMOOTH",
"955 424 LINE SMOOTH"
);
}
);
width = 1376;
}
);
leftKerningGroup = "Zhe-cy";
rightKerningGroup = "Zhe-cy";
unicode = 0416;
},
{
glyphname = "Ef-cy";
layers = (
{
layerId = "C70E3B11-AF58-44B6-92D7-58C9185F522D";
name = "Bold Extended";
paths = (
{
closed = 1;
nodes = (
"750 48 OFFCURVE",
"885 105 OFFCURVE",
"885 241 CURVE SMOOTH",
"885 364 OFFCURVE",
"750 433 OFFCURVE",
"466 433 CURVE SMOOTH",
"181 433 OFFCURVE",
"46 364 OFFCURVE",
"46 241 CURVE SMOOTH",
"46 105 OFFCURVE",
"181 48 OFFCURVE",
"466 48 CURVE SMOOTH"
);
},
{
closed = 1;
nodes = (
"667 -85 LINE SMOOTH",
"667 11 LINE SMOOTH",
"265 11 LINE SMOOTH",
"265 -85 LINE SMOOTH"
);
},
{
closed = 1;
nodes = (
"235 122 OFFCURVE",
"173 162 OFFCURVE",
"173 241 CURVE SMOOTH",
"173 307 OFFCURVE",
"235 359 OFFCURVE",
"465 359 CURVE SMOOTH",
"695 359 OFFCURVE",
"757 307 OFFCURVE",
"757 241 CURVE SMOOTH",
"757 162 OFFCURVE",
"695 122 OFFCURVE",
"465 122 CURVE SMOOTH"
);
},
{
closed = 1;
nodes = (
"525 -38 LINE SMOOTH",
"525 504 LINE SMOOTH",
"407 504 LINE SMOOTH",
"407 -38 LINE SMOOTH"
);
},
{
closed = 1;
nodes = (
"667 464 LINE SMOOTH",
"667 560 LINE SMOOTH",
"265 560 LINE SMOOTH",
"265 464 LINE SMOOTH"
);
}
);
width = 930;
}
);
leftKerningGroup = Phi;
rightKerningGroup = Phi;
unicode = 0424;
},
{
glyphname = zero;
layers = (
{
layerId = "C70E3B11-AF58-44B6-92D7-58C9185F522D";
name = "Bold Extended";
paths = (
{
closed = 1;
nodes = (
"614 -10 OFFCURVE",
"822 55 OFFCURVE",
"822 235 CURVE",
"822 409 OFFCURVE",
"621 480 OFFCURVE",
"432 480 CURVE SMOOTH",
"250 480 OFFCURVE",
"42 409 OFFCURVE",
"42 235 CURVE",
"42 55 OFFCURVE",
"242 -10 OFFCURVE",
"432 -10 CURVE"
);
},
{
closed = 1;
nodes = (
"290 79 OFFCURVE",
"167 125 OFFCURVE",
"167 235 CURVE",
"167 338 OFFCURVE",
"297 391 OFFCURVE",
"432 391 CURVE SMOOTH",
"576 391 OFFCURVE",
"698 338 OFFCURVE",
"698 235 CURVE",
"698 125 OFFCURVE",
"568 79 OFFCURVE",
"432 79 CURVE SMOOTH"
);
},
{
closed = 1;
nodes = (
"483 168 OFFCURVE",
"510 195 OFFCURVE",
"510 232 CURVE",
"510 273 OFFCURVE",
"483 299 OFFCURVE",
"431 299 CURVE",
"381 299 OFFCURVE",
"351 273 OFFCURVE",
"351 232 CURVE",
"351 195 OFFCURVE",
"381 168 OFFCURVE",
"431 168 CURVE"
);
}
);
width = 863;
}
);
leftKerningGroup = zero;
rightKerningGroup = zero;
unicode = 0030;
},
{
glyphname = one;
layers = (
{
layerId = "C70E3B11-AF58-44B6-92D7-58C9185F522D";
name = "Bold Extended";
paths = (
{
closed = 1;
nodes = (
"193 279 OFFCURVE",
"242 313 OFFCURVE",
"281 389 CURVE",
"250 468 LINE",
"213 394 OFFCURVE",
"149 371 OFFCURVE",
"64 349 CURVE",
"101 250 LINE"
);
},
{
closed = 1;
nodes = (
"505 0 LINE",
"505 96 LINE",
"76 96 LINE",
"76 0 LINE"
);
},
{
closed = 1;
nodes = (
"366 30 LINE",
"366 468 LINE",
"250 468 LINE",
"250 30 LINE"
);
}
);
width = 523;
}
);
leftKerningGroup = one;
rightKerningGroup = one;
unicode = 0031;
},
{
glyphname = two;
layers = (
{
layerId = "C70E3B11-AF58-44B6-92D7-58C9185F522D";
name = "Bold Extended";
paths = (
{
closed = 1;
nodes = (
"675 0 LINE",
"675 210 LINE",
"579 210 LINE",
"579 96 LINE",
"42 96 LINE",
"42 0 LINE"
);
},
{
closed = 1;
nodes = (
"666 424 OFFCURVE",
"527 481 OFFCURVE",
"384 480 CURVE SMOOTH",
"246 479 OFFCURVE",
"110 425 OFFCURVE",
"37 344 CURVE",
"98 277 LINE",
"166 342 OFFCURVE",
"276 383 OFFCURVE",
"377 383 CURVE SMOOTH",
"476 383 OFFCURVE",
"547 355 OFFCURVE",
"547 317 CURVE SMOOTH",
"546 277 OFFCURVE",
"496 279 OFFCURVE",
"325 264 CURVE SMOOTH",
"96 232 OFFCURVE",
"42 166 OFFCURVE",
"42 84 CURVE",
"159 84 LINE",
"159 127 OFFCURVE",
"184 157 OFFCURVE",
"375 174 CURVE SMOOTH",
"562 194 OFFCURVE",
"666 222 OFFCURVE",
"666 318 CURVE SMOOTH"
);
}
);
width = 731;
}
);
leftKerningGroup = two;
rightKerningGroup = two;
unicode = 0032;
},
{
glyphname = three;
layers = (
{
layerId = "C70E3B11-AF58-44B6-92D7-58C9185F522D";
name = "Bold Extended";
paths = (
{
closed = 1;
nodes = (
"570 -5 OFFCURVE",
"705 48 OFFCURVE",
"705 124 CURVE SMOOTH",
"705 234 OFFCURVE",
"563 250 OFFCURVE",
"349 250 CURVE",
"349 214 LINE",
"527 213 OFFCURVE",
"676 262 OFFCURVE",
"676 347 CURVE SMOOTH",
"676 431 OFFCURVE",
"578 480 OFFCURVE",
"400 480 CURVE SMOOTH",
"267 480 OFFCURVE",
"128 437 OFFCURVE",
"46 387 CURVE",
"99 308 LINE",
"180 353 OFFCURVE",
"287 383 OFFCURVE",
"394 383 CURVE SMOOTH",
"511 383 OFFCURVE",
"555 362 OFFCURVE",
"555 335 CURVE SMOOTH",
"555 298 OFFCURVE",
"490 277 OFFCURVE",
"326 277 CURVE SMOOTH",
"168 277 LINE",
"168 190 LINE",
"326 190 LINE SMOOTH",
"520 190 OFFCURVE",
"584 182 OFFCURVE",
"584 137 CURVE SMOOTH",
"584 108 OFFCURVE",
"506 91 OFFCURVE",
"381 91 CURVE SMOOTH",
"234 91 OFFCURVE",
"123 130 OFFCURVE",
"87 155 CURVE",
"46 70 LINE",
"81 50 OFFCURVE",
"191 -5 OFFCURVE",
"381 -5 CURVE SMOOTH"
);
}
);
width = 758;
}
);
leftKerningGroup = three;
rightKerningGroup = three;
unicode = 0033;
},
{
glyphname = four;
layers = (
{
layerId = "C70E3B11-AF58-44B6-92D7-58C9185F522D";
name = "Bold Extended";
paths = (
{
closed = 1;
nodes = (
"584 480 LINE",
"462 480 LINE",
"19 197 LINE",
"109 156 LINE"
);
},
{
closed = 1;
nodes = (
"713 101 LINE",
"713 197 LINE",
"19 197 LINE",
"19 101 LINE"
);
},
{
closed = 1;
nodes = (
"462 -10 LINE",
"577 -10 LINE",
"577 480 LINE",
"462 480 LINE"
);
}
);
width = 728;
}
);
leftKerningGroup = four;
rightKerningGroup = four;
unicode = 0034;
},
{
glyphname = five;
layers = (
{
layerId = "C70E3B11-AF58-44B6-92D7-58C9185F522D";
name = "Bold Extended";
paths = (
{
closed = 1;
nodes = (
"106 372 LINE",
"640 372 LINE",
"640 470 LINE",
"106 470 LINE"
);
},
{
closed = 1;
nodes = (
"658 256 OFFCURVE",
"535 299 OFFCURVE",
"378 301 CURVE SMOOTH",
"253 303 OFFCURVE",
"148 280 OFFCURVE",
"77 268 CURVE",
"77 177 LINE",
"148 183 OFFCURVE",
"230 205 OFFCURVE",
"352 204 CURVE SMOOTH",
"491 205 OFFCURVE",
"539 179 OFFCURVE",
"539 144 CURVE SMOOTH",
"539 94 OFFCURVE",
"454 75 OFFCURVE",
"362 75 CURVE SMOOTH",
"243 75 OFFCURVE",
"136 113 OFFCURVE",
"75 153 CURVE",
"34 59 LINE",
"85 29 OFFCURVE",
"192 -16 OFFCURVE",
"361 -22 CURVE SMOOTH",
"527 -30 OFFCURVE",
"658 48 OFFCURVE",
"658 144 CURVE SMOOTH"
);
},
{
closed = 1;
nodes = (
"77 219 LINE",
"193 248 LINE",
"193 470 LINE",
"77 470 LINE"
);
}
);
width = 713;
}
);
leftKerningGroup = five;
rightKerningGroup = five;
unicode = 0035;
},
{
glyphname = six;
layers = (
{
layerId = "C70E3B11-AF58-44B6-92D7-58C9185F522D";
name = "Bold Extended";
paths = (
{
closed = 1;
nodes = (
"557 -11 OFFCURVE",
"689 59 OFFCURVE",
"689 152 CURVE SMOOTH",
"689 259 OFFCURVE",
"576 312 OFFCURVE",
"412 313 CURVE SMOOTH",
"275 313 OFFCURVE",
"179 286 OFFCURVE",
"108 257 CURVE",
"112 170 LINE",
"180 194 OFFCURVE",
"284 217 OFFCURVE",
"400 216 CURVE SMOOTH",
"519 215 OFFCURVE",
"573 194 OFFCURVE",
"574 151 CURVE SMOOTH",
"574 106 OFFCURVE",
"493 87 OFFCURVE",
"385 87 CURVE SMOOTH",
"244 87 OFFCURVE",
"163 134 OFFCURVE",
"163 217 CURVE SMOOTH",
"163 313 OFFCURVE",
"269 382 OFFCURVE",
"423 382 CURVE SMOOTH",
"504 382 OFFCURVE",
"564 370 OFFCURVE",
"615 357 CURVE",
"647 448 LINE",
"592 464 OFFCURVE",
"530 478 OFFCURVE",
"417 478 CURVE SMOOTH",
"186 478 OFFCURVE",
"47 358 OFFCURVE",
"47 217 CURVE SMOOTH",
"47 74 OFFCURVE",
"164 -9 OFFCURVE",
"385 -10 CURVE SMOOTH"
);
}
);
width = 725;
}
);
leftKerningGroup = six;
rightKerningGroup = six;
unicode = 0036;
},
{
glyphname = seven;
layers = (
{
layerId = "C70E3B11-AF58-44B6-92D7-58C9185F522D";
name = "Bold Extended";
paths = (
{
closed = 1;
nodes = (
"207 37 LINE",
"294 -11 LINE",
"708 371 LINE",
"591 377 LINE"
);
},
{
closed = 1;
nodes = (
"44 467 LINE",
"44 220 LINE",
"140 220 LINE",
"140 371 LINE",
"708 371 LINE",
"708 467 LINE"
);
}
);
width = 726;
}
);
leftKerningGroup = seven;
rightKerningGroup = seven;
unicode = 0037;
},
{
glyphname = eight;
layers = (
{
layerId = "C70E3B11-AF58-44B6-92D7-58C9185F522D";
name = "Bold Extended";
paths = (
{
closed = 1;
nodes = (
"629 -10 OFFCURVE",
"735 69 OFFCURVE",
"735 148 CURVE SMOOTH",
"735 215 OFFCURVE",
"648 283 OFFCURVE",
"401 287 CURVE SMOOTH",
"255 280 OFFCURVE",
"187 283 OFFCURVE",
"187 327 CURVE SMOOTH",
"187 366 OFFCURVE",
"266 385 OFFCURVE",
"394 385 CURVE SMOOTH",
"541 385 OFFCURVE",
"614 363 OFFCURVE",
"614 317 CURVE SMOOTH",
"614 265 OFFCURVE",
"543 247 OFFCURVE",
"472 220 CURVE",
"577 213 LINE",
"647 228 OFFCURVE",
"728 252 OFFCURVE",
"728 329 CURVE SMOOTH",
"728 410 OFFCURVE",
"615 481 OFFCURVE",
"396 481 CURVE SMOOTH",
"179 481 OFFCURVE",
"73 402 OFFCURVE",
"73 333 CURVE SMOOTH",
"73 252 OFFCURVE",
"150 195 OFFCURVE",
"399 190 CURVE SMOOTH",
"551 203 OFFCURVE",
"621 178 OFFCURVE",
"621 142 CURVE SMOOTH",
"621 105 OFFCURVE",
"542 86 OFFCURVE",
"407 86 CURVE SMOOTH",
"258 86 OFFCURVE",
"166 103 OFFCURVE",
"166 149 CURVE SMOOTH",
"166 191 OFFCURVE",
"238 218 OFFCURVE",
"302 246 CURVE",
"193 253 LINE",
"130 237 OFFCURVE",
"52 204 OFFCURVE",
"52 137 CURVE SMOOTH",
"52 55 OFFCURVE",
"159 -10 OFFCURVE",
"405 -10 CURVE SMOOTH"
);
}
);
width = 786;
}
);
leftKerningGroup = eight;
rightKerningGroup = eight;
unicode = 0038;
},
{
glyphname = nine;
layers = (
{
layerId = "C70E3B11-AF58-44B6-92D7-58C9185F522D";
name = "Bold Extended";
paths = (
{
closed = 1;
nodes = (
"540 -10 OFFCURVE",
"679 100 OFFCURVE",
"679 246 CURVE SMOOTH",
"679 395 OFFCURVE",
"562 477 OFFCURVE",
"341 478 CURVE SMOOTH",
"169 479 OFFCURVE",
"37 409 OFFCURVE",
"37 316 CURVE SMOOTH",
"37 209 OFFCURVE",
"150 156 OFFCURVE",
"314 155 CURVE SMOOTH",
"451 155 OFFCURVE",
"547 182 OFFCURVE",
"618 211 CURVE",
"614 298 LINE",
"546 274 OFFCURVE",
"442 251 OFFCURVE",
"326 252 CURVE SMOOTH",
"207 253 OFFCURVE",
"153 274 OFFCURVE",
"152 317 CURVE SMOOTH",
"152 362 OFFCURVE",
"233 381 OFFCURVE",
"341 381 CURVE SMOOTH",
"482 381 OFFCURVE",
"563 335 OFFCURVE",
"563 246 CURVE SMOOTH",
"563 145 OFFCURVE",
"457 86 OFFCURVE",
"303 86 CURVE SMOOTH",
"222 86 OFFCURVE",
"162 98 OFFCURVE",
"111 111 CURVE",
"79 20 LINE",
"134 4 OFFCURVE",
"196 -10 OFFCURVE",
"309 -10 CURVE SMOOTH"
);
}
);
width = 725;
}
);
leftKerningGroup = nine;
rightKerningGroup = nine;
unicode = 0039;
},
{
glyphname = two.alt;
layers = (
{
layerId = "C70E3B11-AF58-44B6-92D7-58C9185F522D";
name = "Bold Extended";
paths = (
{
closed = 1;
nodes = (
"437 173 LINE SMOOTH",
"574 217 OFFCURVE",
"629 256 OFFCURVE",
"629 323 CURVE SMOOTH",
"629 417 OFFCURVE",
"527 480 OFFCURVE",
"363 480 CURVE SMOOTH",
"236 480 OFFCURVE",
"95 436 OFFCURVE",
"23 337 CURVE",
"89 266 LINE",
"152 351 OFFCURVE",
"256 384 OFFCURVE",
"357 384 CURVE SMOOTH",
"465 384 OFFCURVE",
"508 342 OFFCURVE",
"508 311 CURVE SMOOTH",
"508 283 OFFCURVE",
"474 270 OFFCURVE",
"381 244 CURVE SMOOTH",
"6 96 LINE",
"74 48 LINE"
);
},
{
closed = 1;
nodes = (
"655 0 LINE",
"655 210 LINE",
"559 210 LINE",
"559 96 LINE",
"7 96 LINE",
"7 0 LINE"
);
}
);
width = 704;
}
);
leftKerningGroup = two.alt;
rightKerningGroup = two.alt;
},
{
glyphname = seven.alt;
layers = (
{
layerId = "C70E3B11-AF58-44B6-92D7-58C9185F522D";
name = "Bold Extended";
paths = (
{
closed = 1;
nodes = (
"74 226 LINE",
"168 226 LINE",
"168 376 LINE",
"604 376 LINE",
"604 322 OFFCURVE",
"513 297 OFFCURVE",
"345 248 CURVE SMOOTH",
"157 182 OFFCURVE",
"130 72 OFFCURVE",
"129 0 CURVE",
"232 0 LINE",
"232 52 OFFCURVE",
"259 132 OFFCURVE",
"430 190 CURVE SMOOTH",
"591 239 OFFCURVE",
"711 285 OFFCURVE",
"711 391 CURVE SMOOTH",
"711 472 LINE",
"74 472 LINE"
);
}
);
width = 735;
}
);
leftKerningGroup = seven.alt;
rightKerningGroup = seven.alt;
},
{
glyphname = fraction;
layers = (
{
layerId = "C70E3B11-AF58-44B6-92D7-58C9185F522D";
name = "Bold Extended";
paths = (
{
closed = 1;
nodes = (
"-114 -52 LINE",
"-40 -85 LINE",
"135 227 LINE",
"330 527 LINE",
"256 560 LINE",
"81 249 LINE"
);
}
);
width = 205;
}
);
leftKerningGroup = fraction;
rightKerningGroup = fraction;
unicode = 2044;
},
{
glyphname = two.dnom;
layers = (
{
layerId = "C70E3B11-AF58-44B6-92D7-58C9185F522D";
name = "Bold Extended";
paths = (
{
closed = 1;
nodes = (
"274 105 LINE SMOOTH",
"331 126 OFFCURVE",
"369 146 OFFCURVE",
"369 192 CURVE SMOOTH",
"369 246 OFFCURVE",
"311 282 OFFCURVE",
"221 282 CURVE SMOOTH",
"146 282 OFFCURVE",
"79 256 OFFCURVE",
"26 216 CURVE",
"66 170 LINE",
"110 201 OFFCURVE",
"164 221 OFFCURVE",
"216 221 CURVE SMOOTH",
"270 221 OFFCURVE",
"292 202 OFFCURVE",
"292 186 CURVE SMOOTH",
"292 166 OFFCURVE",
"247 154 OFFCURVE",
"225 149 CURVE SMOOTH",
"23 61 LINE",
"70 28 LINE"
);
},
{
closed = 1;
nodes = (
"385 0 LINE",
"385 111 LINE",
"330 111 LINE",
"330 61 LINE",
"24 61 LINE",
"24 0 LINE"
);
}
);
width = 416;
}
);
leftKerningGroup = two.dnom;
rightKerningGroup = two.dnom;
},
{
glyphname = four.dnom;
layers = (
{
layerId = "C70E3B11-AF58-44B6-92D7-58C9185F522D";
name = "Bold Extended";
paths = (
{
closed = 1;
nodes = (
"344 279 LINE",
"259 279 LINE",
"18 115 LINE",
"76 91 LINE"
);
},
{
closed = 1;
nodes = (
"419 47 LINE",
"419 115 LINE",
"18 115 LINE",
"18 47 LINE"
);
},
{
closed = 1;
nodes = (
"259 -9 LINE",
"339 -9 LINE",
"339 279 LINE",
"259 279 LINE"
);
}
);
width = 398;
}
);
leftKerningGroup = four.dnom;
rightKerningGroup = four.dnom;
},
{
glyphname = one.numr;
layers = (
{
layerId = "C70E3B11-AF58-44B6-92D7-58C9185F522D";
name = "Bold Extended";
paths = (
{
closed = 1;
nodes = (
"116 354 OFFCURVE",
"149 388 OFFCURVE",
"177 433 CURVE",
"147 479 LINE",
"126 435 OFFCURVE",
"87 422 OFFCURVE",
"38 409 CURVE",
"60 342 LINE"
);
},
{
closed = 1;
nodes = (
"310 204 LINE",
"310 268 LINE",
"46 268 LINE",
"46 204 LINE"
);
},
{
closed = 1;
nodes = (
"227 234 LINE",
"227 479 LINE",
"147 479 LINE",
"147 234 LINE"
);
}
);
width = 316;
}
);
leftKerningGroup = one.numr;
rightKerningGroup = one.numr;
},
{
glyphname = three.numr;
layers = (
{
layerId = "C70E3B11-AF58-44B6-92D7-58C9185F522D";
name = "Bold Extended";
paths = (
{
closed = 1;
nodes = (
"334 194 OFFCURVE",
"413 223 OFFCURVE",
"413 270 CURVE SMOOTH",
"413 339 OFFCURVE",
"330 344 OFFCURVE",
"220 344 CURVE",
"220 324 LINE",
"309 323 OFFCURVE",
"397 347 OFFCURVE",
"397 400 CURVE SMOOTH",
"397 451 OFFCURVE",
"339 480 OFFCURVE",
"242 480 CURVE SMOOTH",
"164 480 OFFCURVE",
"87 454 OFFCURVE",
"40 424 CURVE",
"75 377 LINE",
"125 402 OFFCURVE",
"180 421 OFFCURVE",
"239 421 CURVE SMOOTH",
"289 421 OFFCURVE",
"322 409 OFFCURVE",
"322 393 CURVE SMOOTH",
"322 366 OFFCURVE",
"283 363 OFFCURVE",
"196 363 CURVE SMOOTH",
"106 363 LINE",
"106 306 LINE",
"196 306 LINE SMOOTH",
"299 306 OFFCURVE",
"338 310 OFFCURVE",
"338 279 CURVE SMOOTH",
"338 259 OFFCURVE",
"287 252 OFFCURVE",
"228 252 CURVE SMOOTH",
"148 252 OFFCURVE",
"92 274 OFFCURVE",
"68 286 CURVE",
"38 235 LINE",
"59 223 OFFCURVE",
"121 194 OFFCURVE",
"227 194 CURVE SMOOTH"
);
}
);
width = 445;
}
);
leftKerningGroup = three.numr;
rightKerningGroup = three.numr;
},
{
glyphname = asterisk;
layers = (
{
layerId = "C70E3B11-AF58-44B6-92D7-58C9185F522D";
name = "Bold Extended";
paths = (
{
closed = 1;
nodes = (
"176 557 OFFCURVE",
"201 517 OFFCURVE",
"205 499 CURVE SMOOTH",
"208 485 LINE",
"251 485 LINE",
"255 499 LINE SMOOTH",
"258 515 OFFCURVE",
"288 557 OFFCURVE",
"288 578 CURVE SMOOTH",
"288 598 OFFCURVE",
"272 622 OFFCURVE",
"232 624 CURVE SMOOTH",
"188 622 OFFCURVE",
"176 598 OFFCURVE",
"176 578 CURVE SMOOTH"
);
},
{
closed = 1;
nodes = (
"286 438 LINE",
"303 440 LINE SMOOTH",
"321 440 OFFCURVE",
"357 431 OFFCURVE",
"385 435 CURVE SMOOTH",
"411 437 OFFCURVE",
"435 451 OFFCURVE",
"431 491 CURVE SMOOTH",
"424 527 OFFCURVE",
"400 539 OFFCURVE",
"377 538 CURVE SMOOTH",
"345 537 OFFCURVE",
"315 495 OFFCURVE",
"289 485 CURVE SMOOTH",
"273 477 LINE"
);
},
{
closed = 1;
nodes = (
"251 382 LINE SMOOTH",
"271 349 OFFCURVE",
"261 295 OFFCURVE",
"299 289 CURVE SMOOTH",
"309 284 OFFCURVE",
"329 281 OFFCURVE",
"354 298 CURVE SMOOTH",
"377 314 OFFCURVE",
"374 333 OFFCURVE",
"371 344 CURVE SMOOTH",
"369 377 OFFCURVE",
"313 390 OFFCURVE",
"290 412 CURVE SMOOTH",
"275 423 LINE",
"241 397 LINE"
);
},
{
closed = 1;
nodes = (
"170 412 LINE SMOOTH",
"148 390 OFFCURVE",
"91 377 OFFCURVE",
"88 344 CURVE SMOOTH",
"85 332 OFFCURVE",
"84 313 OFFCURVE",
"108 297 CURVE SMOOTH",
"133 280 OFFCURVE",
"151 284 OFFCURVE",
"160 289 CURVE SMOOTH",
"198 295 OFFCURVE",
"188 349 OFFCURVE",
"209 382 CURVE SMOOTH",
"218 397 LINE",
"186 423 LINE"
);
},
{
closed = 1;
nodes = (
"26 449 OFFCURVE",
"52 436 OFFCURVE",
"82 434 CURVE SMOOTH",
"109 431 OFFCURVE",
"143 440 OFFCURVE",
"158 440 CURVE SMOOTH",
"176 438 LINE",
"188 477 LINE",
"172 485 LINE SMOOTH",
"146 495 OFFCURVE",
"115 537 OFFCURVE",
"83 538 CURVE SMOOTH",
"60 539 OFFCURVE",
"37 527 OFFCURVE",
"30 491 CURVE SMOOTH"
);
}
);
width = 460;
}
);
leftKerningGroup = asterisk;
rightKerningGroup = asterisk;
unicode = 002A;
},
{
glyphname = backslash;
layers = (
{
layerId = "C70E3B11-AF58-44B6-92D7-58C9185F522D";
name = "Bold Extended";
paths = (
{
closed = 1;
nodes = (
"516 -79 LINE",
"124 561 LINE",
"19 561 LINE",
"411 -79 LINE"
);
}
);
width = 528;
}
);
leftKerningGroup = backslash;
rightKerningGroup = backslash;
unicode = 005C;
},
{
glyphname = periodcentered;
layers = (
{
layerId = "C70E3B11-AF58-44B6-92D7-58C9185F522D";
name = "Bold Extended";
paths = (
{
closed = 1;
nodes = (
"198 184 OFFCURVE",
"231 210 OFFCURVE",
"231 247 CURVE",
"231 286 OFFCURVE",
"198 314 OFFCURVE",
"144 314 CURVE",
"92 314 OFFCURVE",
"56 286 OFFCURVE",
"56 247 CURVE",
"56 210 OFFCURVE",
"92 184 OFFCURVE",
"144 184 CURVE"
);
}
);
width = 286;
}
);
leftKerningGroup = anoteleia;
rightKerningGroup = anoteleia;
unicode = 00B7;
},
{
glyphname = bullet;
layers = (
{
layerId = "C70E3B11-AF58-44B6-92D7-58C9185F522D";
name = "Bold Extended";
paths = (
{
closed = 1;
nodes = (
"311 138 OFFCURVE",
"366 183 OFFCURVE",
"366 244 CURVE",
"366 313 OFFCURVE",
"311 360 OFFCURVE",
"219 360 CURVE",
"133 360 OFFCURVE",
"71 313 OFFCURVE",
"71 244 CURVE",
"71 183 OFFCURVE",
"133 138 OFFCURVE",
"219 138 CURVE"
);
}
);
width = 436;
}
);
leftKerningGroup = bullet;
rightKerningGroup = bullet;
unicode = 2022;
},
{
glyphname = colon;
layers = (
{
layerId = "C70E3B11-AF58-44B6-92D7-58C9185F522D";
name = "Bold Extended";
paths = (
{
closed = 1;
nodes = (
"198 235 OFFCURVE",
"231 262 OFFCURVE",
"231 299 CURVE",
"231 338 OFFCURVE",
"198 365 OFFCURVE",
"144 365 CURVE",
"92 365 OFFCURVE",
"56 338 OFFCURVE",
"56 299 CURVE",
"56 262 OFFCURVE",
"92 235 OFFCURVE",
"144 235 CURVE"
);
},
{
closed = 1;
nodes = (
"198 -10 OFFCURVE",
"231 17 OFFCURVE",
"231 54 CURVE",
"231 94 OFFCURVE",
"198 120 OFFCURVE",
"144 120 CURVE",
"92 120 OFFCURVE",
"56 94 OFFCURVE",
"56 54 CURVE",
"56 17 OFFCURVE",
"92 -10 OFFCURVE",
"144 -10 CURVE"
);
}
);
width = 286;
}
);
leftKerningGroup = colon;
rightKerningGroup = colon;
unicode = 003A;
},
{
glyphname = comma;
layers = (
{
layerId = "C70E3B11-AF58-44B6-92D7-58C9185F522D";
name = "Bold Extended";
paths = (
{
closed = 1;
nodes = (
"243 69 OFFCURVE",
"210 100 OFFCURVE",
"155 100 CURVE SMOOTH",
"103 100 OFFCURVE",
"68 79 OFFCURVE",
"68 44 CURVE SMOOTH",
"68 13 OFFCURVE",
"96 -10 OFFCURVE",
"139 -10 CURVE SMOOTH",
"154 -10 OFFCURVE",
"173 -8 OFFCURVE",
"182 -5 CURVE",
"178 -43 OFFCURVE",
"130 -82 OFFCURVE",
"88 -120 CURVE",
"117 -149 LINE",
"179 -100 OFFCURVE",
"243 -41 OFFCURVE",
"243 14 CURVE SMOOTH"
);
}
);
width = 306;
}
);
leftKerningGroup = period;
rightKerningGroup = period;
unicode = 002C;
},
{
glyphname = ellipsis;
layers = (
{
layerId = "C70E3B11-AF58-44B6-92D7-58C9185F522D";
name = "Bold Extended";
paths = (
{
closed = 1;
nodes = (
"770 -10 OFFCURVE",
"803 17 OFFCURVE",
"803 54 CURVE",
"803 94 OFFCURVE",
"770 120 OFFCURVE",
"716 120 CURVE",
"664 120 OFFCURVE",
"628 94 OFFCURVE",
"628 54 CURVE",
"628 17 OFFCURVE",
"664 -10 OFFCURVE",
"716 -10 CURVE"
);
},
{
closed = 1;
nodes = (
"198 -10 OFFCURVE",
"231 17 OFFCURVE",
"231 54 CURVE",
"231 94 OFFCURVE",
"198 120 OFFCURVE",
"144 120 CURVE",
"92 120 OFFCURVE",
"56 94 OFFCURVE",
"56 54 CURVE",
"56 17 OFFCURVE",
"92 -10 OFFCURVE",
"144 -10 CURVE"
);
},
{
closed = 1;
nodes = (
"484 -10 OFFCURVE",
"517 17 OFFCURVE",
"517 54 CURVE",
"517 94 OFFCURVE",
"484 120 OFFCURVE",
"430 120 CURVE",
"378 120 OFFCURVE",
"342 94 OFFCURVE",
"342 54 CURVE",
"342 17 OFFCURVE",
"378 -10 OFFCURVE",
"430 -10 CURVE"
);
}
);
width = 859;
}
);
leftKerningGroup = period;
rightKerningGroup = period;
unicode = 2026;
},
{
glyphname = exclam;
layers = (
{
layerId = "C70E3B11-AF58-44B6-92D7-58C9185F522D";
name = "Bold Extended";
paths = (
{
closed = 1;
nodes = (
"181 149 LINE",
"192 260 LINE SMOOTH",
"203 367 OFFCURVE",
"241 447 OFFCURVE",
"241 493 CURVE",
"241 533 OFFCURVE",
"219 572 OFFCURVE",
"156 572 CURVE",
"93 572 OFFCURVE",
"72 533 OFFCURVE",
"72 493 CURVE",
"72 447 OFFCURVE",
"103 365 OFFCURVE",
"122 260 CURVE SMOOTH",
"133 149 LINE"
);
},
{
closed = 1;
nodes = (
"104 120 OFFCURVE",
"68 94 OFFCURVE",
"68 54 CURVE",
"68 17 OFFCURVE",
"104 -10 OFFCURVE",
"156 -10 CURVE",
"210 -10 OFFCURVE",
"243 17 OFFCURVE",
"243 54 CURVE",
"243 94 OFFCURVE",
"210 120 OFFCURVE",
"156 120 CURVE"
);
}
);
width = 311;
}
);
leftKerningGroup = exclam;
rightKerningGroup = exclam;
unicode = 0021;
},
{
glyphname = numbersign;
layers = (
{
layerId = "C70E3B11-AF58-44B6-92D7-58C9185F522D";
name = "Bold Extended";
paths = (
{
closed = 1;
nodes = (
"700 490 LINE",
"602 490 LINE",
"424 0 LINE",
"521 0 LINE"
);
},
{
closed = 1;
nodes = (
"406 490 LINE",
"308 490 LINE",
"130 0 LINE",
"227 0 LINE"
);
},
{
closed = 1;
nodes = (
"67 287 LINE",
"815 287 LINE",
"815 373 LINE",
"67 373 LINE"
);
},
{
closed = 1;
nodes = (
"18 109 LINE",
"766 109 LINE",
"766 196 LINE",
"18 196 LINE"
);
}
);
width = 832;
}
);
leftKerningGroup = numbersign;
rightKerningGroup = numbersign;
unicode = 0023;
},
{
glyphname = period;
layers = (
{
layerId = "C70E3B11-AF58-44B6-92D7-58C9185F522D";
name = "Bold Extended";
paths = (
{
closed = 1;
nodes = (
"198 -10 OFFCURVE",
"231 17 OFFCURVE",
"231 54 CURVE",
"231 94 OFFCURVE",
"198 120 OFFCURVE",
"144 120 CURVE",
"92 120 OFFCURVE",
"56 94 OFFCURVE",
"56 54 CURVE",
"56 17 OFFCURVE",
"92 -10 OFFCURVE",
"144 -10 CURVE"
);
}
);
width = 286;
}
);
leftKerningGroup = period;
rightKerningGroup = period;
unicode = 002E;
},
{
glyphname = question;
layers = (
{
layerId = "C70E3B11-AF58-44B6-92D7-58C9185F522D";
name = "Bold Extended";
paths = (
{
closed = 1;
nodes = (
"282 -10 OFFCURVE",
"312 15 OFFCURVE",
"312 49 CURVE",
"312 86 OFFCURVE",
"282 110 OFFCURVE",
"231 110 CURVE",
"183 110 OFFCURVE",
"149 86 OFFCURVE",
"149 49 CURVE",
"149 15 OFFCURVE",
"183 -10 OFFCURVE",
"231 -10 CURVE"
);
},
{
closed = 1;
nodes = (
"123 395 LINE",
"164 413 OFFCURVE",
"215 429 OFFCURVE",
"270 429 CURVE SMOOTH",
"333 429 OFFCURVE",
"367 405 OFFCURVE",
"367 378 CURVE SMOOTH",
"367 347 OFFCURVE",
"328 332 OFFCURVE",
"269 316 CURVE SMOOTH",
"193 293 OFFCURVE",
"139 278 OFFCURVE",
"139 239 CURVE SMOOTH",
"139 199 OFFCURVE",
"161 167 OFFCURVE",
"192 131 CURVE",
"228 144 LINE",
"225 156 OFFCURVE",
"220 167 OFFCURVE",
"220 183 CURVE SMOOTH",
"220 206 OFFCURVE",
"259 211 OFFCURVE",
"346 244 CURVE SMOOTH",
"424 272 OFFCURVE",
"495 313 OFFCURVE",
"495 382 CURVE SMOOTH",
"495 471 OFFCURVE",
"405 529 OFFCURVE",
"280 529 CURVE SMOOTH",
"205 529 OFFCURVE",
"143 512 OFFCURVE",
"90 488 CURVE"
);
}
);
width = 525;
}
);
leftKerningGroup = question;
rightKerningGroup = question;
unicode = 003F;
},
{
glyphname = quotedbl;
layers = (
{
layerId = "C70E3B11-AF58-44B6-92D7-58C9185F522D";
name = "Bold Extended";
paths = (
{
closed = 1;
nodes = (
"54 354 LINE",
"126 348 LINE",
"181 544 LINE",
"64 557 LINE"
);
},
{
closed = 1;
nodes = (
"252 353 LINE",
"324 347 LINE",
"379 543 LINE",
"262 557 LINE"
);
}
);
width = 417;
}
);
leftKerningGroup = quotedbl;
rightKerningGroup = quotedbl;
unicode = 0022;
},
{
glyphname = quotesingle;
layers = (
{
layerId = "C70E3B11-AF58-44B6-92D7-58C9185F522D";
name = "Bold Extended";
paths = (
{
closed = 1;
nodes = (
"54 360 LINE",
"125 347 LINE",
"201 536 LINE",
"86 562 LINE"
);
}
);
width = 239;
}
);
leftKerningGroup = quotesingle;
rightKerningGroup = quotesingle;
unicode = 0027;
},
{
glyphname = semicolon;
layers = (
{
layerId = "C70E3B11-AF58-44B6-92D7-58C9185F522D";
name = "Bold Extended";
paths = (
{
closed = 1;
nodes = (
"179 -110 OFFCURVE",
"243 -51 OFFCURVE",
"243 4 CURVE SMOOTH",
"243 59 OFFCURVE",
"210 90 OFFCURVE",
"155 90 CURVE SMOOTH",
"103 90 OFFCURVE",
"68 69 OFFCURVE",
"68 34 CURVE SMOOTH",
"68 3 OFFCURVE",
"96 -20 OFFCURVE",
"139 -20 CURVE SMOOTH",
"154 -20 OFFCURVE",
"173 -18 OFFCURVE",
"182 -15 CURVE",
"178 -53 OFFCURVE",
"130 -92 OFFCURVE",
"88 -130 CURVE",
"117 -159 LINE"
);
},
{
closed = 1;
nodes = (
"210 235 OFFCURVE",
"243 262 OFFCURVE",
"243 299 CURVE",
"243 339 OFFCURVE",
"210 365 OFFCURVE",
"156 365 CURVE",
"104 365 OFFCURVE",
"68 339 OFFCURVE",
"68 299 CURVE",
"68 262 OFFCURVE",
"104 235 OFFCURVE",
"156 235 CURVE"
);
}
);
width = 306;
}
);
leftKerningGroup = colon;
rightKerningGroup = colon;
unicode = 003B;
},
{
glyphname = slash;
layers = (
{
layerId = "C70E3B11-AF58-44B6-92D7-58C9185F522D";
name = "Bold Extended";
paths = (
{
closed = 1;
nodes = (
"516 561 LINE",
"411 561 LINE",
"17 -79 LINE",
"122 -79 LINE"
);
}
);
width = 551;
}
);
leftKerningGroup = slash;
rightKerningGroup = slash;
unicode = 002F;
},
{
glyphname = underscore;
layers = (
{
layerId = "C70E3B11-AF58-44B6-92D7-58C9185F522D";
name = "Bold Extended";
paths = (
{
closed = 1;
nodes = (
"-35 -68 LINE",
"-35 -164 LINE",
"434 -164 LINE",
"434 -68 LINE"
);
}
);
width = 399;
}
);
leftKerningGroup = underscore;
rightKerningGroup = underscore;
unicode = 005F;
},
{
glyphname = braceleft;
layers = (
{
layerId = "C70E3B11-AF58-44B6-92D7-58C9185F522D";
name = "Bold Extended";
paths = (
{
closed = 1;
nodes = (
"379 -155 OFFCURVE",
"440 -139 OFFCURVE",
"486 -126 CURVE",
"454 -37 LINE",
"418 -47 OFFCURVE",
"371 -58 OFFCURVE",
"324 -58 CURVE SMOOTH",
"261 -58 OFFCURVE",
"191 -43 OFFCURVE",
"191 2 CURVE SMOOTH",
"191 64 OFFCURVE",
"356 54 OFFCURVE",
"356 153 CURVE SMOOTH",
"356 229 OFFCURVE",
"266 260 OFFCURVE",
"166 260 CURVE",
"166 250 LINE",
"266 250 OFFCURVE",
"356 281 OFFCURVE",
"356 357 CURVE SMOOTH",
"356 456 OFFCURVE",
"191 446 OFFCURVE",
"191 508 CURVE SMOOTH",
"191 553 OFFCURVE",
"261 568 OFFCURVE",
"324 568 CURVE SMOOTH",
"371 568 OFFCURVE",
"418 555 OFFCURVE",
"454 547 CURVE",
"486 636 LINE",
"440 648 OFFCURVE",
"379 665 OFFCURVE",
"299 665 CURVE SMOOTH",
"181 665 OFFCURVE",
"80 611 OFFCURVE",
"80 518 CURVE SMOOTH",
"80 403 OFFCURVE",
"253 392 OFFCURVE",
"253 346 CURVE SMOOTH",
"253 304 OFFCURVE",
"207 297 OFFCURVE",
"127 297 CURVE SMOOTH",
"59 297 LINE",
"59 213 LINE",
"127 213 LINE SMOOTH",
"207 215 OFFCURVE",
"253 206 OFFCURVE",
"253 164 CURVE SMOOTH",
"253 116 OFFCURVE",
"80 108 OFFCURVE",
"80 -8 CURVE SMOOTH",
"80 -101 OFFCURVE",
"181 -155 OFFCURVE",
"299 -155 CURVE SMOOTH"
);
}
);
width = 469;
}
);
leftKerningGroup = braceleft;
rightKerningGroup = braceleft;
unicode = 007B;
},
{
glyphname = bracketleft;
layers = (
{
layerId = "C70E3B11-AF58-44B6-92D7-58C9185F522D";
name = "Bold Extended";
paths = (
{
closed = 1;
nodes = (
"131 -131 LINE",
"235 -131 LINE",
"235 649 LINE",
"131 649 LINE"
);
},
{
closed = 1;
nodes = (
"163 553 LINE",
"417 553 LINE",
"417 649 LINE",
"163 649 LINE"
);
},
{
closed = 1;
nodes = (
"163 -131 LINE",
"417 -131 LINE",
"417 -35 LINE",
"163 -35 LINE"
);
}
);
width = 401;
}
);
leftKerningGroup = bracketleft;
rightKerningGroup = bracketleft;
unicode = 005B;
},
{
glyphname = bracketright;
layers = (
{
layerId = "C70E3B11-AF58-44B6-92D7-58C9185F522D";
name = "Bold Extended";
paths = (
{
closed = 1;
nodes = (
"270 649 LINE",
"166 649 LINE",
"166 -131 LINE",
"270 -131 LINE"
);
},
{
closed = 1;
nodes = (
"238 -35 LINE",
"84 -35 LINE",
"-16 -131 LINE",
"138 -131 LINE"
);
},
{
closed = 1;
nodes = (
"238 649 LINE",
"84 649 LINE",
"-16 553 LINE",
"138 553 LINE"
);
}
);
width = 401;
}
);
leftKerningGroup = bracketright;
rightKerningGroup = bracketright;
unicode = 005D;
},
{
glyphname = parenleft;
layers = (
{
layerId = "C70E3B11-AF58-44B6-92D7-58C9185F522D";
name = "Bold Extended";
paths = (
{
closed = 1;
nodes = (
"388 -92 LINE",
"339 -84 OFFCURVE",
"159 28 OFFCURVE",
"159 255 CURVE SMOOTH",
"159 482 OFFCURVE",
"327 581 OFFCURVE",
"388 600 CURVE",
"365 645 LINE",
"244 617 OFFCURVE",
"48 503 OFFCURVE",
"48 255 CURVE SMOOTH",
"48 7 OFFCURVE",
"257 -119 OFFCURVE",
"365 -135 CURVE"
);
}
);
width = 363;
}
);
leftKerningGroup = parenleft;
rightKerningGroup = parenleft;
unicode = 0028;
},
{
glyphname = emdash;
layers = (
{
layerId = "C70E3B11-AF58-44B6-92D7-58C9185F522D";
name = "Bold Extended";
paths = (
{
closed = 1;
nodes = (
"22 228 LINE",
"22 130 LINE",
"865 130 LINE",
"865 228 LINE"
);
}
);
width = 887;
}
);
leftKerningGroup = hyphen;
rightKerningGroup = hyphen;
unicode = 2014;
},
{
glyphname = endash;
layers = (
{
layerId = "C70E3B11-AF58-44B6-92D7-58C9185F522D";
name = "Bold Extended";
paths = (
{
closed = 1;
nodes = (
"22 228 LINE",
"22 130 LINE",
"581 130 LINE",
"581 228 LINE"
);
}
);
width = 602;
}
);
leftKerningGroup = hyphen;
rightKerningGroup = hyphen;
unicode = 2013;
},
{
glyphname = hyphen;
layers = (
{
layerId = "C70E3B11-AF58-44B6-92D7-58C9185F522D";
name = "Bold Extended";
paths = (
{
closed = 1;
nodes = (
"22 228 LINE",
"22 130 LINE",
"310 130 LINE",
"310 228 LINE"
);
}
);
width = 332;
}
);
leftKerningGroup = hyphen;
rightKerningGroup = hyphen;
unicode = 002D;
},
{
glyphname = guillemetleft;
layers = (
{
layerId = "C70E3B11-AF58-44B6-92D7-58C9185F522D";
name = "Bold Extended";
paths = (
{
closed = 1;
nodes = (
"821 -11 LINE",
"767 89 OFFCURVE",
"681 188 OFFCURVE",
"470 188 CURVE",
"470 182 LINE",
"680 182 OFFCURVE",
"766 281 OFFCURVE",
"820 382 CURVE",
"731 420 LINE",
"685 325 OFFCURVE",
"617 234 OFFCURVE",
"450 234 CURVE SMOOTH",
"451 234 LINE",
"451 136 LINE",
"451 136 LINE SMOOTH",
"619 136 OFFCURVE",
"686 45 OFFCURVE",
"733 -50 CURVE"
);
},
{
closed = 1;
nodes = (
"471 -11 LINE",
"412 94 OFFCURVE",
"331 188 OFFCURVE",
"90 188 CURVE",
"90 182 LINE",
"330 182 OFFCURVE",
"411 276 OFFCURVE",
"470 382 CURVE",
"381 420 LINE",
"330 320 OFFCURVE",
"257 234 OFFCURVE",
"70 234 CURVE SMOOTH",
"61 234 LINE",
"61 136 LINE",
"71 136 LINE SMOOTH",
"259 136 OFFCURVE",
"331 50 OFFCURVE",
"383 -50 CURVE"
);
}
);
width = 891;
}
);
leftKerningGroup = guillemetleft;
rightKerningGroup = guillemetleft;
unicode = 00AB;
},
{
glyphname = guillemetright;
layers = (
{
layerId = "C70E3B11-AF58-44B6-92D7-58C9185F522D";
name = "Bold Extended";
paths = (
{
closed = 1;
nodes = (
"561 49 OFFCURVE",
"634 135 OFFCURVE",
"821 135 CURVE SMOOTH",
"830 135 LINE",
"830 232 LINE",
"820 232 LINE SMOOTH",
"632 232 OFFCURVE",
"560 318 OFFCURVE",
"508 418 CURVE",
"420 380 LINE",
"479 275 OFFCURVE",
"560 181 OFFCURVE",
"801 181 CURVE",
"801 187 LINE",
"561 187 OFFCURVE",
"481 92 OFFCURVE",
"421 -13 CURVE",
"510 -51 LINE"
);
},
{
closed = 1;
nodes = (
"206 44 OFFCURVE",
"284 135 OFFCURVE",
"441 135 CURVE SMOOTH",
"440 135 LINE",
"440 232 LINE",
"440 232 LINE SMOOTH",
"282 232 OFFCURVE",
"205 323 OFFCURVE",
"158 418 CURVE",
"70 380 LINE",
"124 280 OFFCURVE",
"210 181 OFFCURVE",
"421 181 CURVE",
"421 187 LINE",
"211 187 OFFCURVE",
"126 87 OFFCURVE",
"71 -13 CURVE",
"160 -51 LINE"
);
}
);
width = 891;
}
);
leftKerningGroup = guillemetright;
rightKerningGroup = guillemetright;
unicode = 00BB;
},
{
glyphname = guilsinglleft;
layers = (
{
layerId = "C70E3B11-AF58-44B6-92D7-58C9185F522D";
name = "Bold Extended";
paths = (
{
closed = 1;
nodes = (
"378 181 OFFCURVE",
"459 275 OFFCURVE",
"518 380 CURVE",
"430 419 LINE",
"379 319 OFFCURVE",
"293 233 OFFCURVE",
"96 233 CURVE SMOOTH",
"61 233 LINE",
"61 135 LINE",
"97 135 LINE SMOOTH",
"295 135 OFFCURVE",
"380 49 OFFCURVE",
"431 -51 CURVE",
"520 -13 LINE",
"460 93 OFFCURVE",
"379 187 OFFCURVE",
"126 187 CURVE",
"126 181 LINE"
);
}
);
width = 590;
}
);
leftKerningGroup = guillemotleft;
rightKerningGroup = guillemotleft;
unicode = 2039;
},
{
glyphname = guilsinglright;
layers = (
{
layerId = "C70E3B11-AF58-44B6-92D7-58C9185F522D";
name = "Bold Extended";
paths = (
{
closed = 1;
nodes = (
"211 49 OFFCURVE",
"297 135 OFFCURVE",
"493 135 CURVE SMOOTH",
"529 135 LINE",
"529 233 LINE",
"492 233 LINE SMOOTH",
"294 233 OFFCURVE",
"210 319 OFFCURVE",
"158 419 CURVE",
"70 380 LINE",
"129 275 OFFCURVE",
"210 181 OFFCURVE",
"463 181 CURVE",
"463 187 LINE",
"211 187 OFFCURVE",
"131 93 OFFCURVE",
"71 -13 CURVE",
"160 -51 LINE"
);
}
);
width = 590;
}
);
leftKerningGroup = guillemotright;
rightKerningGroup = guillemotright;
unicode = 203A;
},
{
glyphname = quotedblbase;
layers = (
{
layerId = "C70E3B11-AF58-44B6-92D7-58C9185F522D";
name = "Bold Extended";
paths = (
{
closed = 1;
nodes = (
"397 -102 OFFCURVE",
"461 -43 OFFCURVE",
"461 12 CURVE SMOOTH",
"461 67 OFFCURVE",
"428 98 OFFCURVE",
"373 98 CURVE SMOOTH",
"321 98 OFFCURVE",
"286 77 OFFCURVE",
"286 42 CURVE SMOOTH",
"286 11 OFFCURVE",
"314 -11 OFFCURVE",
"357 -11 CURVE SMOOTH",
"372 -11 OFFCURVE",
"391 -9 OFFCURVE",
"400 -7 CURVE",
"396 -45 OFFCURVE",
"348 -84 OFFCURVE",
"306 -122 CURVE",
"335 -151 LINE"
);
},
{
closed = 1;
nodes = (
"179 -99 OFFCURVE",
"243 -41 OFFCURVE",
"243 14 CURVE SMOOTH",
"243 70 OFFCURVE",
"210 101 OFFCURVE",
"155 101 CURVE SMOOTH",
"103 101 OFFCURVE",
"68 80 OFFCURVE",
"68 45 CURVE SMOOTH",
"68 13 OFFCURVE",
"96 -9 OFFCURVE",
"139 -9 CURVE SMOOTH",
"154 -9 OFFCURVE",
"173 -7 OFFCURVE",
"182 -5 CURVE",
"178 -42 OFFCURVE",
"130 -82 OFFCURVE",
"88 -119 CURVE",
"117 -148 LINE"
);
}
);
width = 524;
}
);
leftKerningGroup = period;
rightKerningGroup = period;
unicode = 201E;
},
{
glyphname = quotedblleft;
layers = (
{
layerId = "C70E3B11-AF58-44B6-92D7-58C9185F522D";
name = "Bold Extended";
paths = (
{
closed = 1;
nodes = (
"421 322 OFFCURVE",
"456 343 OFFCURVE",
"456 378 CURVE SMOOTH",
"456 408 OFFCURVE",
"428 431 OFFCURVE",
"385 431 CURVE SMOOTH",
"370 431 OFFCURVE",
"351 429 OFFCURVE",
"342 426 CURVE",
"346 464 OFFCURVE",
"394 504 OFFCURVE",
"435 542 CURVE",
"406 571 LINE",
"344 522 OFFCURVE",
"281 463 OFFCURVE",
"281 408 CURVE SMOOTH",
"281 353 OFFCURVE",
"313 322 OFFCURVE",
"369 322 CURVE SMOOTH"
);
},
{
closed = 1;
nodes = (
"203 324 OFFCURVE",
"238 345 OFFCURVE",
"238 380 CURVE SMOOTH",
"238 410 OFFCURVE",
"210 433 OFFCURVE",
"167 433 CURVE SMOOTH",
"152 433 OFFCURVE",
"133 431 OFFCURVE",
"124 428 CURVE",
"128 466 OFFCURVE",
"176 506 OFFCURVE",
"217 544 CURVE",
"188 573 LINE",
"126 524 OFFCURVE",
"63 466 OFFCURVE",
"63 410 CURVE SMOOTH",
"63 355 OFFCURVE",
"95 324 OFFCURVE",
"151 324 CURVE SMOOTH"
);
}
);
width = 524;
}
);
leftKerningGroup = quotedblleft;
rightKerningGroup = quotedblleft;
unicode = 201C;
},
{
glyphname = quotedblright;
layers = (
{
layerId = "C70E3B11-AF58-44B6-92D7-58C9185F522D";
name = "Bold Extended";
paths = (
{
closed = 1;
nodes = (
"397 371 OFFCURVE",
"461 429 OFFCURVE",
"461 484 CURVE SMOOTH",
"461 540 OFFCURVE",
"428 571 OFFCURVE",
"373 571 CURVE SMOOTH",
"321 571 OFFCURVE",
"286 549 OFFCURVE",
"286 515 CURVE SMOOTH",
"286 483 OFFCURVE",
"314 461 OFFCURVE",
"357 461 CURVE SMOOTH",
"372 461 OFFCURVE",
"391 463 OFFCURVE",
"400 465 CURVE",
"396 427 OFFCURVE",
"348 388 OFFCURVE",
"306 351 CURVE",
"335 322 LINE"
);
},
{
closed = 1;
nodes = (
"179 373 OFFCURVE",
"243 432 OFFCURVE",
"243 487 CURVE SMOOTH",
"243 542 OFFCURVE",
"210 573 OFFCURVE",
"155 573 CURVE SMOOTH",
"103 573 OFFCURVE",
"68 552 OFFCURVE",
"68 517 CURVE SMOOTH",
"68 486 OFFCURVE",
"96 464 OFFCURVE",
"139 464 CURVE SMOOTH",
"154 464 OFFCURVE",
"173 466 OFFCURVE",
"182 468 CURVE",
"178 430 OFFCURVE",
"130 391 OFFCURVE",
"88 353 CURVE",
"117 324 LINE"
);
}
);
width = 524;
}
);
leftKerningGroup = quotedblleft;
rightKerningGroup = quotedblleft;
unicode = 201D;
},
{
glyphname = quoteleft;
layers = (
{
layerId = "C70E3B11-AF58-44B6-92D7-58C9185F522D";
name = "Bold Extended";
paths = (
{
closed = 1;
nodes = (
"203 324 OFFCURVE",
"238 345 OFFCURVE",
"238 380 CURVE SMOOTH",
"238 410 OFFCURVE",
"210 433 OFFCURVE",
"167 433 CURVE SMOOTH",
"152 433 OFFCURVE",
"133 431 OFFCURVE",
"124 428 CURVE",
"128 466 OFFCURVE",
"176 506 OFFCURVE",
"217 544 CURVE",
"188 573 LINE",
"126 524 OFFCURVE",
"63 466 OFFCURVE",
"63 410 CURVE SMOOTH",
"63 355 OFFCURVE",
"95 324 OFFCURVE",
"151 324 CURVE SMOOTH"
);
}
);
width = 306;
}
);
leftKerningGroup = quotedblleft;
rightKerningGroup = quotedblleft;
unicode = 2018;
},
{
glyphname = quotereversed;
layers = (
{
layerId = "C70E3B11-AF58-44B6-92D7-58C9185F522D";
name = "Bold Extended";
paths = (
{
closed = 1;
nodes = (
"217 352 LINE",
"176 390 OFFCURVE",
"128 430 OFFCURVE",
"124 468 CURVE",
"133 465 OFFCURVE",
"152 463 OFFCURVE",
"167 463 CURVE SMOOTH",
"210 463 OFFCURVE",
"238 486 OFFCURVE",
"238 516 CURVE SMOOTH",
"238 551 OFFCURVE",
"203 572 OFFCURVE",
"151 572 CURVE SMOOTH",
"95 572 OFFCURVE",
"63 541 OFFCURVE",
"63 486 CURVE SMOOTH",
"63 431 OFFCURVE",
"126 372 OFFCURVE",
"188 323 CURVE"
);
}
);
width = 306;
}
);
leftKerningGroup = quotereversed;
rightKerningGroup = quotereversed;
unicode = 201B;
},
{
glyphname = quoteright;
layers = (
{
layerId = "C70E3B11-AF58-44B6-92D7-58C9185F522D";
name = "Bold Extended";
paths = (
{
closed = 1;
nodes = (
"179 368 OFFCURVE",
"243 427 OFFCURVE",
"243 482 CURVE SMOOTH",
"243 537 OFFCURVE",
"210 568 OFFCURVE",
"155 568 CURVE SMOOTH",
"103 568 OFFCURVE",
"68 547 OFFCURVE",
"68 512 CURVE SMOOTH",
"68 481 OFFCURVE",
"96 459 OFFCURVE",
"139 459 CURVE SMOOTH",
"154 459 OFFCURVE",
"173 461 OFFCURVE",
"182 463 CURVE",
"178 425 OFFCURVE",
"130 386 OFFCURVE",
"88 348 CURVE",
"117 319 LINE"
);
}
);
width = 306;
}
);
leftKerningGroup = quotedblleft;
rightKerningGroup = quotedblleft;
unicode = 2019;
},
{
glyphname = quotesinglbase;
layers = (
{
layerId = "C70E3B11-AF58-44B6-92D7-58C9185F522D";
name = "Bold Extended";
paths = (
{
closed = 1;
nodes = (
"179 -100 OFFCURVE",
"243 -41 OFFCURVE",
"243 14 CURVE SMOOTH",
"243 69 OFFCURVE",
"210 100 OFFCURVE",
"155 100 CURVE SMOOTH",
"103 100 OFFCURVE",
"68 79 OFFCURVE",
"68 44 CURVE SMOOTH",
"68 13 OFFCURVE",
"96 -10 OFFCURVE",
"139 -10 CURVE SMOOTH",
"154 -10 OFFCURVE",
"173 -8 OFFCURVE",
"182 -5 CURVE",
"178 -43 OFFCURVE",
"130 -82 OFFCURVE",
"88 -120 CURVE",
"117 -149 LINE"
);
}
);
width = 306;
}
);
leftKerningGroup = period;
rightKerningGroup = period;
unicode = 201A;
},
{
glyphname = cent;
layers = (
{
layerId = "C70E3B11-AF58-44B6-92D7-58C9185F522D";
name = "Bold Extended";
paths = (
{
closed = 1;
nodes = (
"494 58 OFFCURVE",
"595 95 OFFCURVE",
"668 152 CURVE",
"615 229 LINE",
"553 180 OFFCURVE",
"465 145 OFFCURVE",
"364 145 CURVE SMOOTH",
"253 144 OFFCURVE",
"184 174 OFFCURVE",
"184 230 CURVE SMOOTH",
"184 307 OFFCURVE",
"289 326 OFFCURVE",
"372 325 CURVE SMOOTH",
"448 324 OFFCURVE",
"527 301 OFFCURVE",
"595 259 CURVE",
"646 260 LINE",
"646 403 LINE",
"567 403 LINE",
"567 324 LINE",
"611 321 LINE",
"550 368 OFFCURVE",
"468 413 OFFCURVE",
"350 413 CURVE SMOOTH",
"222 413 OFFCURVE",
"68 364 OFFCURVE",
"68 230 CURVE SMOOTH",
"68 102 OFFCURVE",
"215 56 OFFCURVE",
"361 57 CURVE SMOOTH"
);
},
{
closed = 1;
nodes = (
"415 -10 LINE",
"415 118 LINE",
"409 134 LINE",
"409 361 LINE",
"415 372 LINE",
"415 480 LINE",
"327 480 LINE",
"327 373 LINE",
"333 361 LINE",
"333 131 LINE",
"327 118 LINE",
"327 -10 LINE"
);
}
);
width = 724;
}
);
leftKerningGroup = o;
rightKerningGroup = c;
unicode = 00A2;
},
{
glyphname = currency;
layers = (
{
layerId = "C70E3B11-AF58-44B6-92D7-58C9185F522D";
name = "Bold Extended";
paths = (
{
closed = 1;
nodes = (
"376 83 OFFCURVE",
"439 145 OFFCURVE",
"439 226 CURVE",
"439 310 OFFCURVE",
"376 368 OFFCURVE",
"272 368 CURVE",
"173 368 OFFCURVE",
"103 310 OFFCURVE",
"103 226 CURVE",
"103 145 OFFCURVE",
"173 83 OFFCURVE",
"272 83 CURVE"
);
},
{
closed = 1;
nodes = (
"199 117 LINE",
"157 157 LINE",
"66 51 LINE",
"109 11 LINE"
);
},
{
closed = 1;
nodes = (
"481 51 LINE",
"390 157 LINE",
"348 117 LINE",
"438 11 LINE"
);
},
{
closed = 1;
nodes = (
"199 334 LINE",
"109 440 LINE",
"66 400 LINE",
"157 294 LINE"
);
},
{
closed = 1;
nodes = (
"481 400 LINE",
"438 440 LINE",
"348 334 LINE",
"390 294 LINE"
);
},
{
closed = 1;
nodes = (
"218 161 OFFCURVE",
"193 191 OFFCURVE",
"193 226 CURVE",
"193 263 OFFCURVE",
"218 290 OFFCURVE",
"272 290 CURVE",
"327 290 OFFCURVE",
"350 263 OFFCURVE",
"350 226 CURVE",
"350 191 OFFCURVE",
"327 161 OFFCURVE",
"272 161 CURVE"
);
}
);
width = 547;
}
);
leftKerningGroup = currency;
rightKerningGroup = currency;
unicode = 00A4;
},
{
glyphname = dollar;
layers = (
{
layerId = "C70E3B11-AF58-44B6-92D7-58C9185F522D";
name = "Bold Extended";
paths = (
{
closed = 1;
nodes = (
"692 6 OFFCURVE",
"794 49 OFFCURVE",
"794 144 CURVE SMOOTH",
"794 240 OFFCURVE",
"687 280 OFFCURVE",
"475 287 CURVE SMOOTH",
"270 296 OFFCURVE",
"233 306 OFFCURVE",
"233 332 CURVE SMOOTH",
"233 364 OFFCURVE",
"287 377 OFFCURVE",
"372 377 CURVE SMOOTH",
"507 377 OFFCURVE",
"635 313 OFFCURVE",
"699 279 CURVE",
"759 281 LINE",
"759 465 LINE",
"659 465 LINE",
"659 354 LINE",
"709 350 LINE",
"642 387 OFFCURVE",
"520 464 OFFCURVE",
"346 464 CURVE SMOOTH",
"212 464 OFFCURVE",
"116 411 OFFCURVE",
"116 324 CURVE SMOOTH",
"116 251 OFFCURVE",
"167 199 OFFCURVE",
"372 190 CURVE SMOOTH",
"600 172 OFFCURVE",
"677 159 OFFCURVE",
"677 127 CURVE SMOOTH",
"677 91 OFFCURVE",
"617 91 OFFCURVE",
"552 89 CURVE SMOOTH",
"457 86 OFFCURVE",
"261 138 OFFCURVE",
"178 206 CURVE",
"114 203 LINE",
"114 6 LINE",
"215 6 LINE",
"215 123 LINE",
"156 129 LINE",
"241 75 OFFCURVE",
"412 1 OFFCURVE",
"562 4 CURVE SMOOTH"
);
},
{
closed = 1;
nodes = (
"493 -111 LINE",
"493 78 LINE",
"487 91 LINE",
"487 405 LINE",
"493 417 LINE",
"493 580 LINE",
"405 580 LINE",
"405 414 LINE",
"411 399 LINE",
"411 91 LINE",
"405 74 LINE",
"405 -111 LINE"
);
}
);
width = 854;
}
);
leftKerningGroup = dollar;
rightKerningGroup = dollar;
unicode = 0024;
},
{
glyphname = euro;
layers = (
{
layerId = "C70E3B11-AF58-44B6-92D7-58C9185F522D";
name = "Bold Extended";
paths = (
{
closed = 1;
nodes = (
"672 -10 OFFCURVE",
"794 32 OFFCURVE",
"875 103 CURVE",
"820 180 LINE",
"756 121 OFFCURVE",
"648 80 OFFCURVE",
"527 80 CURVE SMOOTH",
"388 80 OFFCURVE",
"274 123 OFFCURVE",
"274 234 CURVE SMOOTH",
"274 352 OFFCURVE",
"401 392 OFFCURVE",
"525 392 CURVE SMOOTH",
"636 392 OFFCURVE",
"733 361 OFFCURVE",
"816 283 CURVE",
"869 286 LINE",
"868 470 LINE",
"770 470 LINE",
"771 345 LINE",
"826 334 LINE",
"755 425 OFFCURVE",
"644 480 OFFCURVE",
"493 480 CURVE SMOOTH",
"326 480 OFFCURVE",
"153 401 OFFCURVE",
"153 234 CURVE SMOOTH",
"153 75 OFFCURVE",
"325 -10 OFFCURVE",
"527 -10 CURVE SMOOTH"
);
},
{
closed = 1;
nodes = (
"52 201 LINE",
"52 136 LINE",
"710 136 LINE",
"710 201 LINE"
);
},
{
closed = 1;
nodes = (
"52 316 LINE",
"52 251 LINE",
"710 251 LINE",
"710 316 LINE"
);
}
);
width = 949;
}
);
leftKerningGroup = euro;
rightKerningGroup = euro;
unicode = 20AC;
},
{
glyphname = sterling;
layers = (
{
layerId = "C70E3B11-AF58-44B6-92D7-58C9185F522D";
name = "Bold Extended";
paths = (
{
closed = 1;
nodes = (
"117 -10 LINE SMOOTH",
"249 -10 OFFCURVE",
"337 49 OFFCURVE",
"337 136 CURVE SMOOTH",
"337 204 OFFCURVE",
"263 267 OFFCURVE",
"263 317 CURVE SMOOTH",
"263 365 OFFCURVE",
"325 390 OFFCURVE",
"406 390 CURVE SMOOTH",
"493 390 OFFCURVE",
"596 375 OFFCURVE",
"676 311 CURVE",
"736 318 LINE",
"736 480 LINE",
"639 480 LINE",
"639 360 LINE",
"714 358 LINE",
"628 441 OFFCURVE",
"521 480 OFFCURVE",
"381 480 CURVE SMOOTH",
"247 480 OFFCURVE",
"151 416 OFFCURVE",
"151 317 CURVE SMOOTH",
"151 256 OFFCURVE",
"218 205 OFFCURVE",
"218 143 CURVE SMOOTH",
"218 89 OFFCURVE",
"144 85 OFFCURVE",
"117 85 CURVE SMOOTH",
"66 85 LINE",
"66 -10 LINE"
);
},
{
closed = 1;
nodes = (
"601 140 LINE",
"601 204 LINE",
"68 204 LINE",
"68 140 LINE"
);
},
{
closed = 1;
nodes = (
"677 -10 OFFCURVE",
"747 42 OFFCURVE",
"768 133 CURVE",
"684 162 LINE",
"667 123 OFFCURVE",
"634 86 OFFCURVE",
"562 86 CURVE SMOOTH",
"489 86 OFFCURVE",
"340 156 OFFCURVE",
"267 213 CURVE",
"257 120 LINE",
"331 62 OFFCURVE",
"479 -10 OFFCURVE",
"561 -10 CURVE SMOOTH"
);
},
{
closed = 1;
nodes = (
"601 244 LINE",
"601 309 LINE",
"68 309 LINE",
"68 244 LINE"
);
}
);
width = 789;
}
);
leftKerningGroup = sterling;
rightKerningGroup = sterling;
unicode = 00A3;
},
{
glyphname = yen;
layers = (
{
layerId = "C70E3B11-AF58-44B6-92D7-58C9185F522D";
name = "Bold Extended";
paths = (
{
closed = 1;
nodes = (
"370 374 LINE",
"370 470 LINE",
"40 470 LINE",
"40 374 LINE"
);
},
{
closed = 1;
nodes = (
"869 374 LINE",
"869 470 LINE",
"545 470 LINE",
"545 374 LINE"
);
},
{
closed = 1;
nodes = (
"483 156 LINE",
"784 407 LINE",
"664 407 LINE",
"431 215 LINE",
"496 216 LINE",
"254 404 LINE",
"113 404 LINE",
"426 156 LINE"
);
},
{
closed = 1;
nodes = (
"391 241 LINE",
"391 299 LINE",
"80 299 LINE",
"80 241 LINE"
);
},
{
closed = 1;
nodes = (
"829 241 LINE",
"829 299 LINE",
"512 299 LINE",
"512 241 LINE"
);
},
{
closed = 1;
nodes = (
"829 162 LINE",
"829 221 LINE",
"80 221 LINE",
"80 162 LINE"
);
},
{
closed = 1;
nodes = (
"514 30 LINE",
"514 232 LINE",
"397 232 LINE",
"397 30 LINE"
);
},
{
closed = 1;
nodes = (
"674 0 LINE",
"674 96 LINE",
"237 96 LINE",
"237 0 LINE"
);
}
);
width = 909;
}
);
leftKerningGroup = yen;
rightKerningGroup = yen;
unicode = 00A5;
},
{
glyphname = asciitilde;
layers = (
{
layerId = "C70E3B11-AF58-44B6-92D7-58C9185F522D";
name = "Bold Extended";
paths = (
{
closed = 1;
nodes = (
"625 136 OFFCURVE",
"671 241 OFFCURVE",
"675 326 CURVE",
"578 330 LINE",
"575 274 OFFCURVE",
"555 232 OFFCURVE",
"505 232 CURVE SMOOTH",
"472 232 OFFCURVE",
"438 255 OFFCURVE",
"398 281 CURVE SMOOTH",
"352 310 OFFCURVE",
"306 344 OFFCURVE",
"231 344 CURVE SMOOTH",
"114 344 OFFCURVE",
"62 239 OFFCURVE",
"58 154 CURVE",
"155 150 LINE",
"160 206 OFFCURVE",
"183 248 OFFCURVE",
"229 248 CURVE SMOOTH",
"266 248 OFFCURVE",
"293 228 OFFCURVE",
"332 203 CURVE SMOOTH",
"380 173 OFFCURVE",
"432 136 OFFCURVE",
"503 136 CURVE SMOOTH"
);
}
);
width = 733;
}
);
leftKerningGroup = asciitilde;
rightKerningGroup = asciitilde;
unicode = 007E;
},
{
glyphname = equal;
layers = (
{
layerId = "C70E3B11-AF58-44B6-92D7-58C9185F522D";
name = "Bold Extended";
paths = (
{
closed = 1;
nodes = (
"76 384 LINE",
"76 287 LINE",
"646 287 LINE",
"646 384 LINE"
);
},
{
closed = 1;
nodes = (
"76 183 LINE",
"76 86 LINE",
"646 86 LINE",
"646 183 LINE"
);
}
);
width = 723;
}
);
leftKerningGroup = equal;
rightKerningGroup = equal;
unicode = 003D;
},
{
glyphname = greater;
layers = (
{
layerId = "C70E3B11-AF58-44B6-92D7-58C9185F522D";
name = "Bold Extended";
paths = (
{
closed = 1;
nodes = (
"571 248 LINE",
"489 278 LINE",
"68 121 LINE",
"68 10 LINE",
"571 224 LINE"
);
},
{
closed = 1;
nodes = (
"571 248 LINE",
"68 460 LINE",
"68 349 LINE",
"489 193 LINE",
"571 224 LINE"
);
}
);
width = 598;
}
);
leftKerningGroup = greater;
rightKerningGroup = greater;
unicode = 003E;
},
{
glyphname = less;
layers = (
{
layerId = "C70E3B11-AF58-44B6-92D7-58C9185F522D";
name = "Bold Extended";
paths = (
{
closed = 1;
nodes = (
"531 350 LINE",
"531 461 LINE",
"28 247 LINE",
"28 223 LINE",
"110 193 LINE"
);
},
{
closed = 1;
nodes = (
"531 122 LINE",
"110 278 LINE",
"28 247 LINE",
"28 223 LINE",
"531 11 LINE"
);
}
);
width = 598;
}
);
leftKerningGroup = less;
rightKerningGroup = less;
unicode = 003C;
},
{
glyphname = logicalnot;
layers = (
{
layerId = "C70E3B11-AF58-44B6-92D7-58C9185F522D";
name = "Bold Extended";
paths = (
{
closed = 1;
nodes = (
"549 262 LINE",
"549 358 LINE",
"45 358 LINE",
"45 262 LINE"
);
},
{
closed = 1;
nodes = (
"579 46 LINE",
"579 358 LINE",
"483 358 LINE",
"483 46 LINE"
);
}
);
width = 631;
}
);
leftKerningGroup = logicalnot;
rightKerningGroup = logicalnot;
unicode = 00AC;
},
{
glyphname = micro;
layers = (
{
layerId = "C70E3B11-AF58-44B6-92D7-58C9185F522D";
name = "Bold Extended";
paths = (
{
closed = 1;
nodes = (
"510 -20 OFFCURVE",
"584 37 OFFCURVE",
"681 104 CURVE",
"681 195 LINE",
"578 124 OFFCURVE",
"485 87 OFFCURVE",
"416 87 CURVE SMOOTH",
"324 88 OFFCURVE",
"278 125 OFFCURVE",
"278 200 CURVE SMOOTH",
"278 357 LINE",
"222 357 LINE",
"222 173 LINE SMOOTH",
"222 20 OFFCURVE",
"295 -20 OFFCURVE",
"409 -20 CURVE SMOOTH"
);
},
{
closed = 1;
nodes = (
"279 -165 LINE",
"279 -64 LINE SMOOTH",
"279 -24 OFFCURVE",
"248 31 OFFCURVE",
"245 108 CURVE",
"245 357 LINE",
"166 357 LINE",
"166 -165 LINE"
);
},
{
closed = 1;
nodes = (
"261 261 LINE",
"261 357 LINE",
"3 357 LINE",
"3 261 LINE"
);
},
{
closed = 1;
nodes = (
"812 -16 OFFCURVE",
"853 0 OFFCURVE",
"880 18 CURVE",
"856 98 LINE",
"838 85 OFFCURVE",
"818 77 OFFCURVE",
"796 77 CURVE SMOOTH",
"774 77 OFFCURVE",
"746 93 OFFCURVE",
"746 127 CURVE",
"746 357 LINE",
"631 357 LINE",
"631 116 LINE",
"631 31 OFFCURVE",
"693 -16 OFFCURVE",
"767 -16 CURVE SMOOTH"
);
}
);
width = 870;
}
);
leftKerningGroup = micro;
leftMetricsKey = p;
rightKerningGroup = micro;
rightMetricsKey = u;
unicode = 00B5;
},
{
glyphname = minus;
layers = (
{
layerId = "C70E3B11-AF58-44B6-92D7-58C9185F522D";
name = "Bold Extended";
paths = (
{
closed = 1;
nodes = (
"33 284 LINE",
"33 187 LINE",
"603 187 LINE",
"603 284 LINE"
);
}
);
width = 637;
}
);
leftKerningGroup = minus;
rightKerningGroup = minus;
unicode = 2212;
},
{
glyphname = multiply;
layers = (
{
layerId = "C70E3B11-AF58-44B6-92D7-58C9185F522D";
name = "Bold Extended";
paths = (
{
closed = 1;
nodes = (
"570 80 LINE",
"117 465 LINE",
"47 394 LINE",
"502 8 LINE"
);
},
{
closed = 1;
nodes = (
"569 395 LINE",
"502 465 LINE",
"49 80 LINE",
"116 10 LINE"
);
}
);
width = 639;
}
);
leftKerningGroup = multiply;
rightKerningGroup = multiply;
unicode = 00D7;
},
{
glyphname = percent;
layers = (
{
layerId = "C70E3B11-AF58-44B6-92D7-58C9185F522D";
name = "Bold Extended";
paths = (
{
closed = 1;
nodes = (
"776 442 LINE",
"717 500 LINE",
"144 24 LINE",
"203 -34 LINE"
);
},
{
closed = 1;
nodes = (
"314 232 OFFCURVE",
"378 285 OFFCURVE",
"378 358 CURVE SMOOTH",
"378 436 OFFCURVE",
"314 483 OFFCURVE",
"214 483 CURVE SMOOTH",
"119 483 OFFCURVE",
"48 435 OFFCURVE",
"48 358 CURVE SMOOTH",
"48 284 OFFCURVE",
"119 232 OFFCURVE",
"214 232 CURVE SMOOTH"
);
},
{
closed = 1;
nodes = (
"166 317 OFFCURVE",
"142 334 OFFCURVE",
"142 358 CURVE SMOOTH",
"142 384 OFFCURVE",
"166 399 OFFCURVE",
"214 399 CURVE SMOOTH",
"263 399 OFFCURVE",
"285 384 OFFCURVE",
"285 358 CURVE SMOOTH",
"285 334 OFFCURVE",
"263 317 OFFCURVE",
"214 317 CURVE SMOOTH"
);
},
{
closed = 1;
nodes = (
"806 -17 OFFCURVE",
"876 31 OFFCURVE",
"876 108 CURVE SMOOTH",
"876 182 OFFCURVE",
"806 234 OFFCURVE",
"711 234 CURVE SMOOTH",
"611 234 OFFCURVE",
"546 181 OFFCURVE",
"546 108 CURVE SMOOTH",
"546 30 OFFCURVE",
"611 -17 OFFCURVE",
"711 -17 CURVE SMOOTH"
);
},
{
closed = 1;
nodes = (
"662 67 OFFCURVE",
"640 82 OFFCURVE",
"640 108 CURVE SMOOTH",
"640 132 OFFCURVE",
"662 150 OFFCURVE",
"711 150 CURVE SMOOTH",
"758 150 OFFCURVE",
"783 133 OFFCURVE",
"783 108 CURVE SMOOTH",
"783 83 OFFCURVE",
"758 67 OFFCURVE",
"711 67 CURVE SMOOTH"
);
}
);
width = 924;
}
);
leftKerningGroup = percent;
rightKerningGroup = percent;
unicode = 0025;
},
{
glyphname = plus;
layers = (
{
layerId = "C70E3B11-AF58-44B6-92D7-58C9185F522D";
name = "Bold Extended";
paths = (
{
closed = 1;
nodes = (
"365 12 LINE",
"365 458 LINE",
"267 458 LINE",
"267 12 LINE"
);
},
{
closed = 1;
nodes = (
"588 187 LINE",
"588 284 LINE",
"46 284 LINE",
"46 187 LINE"
);
}
);
width = 633;
}
);
leftKerningGroup = plus;
rightKerningGroup = plus;
unicode = 002B;
},
{
glyphname = plusminus;
layers = (
{
layerId = "C70E3B11-AF58-44B6-92D7-58C9185F522D";
name = "Bold Extended";
paths = (
{
closed = 1;
nodes = (
"267 111 LINE",
"365 111 LINE",
"365 449 LINE",
"267 449 LINE"
);
},
{
closed = 1;
nodes = (
"52 329 LINE",
"52 232 LINE",
"586 232 LINE",
"586 329 LINE"
);
},
{
closed = 1;
nodes = (
"52 133 LINE",
"52 37 LINE",
"582 37 LINE",
"582 133 LINE"
);
}
);
width = 637;
}
);
leftKerningGroup = plusminus;
rightKerningGroup = plusminus;
unicode = 00B1;
},
{
glyphname = bar;
layers = (
{
layerId = "C70E3B11-AF58-44B6-92D7-58C9185F522D";
name = "Bold Extended";
paths = (
{
closed = 1;
nodes = (
"107 -146 LINE",
"216 -146 LINE",
"216 634 LINE",
"107 634 LINE"
);
}
);
width = 323;
}
);
leftKerningGroup = bar;
rightKerningGroup = bar;
unicode = 007C;
},
{
glyphname = brokenbar;
layers = (
{
layerId = "C70E3B11-AF58-44B6-92D7-58C9185F522D";
name = "Bold Extended";
paths = (
{
closed = 1;
nodes = (
"107 304 LINE",
"216 304 LINE",
"216 634 LINE",
"107 634 LINE"
);
},
{
closed = 1;
nodes = (
"107 -146 LINE",
"216 -146 LINE",
"216 184 LINE",
"107 184 LINE"
);
}
);
width = 323;
}
);
leftKerningGroup = brokenbar;
rightKerningGroup = brokenbar;
unicode = 00A6;
},
{
glyphname = at;
layers = (
{
layerId = "C70E3B11-AF58-44B6-92D7-58C9185F522D";
name = "Bold Extended";
paths = (
{
closed = 1;
nodes = (
"535 -138 OFFCURVE",
"623 -98 OFFCURVE",
"661 -70 CURVE",
"637 -19 LINE",
"600 -45 OFFCURVE",
"517 -85 OFFCURVE",
"391 -85 CURVE SMOOTH",
"234 -85 OFFCURVE",
"112 7 OFFCURVE",
"112 161 CURVE SMOOTH",
"112 317 OFFCURVE",
"264 453 OFFCURVE",
"481 453 CURVE SMOOTH",
"702 453 OFFCURVE",
"816 317 OFFCURVE",
"816 207 CURVE SMOOTH",
"816 129 OFFCURVE",
"780 84 OFFCURVE",
"741 84 CURVE SMOOTH",
"701 84 OFFCURVE",
"690 110 OFFCURVE",
"690 148 CURVE SMOOTH",
"690 187 LINE SMOOTH",
"690 253 OFFCURVE",
"643 326 OFFCURVE",
"486 326 CURVE SMOOTH",
"404 326 OFFCURVE",
"326 311 OFFCURVE",
"236 281 CURVE",
"250 208 LINE",
"332 235 OFFCURVE",
"405 249 OFFCURVE",
"467 249 CURVE SMOOTH",
"559 249 OFFCURVE",
"598 213 OFFCURVE",
"598 191 CURVE SMOOTH",
"598 138 LINE SMOOTH",
"598 82 OFFCURVE",
"633 21 OFFCURVE",
"723 21 CURVE SMOOTH",
"806 21 OFFCURVE",
"880 94 OFFCURVE",
"880 207 CURVE SMOOTH",
"880 338 OFFCURVE",
"747 505 OFFCURVE",
"481 505 CURVE SMOOTH",
"237 505 OFFCURVE",
"48 367 OFFCURVE",
"48 163 CURVE SMOOTH",
"48 -49 OFFCURVE",
"213 -138 OFFCURVE",
"393 -138 CURVE SMOOTH"
);
},
{
closed = 1;
nodes = (
"445 21 OFFCURVE",
"540 39 OFFCURVE",
"611 81 CURVE",
"613 138 LINE",
"535 105 OFFCURVE",
"453 97 OFFCURVE",
"397 97 CURVE SMOOTH",
"354 97 OFFCURVE",
"324 96 OFFCURVE",
"324 113 CURVE SMOOTH",
"324 141 OFFCURVE",
"382 133 OFFCURVE",
"439 134 CURVE SMOOTH",
"496 135 OFFCURVE",
"556 128 OFFCURVE",
"613 125 CURVE",
"613 185 LINE",
"556 192 OFFCURVE",
"486 201 OFFCURVE",
"413 201 CURVE SMOOTH",
"313 201 OFFCURVE",
"218 183 OFFCURVE",
"218 108 CURVE SMOOTH",
"218 45 OFFCURVE",
"287 21 OFFCURVE",
"370 21 CURVE SMOOTH"
);
}
);
width = 927;
}
);
leftKerningGroup = at;
rightKerningGroup = at;
unicode = 0040;
},
{
glyphname = ampersand;
layers = (
{
layerId = "C70E3B11-AF58-44B6-92D7-58C9185F522D";
name = "Bold Extended";
paths = (
{
closed = 1;
nodes = (
"1099 -279 OFFCURVE",
"1213 -230 OFFCURVE",
"1280 -123 CURVE",
"1227 -31 LINE",
"1178 -127 OFFCURVE",
"1066 -170 OFFCURVE",
"947 -170 CURVE SMOOTH",
"600 -170 OFFCURVE",
"391 187 OFFCURVE",
"391 359 CURVE SMOOTH",
"391 406 OFFCURVE",
"420 437 OFFCURVE",
"455 437 CURVE SMOOTH",
"478 437 OFFCURVE",
"489 425 OFFCURVE",
"489 405 CURVE SMOOTH",
"489 372 OFFCURVE",
"447 329 OFFCURVE",
"317 317 CURVE SMOOTH",
"116 295 OFFCURVE",
"42 232 OFFCURVE",
"42 143 CURVE SMOOTH",
"42 52 OFFCURVE",
"138 -12 OFFCURVE",
"347 -12 CURVE SMOOTH",
"667 -12 OFFCURVE",
"799 150 OFFCURVE",
"799 272 CURVE SMOOTH",
"799 350 OFFCURVE",
"765 387 OFFCURVE",
"746 408 CURVE",
"648 359 LINE",
"665 345 OFFCURVE",
"686 315 OFFCURVE",
"686 274 CURVE SMOOTH",
"686 163 OFFCURVE",
"557 82 OFFCURVE",
"346 82 CURVE SMOOTH",
"214 82 OFFCURVE",
"162 112 OFFCURVE",
"162 152 CURVE SMOOTH",
"162 191 OFFCURVE",
"202 222 OFFCURVE",
"347 233 CURVE SMOOTH",
"515 246 OFFCURVE",
"602 327 OFFCURVE",
"602 408 CURVE SMOOTH",
"602 475 OFFCURVE",
"549 528 OFFCURVE",
"453 528 CURVE SMOOTH",
"345 528 OFFCURVE",
"268 447 OFFCURVE",
"268 358 CURVE SMOOTH",
"266 138 OFFCURVE",
"517 -279 OFFCURVE",
"947 -279 CURVE SMOOTH"
);
}
);
width = 856;
}
);
leftKerningGroup = ampersand;
rightKerningGroup = ampersand;
unicode = 0026;
},
{
glyphname = paragraph;
layers = (
{
layerId = "C70E3B11-AF58-44B6-92D7-58C9185F522D";
name = "Bold Extended";
paths = (
{
closed = 1;
nodes = (
"667 -192 OFFCURVE",
"803 -137 OFFCURVE",
"803 29 CURVE SMOOTH",
"803 520 LINE",
"701 520 LINE",
"701 34 LINE SMOOTH",
"701 -63 OFFCURVE",
"608 -91 OFFCURVE",
"543 -91 CURVE SMOOTH",
"478 -91 OFFCURVE",
"388 -73 OFFCURVE",
"324 -52 CURVE",
"293 -148 LINE",
"364 -168 OFFCURVE",
"459 -192 OFFCURVE",
"553 -192 CURVE SMOOTH"
);
},
{
closed = 1;
nodes = (
"589 -145 LINE",
"589 390 LINE",
"486 473 LINE",
"486 -149 LINE"
);
},
{
closed = 1;
nodes = (
"391 184 OFFCURVE",
"485 224 OFFCURVE",
"560 260 CURVE",
"560 346 LINE",
"482 310 OFFCURVE",
"398 280 OFFCURVE",
"286 281 CURVE SMOOTH",
"208 283 OFFCURVE",
"134 297 OFFCURVE",
"134 355 CURVE SMOOTH",
"134 403 OFFCURVE",
"216 435 OFFCURVE",
"297 434 CURVE SMOOTH",
"471 433 OFFCURVE",
"661 337 OFFCURVE",
"761 240 CURVE",
"761 352 LINE",
"658 451 OFFCURVE",
"469 530 OFFCURVE",
"291 530 CURVE SMOOTH",
"130 530 OFFCURVE",
"6 453 OFFCURVE",
"6 356 CURVE SMOOTH",
"6 241 OFFCURVE",
"133 184 OFFCURVE",
"267 184 CURVE SMOOTH"
);
}
);
width = 859;
}
);
leftKerningGroup = paragraph;
rightKerningGroup = paragraph;
rightMetricsKey = g.alt;
unicode = 00B6;
},
{
glyphname = copyright;
layers = (
{
layerId = "C70E3B11-AF58-44B6-92D7-58C9185F522D";
name = "Bold Extended";
paths = (
{
closed = 1;
nodes = (
"746 -165 OFFCURVE",
"906 -14 OFFCURVE",
"906 177 CURVE",
"906 368 OFFCURVE",
"746 519 OFFCURVE",
"477 519 CURVE",
"209 519 OFFCURVE",
"48 368 OFFCURVE",
"48 177 CURVE",
"48 -14 OFFCURVE",
"209 -165 OFFCURVE",
"477 -165 CURVE"
);
},
{
closed = 1;
nodes = (
"595 13 OFFCURVE",
"677 69 OFFCURVE",
"722 135 CURVE",
"668 191 LINE",
"628 138 OFFCURVE",
"558 97 OFFCURVE",
"467 97 CURVE SMOOTH",
"371 97 OFFCURVE",
"322 127 OFFCURVE",
"322 172 CURVE SMOOTH",
"322 227 OFFCURVE",
"396 260 OFFCURVE",
"469 260 CURVE SMOOTH",
"547 260 OFFCURVE",
"609 229 OFFCURVE",
"662 188 CURVE",
"718 193 LINE",
"718 338 LINE",
"646 338 LINE",
"646 256 LINE",
"678 246 LINE",
"628 295 OFFCURVE",
"554 334 OFFCURVE",
"450 333 CURVE SMOOTH",
"332 333 OFFCURVE",
"226 277 OFFCURVE",
"226 172 CURVE SMOOTH",
"226 78 OFFCURVE",
"313 13 OFFCURVE",
"464 13 CURVE SMOOTH"
);
},
{
closed = 1;
nodes = (
"244 -108 OFFCURVE",
"114 20 OFFCURVE",
"115 177 CURVE",
"114 334 OFFCURVE",
"244 462 OFFCURVE",
"477 462 CURVE",
"710 462 OFFCURVE",
"839 334 OFFCURVE",
"838 177 CURVE",
"839 20 OFFCURVE",
"710 -108 OFFCURVE",
"477 -108 CURVE"
);
}
);
width = 954;
}
);
leftKerningGroup = copyright;
rightKerningGroup = copyright;
unicode = 00A9;
},
{
glyphname = registered;
layers = (
{
layerId = "C70E3B11-AF58-44B6-92D7-58C9185F522D";
name = "Bold Extended";
paths = (
{
closed = 1;
nodes = (
"746 -175 OFFCURVE",
"906 -21 OFFCURVE",
"906 170 CURVE",
"906 361 OFFCURVE",
"746 515 OFFCURVE",
"477 515 CURVE",
"209 515 OFFCURVE",
"48 361 OFFCURVE",
"48 170 CURVE",
"48 -21 OFFCURVE",
"209 -175 OFFCURVE",
"477 -175 CURVE"
);
},
{
closed = 1;
nodes = (
"475 28 LINE",
"475 90 LINE",
"218 89 LINE",
"218 27 LINE"
);
},
{
closed = 1;
nodes = (
"380 61 LINE",
"380 270 LINE",
"300 270 LINE",
"300 61 LINE"
);
},
{
closed = 1;
nodes = (
"727 6 OFFCURVE",
"778 53 OFFCURVE",
"778 129 CURVE SMOOTH",
"778 144 LINE",
"702 144 LINE",
"702 129 LINE SMOOTH",
"702 95 OFFCURVE",
"677 79 OFFCURVE",
"652 79 CURVE SMOOTH",
"626 79 OFFCURVE",
"608 92 OFFCURVE",
"587 100 CURVE SMOOTH",
"569 97 OFFCURVE",
"573 145 OFFCURVE",
"526 145 CURVE SMOOTH",
"392 145 LINE",
"392 129 LINE",
"467 129 LINE SMOOTH",
"489 129 OFFCURVE",
"489 99 OFFCURVE",
"508 89 CURVE SMOOTH",
"538 60 OFFCURVE",
"581 6 OFFCURVE",
"656 6 CURVE SMOOTH"
);
},
{
closed = 1;
nodes = (
"244 -118 OFFCURVE",
"114 13 OFFCURVE",
"115 170 CURVE",
"114 327 OFFCURVE",
"244 458 OFFCURVE",
"477 458 CURVE",
"710 458 OFFCURVE",
"839 327 OFFCURVE",
"838 170 CURVE",
"839 13 OFFCURVE",
"710 -118 OFFCURVE",
"477 -118 CURVE"
);
},
{
closed = 1;
nodes = (
"593 129 LINE SMOOTH",
"674 129 OFFCURVE",
"710 174 OFFCURVE",
"710 217 CURVE SMOOTH",
"710 268 OFFCURVE",
"673 304 OFFCURVE",
"593 304 CURVE SMOOTH",
"218 304 LINE",
"218 239 LINE",
"593 239 LINE SMOOTH",
"607 239 OFFCURVE",
"626 235 OFFCURVE",
"626 217 CURVE SMOOTH",
"626 197 OFFCURVE",
"606 192 OFFCURVE",
"593 192 CURVE SMOOTH",
"352 192 LINE",
"352 129 LINE"
);
}
);
width = 954;
}
);
leftKerningGroup = registered;
leftMetricsKey = copyright;
rightKerningGroup = registered;
rightMetricsKey = copyright;
unicode = 00AE;
},
{
glyphname = section;
layers = (
{
layerId = "C70E3B11-AF58-44B6-92D7-58C9185F522D";
name = "Bold Extended";
paths = (
{
closed = 1;
nodes = (
"682 11 OFFCURVE",
"789 48 OFFCURVE",
"789 145 CURVE SMOOTH",
"789 241 OFFCURVE",
"701 303 OFFCURVE",
"497 317 CURVE SMOOTH",
"290 330 OFFCURVE",
"233 346 OFFCURVE",
"233 381 CURVE SMOOTH",
"233 421 OFFCURVE",
"292 434 OFFCURVE",
"348 434 CURVE SMOOTH",
"445 434 OFFCURVE",
"590 369 OFFCURVE",
"645 316 CURVE",
"717 321 LINE",
"717 520 LINE",
"608 520 LINE",
"608 396 LINE",
"665 392 LINE",
"596 461 OFFCURVE",
"485 530 OFFCURVE",
"335 530 CURVE SMOOTH",
"216 530 OFFCURVE",
"105 474 OFFCURVE",
"105 370 CURVE SMOOTH",
"105 276 OFFCURVE",
"210 220 OFFCURVE",
"435 199 CURVE SMOOTH",
"604 185 OFFCURVE",
"660 165 OFFCURVE",
"660 113 CURVE SMOOTH",
"660 45 OFFCURVE",
"549 47 OFFCURVE",
"489 44 CURVE",
"528 -6 LINE"
);
},
{
closed = 1;
nodes = (
"632 -248 OFFCURVE",
"743 -192 OFFCURVE",
"743 -88 CURVE SMOOTH",
"743 6 OFFCURVE",
"637 62 OFFCURVE",
"413 83 CURVE SMOOTH",
"243 97 OFFCURVE",
"188 117 OFFCURVE",
"188 169 CURVE SMOOTH",
"188 237 OFFCURVE",
"299 235 OFFCURVE",
"359 238 CURVE",
"320 288 LINE",
"166 271 OFFCURVE",
"59 234 OFFCURVE",
"59 137 CURVE SMOOTH",
"59 41 OFFCURVE",
"147 -21 OFFCURVE",
"351 -35 CURVE SMOOTH",
"557 -48 OFFCURVE",
"615 -64 OFFCURVE",
"615 -99 CURVE SMOOTH",
"615 -139 OFFCURVE",
"556 -152 OFFCURVE",
"499 -152 CURVE SMOOTH",
"402 -152 OFFCURVE",
"258 -87 OFFCURVE",
"202 -34 CURVE",
"130 -39 LINE",
"130 -239 LINE",
"240 -239 LINE",
"240 -114 LINE",
"182 -110 LINE",
"252 -179 OFFCURVE",
"363 -248 OFFCURVE",
"513 -248 CURVE SMOOTH"
);
}
);
width = 860;
}
);
leftKerningGroup = section;
rightKerningGroup = section;
unicode = 00A7;
},
{
glyphname = trademark;
layers = (
{
layerId = "C70E3B11-AF58-44B6-92D7-58C9185F522D";
name = "Bold Extended";
paths = (
{
closed = 1;
nodes = (
"660 297 LINE",
"675 315 LINE",
"526 520 LINE",
"475 520 LINE",
"639 297 LINE"
);
},
{
closed = 1;
nodes = (
"271 300 LINE",
"271 341 LINE",
"99 341 LINE",
"99 300 LINE"
);
},
{
closed = 1;
nodes = (
"210 325 LINE",
"210 501 LINE",
"159 501 LINE",
"159 325 LINE"
);
},
{
closed = 1;
nodes = (
"57 427 LINE",
"57 484 LINE",
"312 484 LINE",
"312 427 LINE",
"360 427 LINE",
"360 520 LINE",
"11 520 LINE",
"11 427 LINE"
);
},
{
closed = 1;
nodes = (
"559 299 LINE",
"559 340 LINE",
"404 340 LINE",
"404 299 LINE"
);
},
{
closed = 1;
nodes = (
"514 321 LINE",
"514 520 LINE",
"467 520 LINE",
"467 321 LINE"
);
},
{
closed = 1;
nodes = (
"512 479 LINE",
"512 520 LINE",
"404 520 LINE",
"404 479 LINE"
);
},
{
closed = 1;
nodes = (
"908 299 LINE",
"908 340 LINE",
"750 340 LINE",
"750 299 LINE"
);
},
{
closed = 1;
nodes = (
"670 297 LINE",
"833 520 LINE",
"786 520 LINE",
"639 315 LINE",
"650 297 LINE"
);
},
{
closed = 1;
nodes = (
"845 321 LINE",
"845 520 LINE",
"794 520 LINE",
"794 321 LINE"
);
},
{
closed = 1;
nodes = (
"908 479 LINE",
"908 520 LINE",
"796 520 LINE",
"796 479 LINE"
);
}
);
width = 940;
}
);
leftKerningGroup = trademark;
rightKerningGroup = trademark;
unicode = 2122;
},
{
glyphname = degree;
layers = (
{
layerId = "C70E3B11-AF58-44B6-92D7-58C9185F522D";
name = "Bold Extended";
paths = (
{
closed = 1;
nodes = (
"252 362 OFFCURVE",
"312 419 OFFCURVE",
"312 489 CURVE SMOOTH",
"312 570 OFFCURVE",
"252 613 OFFCURVE",
"159 613 CURVE SMOOTH",
"75 613 OFFCURVE",
"3 565 OFFCURVE",
"3 488 CURVE SMOOTH",
"3 414 OFFCURVE",
"75 362 OFFCURVE",
"159 362 CURVE SMOOTH"
);
},
{
closed = 1;
nodes = (
"117 431 OFFCURVE",
"84 455 OFFCURVE",
"84 488 CURVE SMOOTH",
"84 523 OFFCURVE",
"117 543 OFFCURVE",
"159 543 CURVE SMOOTH",
"206 543 OFFCURVE",
"232 527 OFFCURVE",
"232 489 CURVE SMOOTH",
"232 458 OFFCURVE",
"206 431 OFFCURVE",
"159 431 CURVE SMOOTH"
);
}
);
width = 316;
}
);
leftKerningGroup = degree;
rightKerningGroup = degree;
unicode = 00B0;
},
{
glyphname = asciicircum;
layers = (
{
layerId = "C70E3B11-AF58-44B6-92D7-58C9185F522D";
name = "Bold Extended";
paths = (
{
closed = 1;
nodes = (
"201 616 LINE",
"182 603 LINE",
"331 325 LINE",
"443 325 LINE",
"265 616 LINE"
);
},
{
closed = 1;
nodes = (
"189 616 LINE",
"1 325 LINE",
"114 325 LINE",
"272 603 LINE",
"254 616 LINE"
);
}
);
width = 445;
}
);
leftKerningGroup = asciicircum;
rightKerningGroup = asciicircum;
unicode = 005E;
},
{
glyphname = servicemark;
layers = (
{
layerId = "C70E3B11-AF58-44B6-92D7-58C9185F522D";
name = "Bold Extended";
paths = (
{
closed = 1;
nodes = (
"244 294 OFFCURVE",
"289 316 OFFCURVE",
"289 358 CURVE SMOOTH",
"289 401 OFFCURVE",
"251 421 OFFCURVE",
"154 430 CURVE SMOOTH",
"70 434 OFFCURVE",
"54 445 OFFCURVE",
"54 458 CURVE SMOOTH",
"54 475 OFFCURVE",
"72 483 OFFCURVE",
"123 483 CURVE SMOOTH",
"171 483 OFFCURVE",
"215 469 OFFCURVE",
"236 445 CURVE",
"272 446 LINE",
"272 520 LINE",
"228 520 LINE",
"228 460 LINE",
"252 470 LINE",
"217 503 OFFCURVE",
"170 524 OFFCURVE",
"110 524 CURVE SMOOTH",
"36 524 OFFCURVE",
"-3 498 OFFCURVE",
"-3 457 CURVE SMOOTH",
"-3 426 OFFCURVE",
"10 393 OFFCURVE",
"113 385 CURVE SMOOTH",
"212 379 OFFCURVE",
"233 369 OFFCURVE",
"233 354 CURVE SMOOTH",
"233 339 OFFCURVE",
"212 333 OFFCURVE",
"177 333 CURVE SMOOTH",
"126 333 OFFCURVE",
"69 345 OFFCURVE",
"37 375 CURVE",
"-3 376 LINE",
"-3 299 LINE",
"41 299 LINE",
"41 357 LINE",
"13 348 LINE",
"58 317 OFFCURVE",
"117 294 OFFCURVE",
"184 294 CURVE SMOOTH"
);
},
{
closed = 1;
nodes = (
"589 297 LINE",
"604 315 LINE",
"455 520 LINE",
"405 520 LINE",
"568 297 LINE"
);
},
{
closed = 1;
nodes = (
"488 299 LINE",
"488 340 LINE",
"333 340 LINE",
"333 299 LINE"
);
},
{
closed = 1;
nodes = (
"443 321 LINE",
"443 520 LINE",
"396 520 LINE",
"396 321 LINE"
);
},
{
closed = 1;
nodes = (
"441 479 LINE",
"441 520 LINE",
"333 520 LINE",
"333 479 LINE"
);
},
{
closed = 1;
nodes = (
"837 299 LINE",
"837 340 LINE",
"679 340 LINE",
"679 299 LINE"
);
},
{
closed = 1;
nodes = (
"600 297 LINE",
"762 520 LINE",
"716 520 LINE",
"569 315 LINE",
"580 297 LINE"
);
},
{
closed = 1;
nodes = (
"774 321 LINE",
"774 520 LINE",
"723 520 LINE",
"723 321 LINE"
);
},
{
closed = 1;
nodes = (
"837 479 LINE",
"837 520 LINE",
"725 520 LINE",
"725 479 LINE"
);
}
);
width = 869;
}
);
leftKerningGroup = servicemark;
rightKerningGroup = servicemark;
unicode = 2120;
},
{
glyphname = dieresiscomb;
layers = (
{
anchors = (
{
name = _top;
position = "{234, 421}";
}
);
layerId = "C70E3B11-AF58-44B6-92D7-58C9185F522D";
name = "Bold Extended";
paths = (
{
closed = 1;
nodes = (
"398 545 OFFCURVE",
"424 568 OFFCURVE",
"424 596 CURVE",
"424 626 OFFCURVE",
"398 648 OFFCURVE",
"358 648 CURVE",
"319 648 OFFCURVE",
"290 626 OFFCURVE",
"290 596 CURVE",
"290 568 OFFCURVE",
"319 545 OFFCURVE",
"358 545 CURVE"
);
},
{
closed = 1;
nodes = (
"150 545 OFFCURVE",
"177 568 OFFCURVE",
"177 596 CURVE",
"177 626 OFFCURVE",
"150 648 OFFCURVE",
"110 648 CURVE",
"71 648 OFFCURVE",
"43 626 OFFCURVE",
"43 596 CURVE",
"43 568 OFFCURVE",
"71 545 OFFCURVE",
"110 545 CURVE"
);
}
);
width = 455;
}
);
leftKerningGroup = dieresiscomb;
rightKerningGroup = dieresiscomb;
unicode = 0308;
},
{
glyphname = dotaccentcomb;
layers = (
{
anchors = (
{
name = _top;
position = "{149, 474}";
}
);
layerId = "C70E3B11-AF58-44B6-92D7-58C9185F522D";
name = "Bold Extended";
paths = (
{
closed = 1;
nodes = (
"201 529 OFFCURVE",
"232 554 OFFCURVE",
"232 587 CURVE",
"232 622 OFFCURVE",
"201 647 OFFCURVE",
"150 647 CURVE",
"101 647 OFFCURVE",
"68 622 OFFCURVE",
"68 587 CURVE",
"68 554 OFFCURVE",
"101 529 OFFCURVE",
"150 529 CURVE"
);
}
);
width = 299;
}
);
leftKerningGroup = dotaccentcomb;
rightKerningGroup = dotaccentcomb;
unicode = 0307;
},
{
glyphname = gravecomb;
layers = (
{
anchors = (
{
name = _top;
position = "{204, 481}";
}
);
layerId = "C70E3B11-AF58-44B6-92D7-58C9185F522D";
name = "Bold Extended";
paths = (
{
closed = 1;
nodes = (
"394 528 LINE",
"78 632 LINE",
"132 720 LINE",
"420 574 LINE"
);
}
);
width = 497;
}
);
leftKerningGroup = gravecomb;
rightKerningGroup = gravecomb;
unicode = 0300;
},
{
glyphname = acutecomb;
layers = (
{
anchors = (
{
name = _top;
position = "{276, 501}";
}
);
layerId = "C70E3B11-AF58-44B6-92D7-58C9185F522D";
name = "Bold Extended";
paths = (
{
closed = 1;
nodes = (
"366 720 LINE",
"420 632 LINE",
"104 528 LINE",
"78 574 LINE"
);
}
);
width = 497;
}
);
leftKerningGroup = acutecomb;
rightKerningGroup = acutecomb;
unicode = 0301;
},
{
glyphname = hungarumlautcomb;
layers = (
{
anchors = (
{
name = _top;
position = "{256, 428}";
}
);
layerId = "C70E3B11-AF58-44B6-92D7-58C9185F522D";
name = "Bold Extended";
paths = (
{
closed = 1;
nodes = (
"479 601 LINE",
"404 671 LINE",
"249 494 LINE",
"302 446 LINE"
);
},
{
closed = 1;
nodes = (
"283 601 LINE",
"208 671 LINE",
"53 494 LINE",
"106 446 LINE"
);
}
);
width = 532;
}
);
leftKerningGroup = hungarumlautcomb;
rightKerningGroup = hungarumlautcomb;
unicode = 030B;
},
{
glyphname = circumflexcomb;
layers = (
{
anchors = (
{
name = _top;
position = "{226, 425}";
}
);
layerId = "C70E3B11-AF58-44B6-92D7-58C9185F522D";
name = "Bold Extended";
paths = (
{
closed = 1;
nodes = (
"225 505 LINE",
"374 423 LINE",
"409 457 LINE",
"254 594 LINE",
"198 594 LINE",
"43 457 LINE",
"78 423 LINE"
);
}
);
width = 452;
}
);
leftKerningGroup = circumflexcomb;
rightKerningGroup = circumflexcomb;
unicode = 0302;
},
{
glyphname = caroncomb;
layers = (
{
anchors = (
{
name = _top;
position = "{226, 415}";
}
);
layerId = "C70E3B11-AF58-44B6-92D7-58C9185F522D";
name = "Bold Extended";
paths = (
{
closed = 1;
nodes = (
"227 530 LINE",
"78 612 LINE",
"43 578 LINE",
"198 441 LINE",
"254 441 LINE",
"409 578 LINE",
"374 612 LINE"
);
}
);
width = 452;
}
);
leftKerningGroup = caroncomb;
rightKerningGroup = caroncomb;
unicode = 030C;
},
{
glyphname = brevecomb;
layers = (
{
anchors = (
{
name = _top;
position = "{228, 428}";
}
);
layerId = "C70E3B11-AF58-44B6-92D7-58C9185F522D";
name = "Bold Extended";
paths = (
{
closed = 1;
nodes = (
"319 454 OFFCURVE",
"394 525 OFFCURVE",
"403 600 CURVE",
"335 612 LINE",
"321 573 OFFCURVE",
"271 549 OFFCURVE",
"228 549 CURVE",
"185 549 OFFCURVE",
"135 573 OFFCURVE",
"121 612 CURVE",
"53 600 LINE",
"62 525 OFFCURVE",
"139 454 OFFCURVE",
"228 454 CURVE"
);
}
);
width = 457;
}
);
leftKerningGroup = brevecomb;
rightKerningGroup = brevecomb;
unicode = 0306;
},
{
glyphname = ringcomb;
layers = (
{
anchors = (
{
name = _top;
position = "{195, 391}";
}
);
layerId = "C70E3B11-AF58-44B6-92D7-58C9185F522D";
name = "Bold Extended";
paths = (
{
closed = 1;
nodes = (
"269 473 OFFCURVE",
"333 514 OFFCURVE",
"333 578 CURVE",
"333 637 OFFCURVE",
"269 684 OFFCURVE",
"195 684 CURVE",
"120 684 OFFCURVE",
"58 642 OFFCURVE",
"58 579 CURVE",
"58 519 OFFCURVE",
"120 473 OFFCURVE",
"195 473 CURVE"
);
},
{
closed = 1;
nodes = (
"153 529 OFFCURVE",
"119 551 OFFCURVE",
"119 579 CURVE",
"119 607 OFFCURVE",
"153 628 OFFCURVE",
"195 628 CURVE",
"237 628 OFFCURVE",
"272 605 OFFCURVE",
"272 578 CURVE",
"272 549 OFFCURVE",
"237 529 OFFCURVE",
"195 529 CURVE"
);
}
);
width = 390;
}
);
leftKerningGroup = ringcomb;
rightKerningGroup = ringcomb;
unicode = 030A;
},
{
glyphname = tildecomb;
layers = (
{
anchors = (
{
name = _top;
position = "{297, 371}";
}
);
layerId = "C70E3B11-AF58-44B6-92D7-58C9185F522D";
name = "Bold Extended";
paths = (
{
closed = 1;
nodes = (
"434 486 OFFCURVE",
"476 547 OFFCURVE",
"483 598 CURVE",
"420 605 LINE",
"410 579 OFFCURVE",
"393 548 OFFCURVE",
"365 548 CURVE SMOOTH",
"346 548 OFFCURVE",
"320 563 OFFCURVE",
"295 570 CURVE SMOOTH",
"265 577 OFFCURVE",
"231 603 OFFCURVE",
"179 603 CURVE SMOOTH",
"107 603 OFFCURVE",
"65 541 OFFCURVE",
"58 489 CURVE",
"122 481 LINE",
"132 509 OFFCURVE",
"148 541 OFFCURVE",
"177 541 CURVE SMOOTH",
"198 541 OFFCURVE",
"222 526 OFFCURVE",
"247 519 CURVE SMOOTH",
"277 512 OFFCURVE",
"313 486 OFFCURVE",
"363 486 CURVE SMOOTH"
);
}
);
width = 541;
}
);
leftKerningGroup = tildecomb;
rightKerningGroup = tildecomb;
unicode = 0303;
},
{
glyphname = macroncomb;
layers = (
{
anchors = (
{
name = _top;
position = "{320, 441}";
}
);
layerId = "C70E3B11-AF58-44B6-92D7-58C9185F522D";
name = "Bold Extended";
paths = (
{
closed = 1;
nodes = (
"58 623 LINE",
"58 539 LINE",
"563 537 LINE",
"563 621 LINE"
);
}
);
width = 621;
}
);
leftKerningGroup = macroncomb;
rightKerningGroup = macroncomb;
unicode = 0304;
},
{
glyphname = hookabovecomb;
layers = (
{
anchors = (
{
name = _hook;
position = "{97, 535}";
}
);
layerId = "C70E3B11-AF58-44B6-92D7-58C9185F522D";
name = "Bold Extended";
paths = (
{
closed = 1;
nodes = (
"181 540 LINE",
"206 566 OFFCURVE",
"227 593 OFFCURVE",
"227 631 CURVE SMOOTH",
"227 673 OFFCURVE",
"185 700 OFFCURVE",
"130 700 CURVE SMOOTH",
"84 700 OFFCURVE",
"51 689 OFFCURVE",
"25 674 CURVE",
"45 613 LINE",
"64 625 OFFCURVE",
"89 634 OFFCURVE",
"116 634 CURVE SMOOTH",
"145 634 OFFCURVE",
"159 620 OFFCURVE",
"159 605 CURVE SMOOTH",
"159 587 OFFCURVE",
"150 572 OFFCURVE",
"139 554 CURVE"
);
}
);
width = 45;
}
);
unicode = 0309;
},
{
glyphname = commaturnedabovecomb;
layers = (
{
anchors = (
{
name = _top;
position = "{127, 433}";
}
);
layerId = "C70E3B11-AF58-44B6-92D7-58C9185F522D";
name = "Bold Extended";
paths = (
{
closed = 1;
nodes = (
"58 534 OFFCURVE",
"90 509 OFFCURVE",
"127 509 CURVE SMOOTH",
"168 509 OFFCURVE",
"196 529 OFFCURVE",
"196 556 CURVE SMOOTH",
"196 581 OFFCURVE",
"175 598 OFFCURVE",
"141 598 CURVE SMOOTH",
"131 598 OFFCURVE",
"117 598 OFFCURVE",
"110 594 CURVE",
"112 608 OFFCURVE",
"132 643 OFFCURVE",
"182 681 CURVE",
"157 707 LINE",
"101 667 OFFCURVE",
"58 621 OFFCURVE",
"58 579 CURVE SMOOTH"
);
}
);
width = 269;
}
);
leftKerningGroup = commaturnedabovecomb;
rightKerningGroup = commaturnedabovecomb;
unicode = 0312;
},
{
glyphname = commaaccentcomb;
layers = (
{
anchors = (
{
name = _bottom;
position = "{142, 0}";
}
);
layerId = "C70E3B11-AF58-44B6-92D7-58C9185F522D";
name = "Bold Extended";
paths = (
{
closed = 1;
nodes = (
"219 -109 OFFCURVE",
"187 -84 OFFCURVE",
"150 -84 CURVE SMOOTH",
"109 -84 OFFCURVE",
"81 -104 OFFCURVE",
"81 -131 CURVE SMOOTH",
"81 -156 OFFCURVE",
"102 -173 OFFCURVE",
"136 -173 CURVE SMOOTH",
"146 -173 OFFCURVE",
"160 -173 OFFCURVE",
"167 -169 CURVE",
"165 -183 OFFCURVE",
"145 -218 OFFCURVE",
"95 -256 CURVE",
"120 -282 LINE",
"176 -242 OFFCURVE",
"219 -196 OFFCURVE",
"219 -154 CURVE SMOOTH"
);
}
);
width = 301;
}
);
leftKerningGroup = commaaccentcomb;
rightKerningGroup = commaaccentcomb;
unicode = 0326;
},
{
glyphname = cedillacomb;
layers = (
{
anchors = (
{
name = _bottom;
position = "{191, -11}";
}
);
layerId = "C70E3B11-AF58-44B6-92D7-58C9185F522D";
name = "Bold Extended";
paths = (
{
closed = 1;
nodes = (
"273 -199 OFFCURVE",
"323 -164 OFFCURVE",
"323 -122 CURVE SMOOTH",
"323 -79 OFFCURVE",
"292 -60 OFFCURVE",
"224 -55 CURVE SMOOTH",
"170 -50 OFFCURVE",
"142 -45 OFFCURVE",
"142 -28 CURVE SMOOTH",
"142 -16 OFFCURVE",
"154 -7 OFFCURVE",
"159 -11 CURVE",
"120 5 LINE",
"96 4 OFFCURVE",
"70 -20 OFFCURVE",
"70 -49 CURVE SMOOTH",
"70 -81 OFFCURVE",
"109 -103 OFFCURVE",
"184 -109 CURVE SMOOTH",
"242 -114 OFFCURVE",
"251 -113 OFFCURVE",
"251 -123 CURVE SMOOTH",
"251 -134 OFFCURVE",
"226 -139 OFFCURVE",
"194 -139 CURVE SMOOTH",
"153 -139 OFFCURVE",
"103 -122 OFFCURVE",
"72 -98 CURVE",
"38 -148 LINE",
"61 -171 OFFCURVE",
"121 -199 OFFCURVE",
"191 -199 CURVE SMOOTH"
);
}
);
width = 360;
}
);
leftKerningGroup = cedillacomb;
rightKerningGroup = cedillacomb;
unicode = 0327;
},
{
glyphname = ogonekcomb;
layers = (
{
anchors = (
{
name = _ogonek;
position = "{211, -6}";
}
);
layerId = "C70E3B11-AF58-44B6-92D7-58C9185F522D";
name = "Bold Extended";
paths = (
{
closed = 1;
nodes = (
"181 19 LINE",
"124 10 OFFCURVE",
"58 -25 OFFCURVE",
"58 -96 CURVE SMOOTH",
"58 -148 OFFCURVE",
"115 -174 OFFCURVE",
"176 -174 CURVE SMOOTH",
"234 -174 OFFCURVE",
"274 -156 OFFCURVE",
"308 -136 CURVE",
"285 -77 LINE",
"260 -93 OFFCURVE",
"226 -108 OFFCURVE",
"187 -108 CURVE SMOOTH",
"158 -108 OFFCURVE",
"126 -100 OFFCURVE",
"126 -77 CURVE SMOOTH",
"126 -39 OFFCURVE",
"175 -13 OFFCURVE",
"211 -6 CURVE"
);
}
);
width = 365;
}
);
leftKerningGroup = ogonekcomb;
rightKerningGroup = ogonekcomb;
unicode = 0328;
},
{
glyphname = slashshortcomb;
layers = (
{
layerId = "C70E3B11-AF58-44B6-92D7-58C9185F522D";
name = "Bold Extended";
paths = (
{
closed = 1;
nodes = (
"330 391 LINE",
"241 391 LINE",
"72 67 LINE",
"161 67 LINE"
);
}
);
width = 401;
}
);
leftKerningGroup = slashshortcomb;
rightKerningGroup = slashshortcomb;
unicode = 0337;
},
{
glyphname = commaturnedmod;
layers = (
{
anchors = (
{
name = _bottom;
position = "{141, 0}";
}
);
layerId = "C70E3B11-AF58-44B6-92D7-58C9185F522D";
name = "Bold Extended";
paths = (
{
closed = 1;
nodes = (
"58 -230 OFFCURVE",
"89 -257 OFFCURVE",
"132 -257 CURVE SMOOTH",
"176 -257 OFFCURVE",
"206 -236 OFFCURVE",
"206 -207 CURVE SMOOTH",
"206 -180 OFFCURVE",
"183 -161 OFFCURVE",
"147 -161 CURVE SMOOTH",
"135 -161 OFFCURVE",
"119 -162 OFFCURVE",
"111 -166 CURVE",
"113 -153 OFFCURVE",
"129 -106 OFFCURVE",
"172 -81 CURVE",
"147 -56 LINE",
"98 -81 OFFCURVE",
"58 -140 OFFCURVE",
"58 -182 CURVE SMOOTH"
);
}
);
width = 279;
}
);
leftKerningGroup = commaturnedmod;
rightKerningGroup = commaturnedmod;
unicode = 02BB;
},
{
glyphname = doubleprimemod;
layers = (
{
layerId = "C70E3B11-AF58-44B6-92D7-58C9185F522D";
name = "Bold Extended";
paths = (
{
closed = 1;
nodes = (
"96 324 LINE",
"169 318 LINE",
"245 544 LINE",
"127 558 LINE"
);
},
{
closed = 1;
nodes = (
"302 323 LINE",
"375 317 LINE",
"451 543 LINE",
"333 558 LINE"
);
}
);
width = 532;
}
);
leftKerningGroup = doubleprimemod;
rightKerningGroup = doubleprimemod;
unicode = 02BA;
},
{
glyphname = primemod;
layers = (
{
layerId = "C70E3B11-AF58-44B6-92D7-58C9185F522D";
name = "Bold Extended";
paths = (
{
closed = 1;
nodes = (
"96 330 LINE",
"167 317 LINE",
"264 537 LINE",
"149 563 LINE"
);
}
);
width = 345;
}
);
leftKerningGroup = primemod;
rightKerningGroup = primemod;
unicode = 02B9;
},
